<?xml version="1.0" encoding="UTF-8"?>
<!DOCTYPE svg PUBLIC "-//W3C//DTD SVG 1.1//EN"
  "http://www.w3.org/Graphics/SVG/1.1/DTD/svg11.dtd">
<!-- Created with Inkpad (http://www.taptrix.com/) --><svg xmlns:inkpad="http://taptrix.com/inkpad/svg_extensions" height="480px" xmlns:xlink="http://www.w3.org/1999/xlink" xmlns="http://www.w3.org/2000/svg" width="640px" version="1.1" viewBox="0,0,640,480">


<defs/>
<g id="Layer" inkpad:layer="">
<path stroke="#000000" stroke-width="2" d="M157.74+188.475C183.664+214.399+189.379+247.894+189.379+282.486" fill="none" stroke-linecap="round" opacity="1" stroke-linejoin="round"/>
<path stroke="#000000" stroke-width="2" d="M392.316+183.503C383.124+211.081+379.209+248.507+379.209+277.966" fill="none" stroke-linecap="round" opacity="1" stroke-linejoin="round"/>
<path stroke="#000000" stroke-width="2" d="M166.78+263.955C166.78+294.07+174.899+324.907+188.023+352.09C194.395+365.29+215.593+380.811+215.593+396.384" fill="none" stroke-linecap="round" opacity="1" stroke-linejoin="round"/>
<path stroke="#000000" stroke-width="2" d="M414.011+286.554C409.874+334.129+367.419+354.918+355.706+390.056" fill="none" stroke-linecap="round" opacity="1" stroke-linejoin="round"/>
<path stroke="#000000" stroke-width="2" d="M154.124+103.051C154.124+66.739+156.454+1.80792+208.362+1.80792" fill="none" stroke-linecap="round" opacity="1" stroke-linejoin="round"/>
<path stroke="#000000" stroke-width="2" d="M388.249+4.51978C404.142+25.7115+426.64+117.555+411.299+140.565" fill="none" stroke-linecap="round" opacity="1" stroke-linejoin="round"/>
<path stroke="#000000" stroke-width="2" d="M145.537+171.299C156.907+148.56+111.06+145.71+108.927+161.356C106.106+182.04+132.19+208.012+138.757+226.893C141.86+235.814+143.367+245.103+144.181+254.463C144.55+258.714+145.085+262.853+145.085+267.119C145.085+268.324+145.085+271.94+145.085+270.734C145.085+262.125+144.993+253.619+144.633+244.972C144.213+234.899+143.756+224.757+143.277+214.689C142.203+192.131+147.821+239.635+155.48+252.655" fill="none" stroke-linecap="round" opacity="1" stroke-linejoin="round"/>
<path stroke="#000000" stroke-width="2" d="M427.119+161.808C431.855+156.124+435.542+152.223+441.582+147.345C458.972+133.299+463.454+147.718+457.401+165.876C451.913+182.341+434.663+192.334+431.186+209.718C427.509+228.105+449.658+263.071+423.955+271.638" fill="none" stroke-linecap="round" opacity="1" stroke-linejoin="round"/>
<path stroke="#000000" stroke-width="2" d="M422.599+204.294C428.662+202.778+426.608+219.323+425.763+222.825C423.463+232.353+413.288+243.293+407.684+251.299" fill="none" stroke-linecap="round" opacity="1" stroke-linejoin="round"/>
<path stroke="#000000" stroke-width="2" d="M242.26+392.768C248.006+415.755+295.319+416.138+309.605+405.424" fill="none" stroke-linecap="round" opacity="1" stroke-linejoin="round"/>
<path stroke="#000000" stroke-width="2" d="M192.542+366.554C202.258+398.941+203.526+427.034+208.814+458.757" fill="none" stroke-linecap="round" opacity="1" stroke-linejoin="round"/>
<path stroke="#000000" stroke-width="2" d="M373.333+370.169C375.571+408.202+404.564+430.326+428.023+453.785" fill="none" stroke-linecap="round" opacity="1" stroke-linejoin="round"/>
</g>
<g id="Layer_2" inkpad:layer="">
<path stroke="#000000" stroke-width="2" d="M255.367+225.989C270.013+225.989+266.944+248.622+281.13+250.395C295.454+252.186+287.314+229.153+299.661+229.153" fill="none" stroke-linecap="round" opacity="1" stroke-linejoin="round"/>
<path stroke="#000000" stroke-width="2" d="M248.588+202.486C248.588+242.436+233.623+225.939+261.243+253.559" fill="none" stroke-linecap="round" opacity="1" stroke-linejoin="round"/>
<path stroke="#000000" stroke-width="2" d="M309.605+200.678C319.699+234.327+322.843+214.441+309.605+250.847" fill="none" stroke-linecap="round" opacity="1" stroke-linejoin="round"/>
<path stroke="#000000" stroke-width="2" d="M264.859+189.379C274.005+182.061+279.931+180.854+291.073+185.311" fill="none" stroke-linecap="round" opacity="1" stroke-linejoin="round"/>
<path stroke="#000000" stroke-width="2" d="M165.424+136.949C172.015+131.091+178.9+125.626+186.215+120.678C191.496+117.105+198.108+114.479+204.294+112.994C249.245+102.206+232.891+159.609+205.65+145.989C195.082+140.705+208.147+110.558+221.017+115.706C227.126+118.15+225.641+131.073+218.757+131.073" fill="none" stroke-linecap="round" opacity="1" stroke-linejoin="round"/>
<path stroke="#000000" stroke-width="2" d="M367.006+126.554C356.464+119.846+329.316+99.6296+317.288+112.994C302.668+129.239+332.013+159.287+346.667+144.633C358.073+133.226+331.438+116.472+325.424+122.486C320.797+127.113+329.816+133.333+333.559+133.333" fill="none" stroke-linecap="round" opacity="1" stroke-linejoin="round"/>
<path stroke="#000000" stroke-width="2" d="M234.576+321.808C260.845+321.808+286.977+319.894+313.22+318.644C323.026+318.177+332.784+318.192+342.599+318.192C344.836+318.192+355.614+318.192+354.802+318.192" fill="none" stroke-linecap="round" opacity="1" stroke-linejoin="round"/>
<path stroke="#000000" stroke-width="2" d="M226.893+323.616C240.009+319.868+247.261+307.907+259.435+302.373C268.749+298.139+275.39+313.781+284.746+315.028C296.118+316.545+297.064+307.881+306.441+305.537C317.395+302.798+333.443+308.295+344.407+308.701" fill="none" stroke-linecap="round" opacity="1" stroke-linejoin="round"/>
<path stroke="#000000" stroke-width="2" d="M270.734+357.514C283.54+357.514+296.347+357.514+309.153+357.514" fill="none" stroke-linecap="round" opacity="1" stroke-linejoin="round"/>
<path stroke="#000000" stroke-width="2" d="M169.944+112.542C184.292+95.8028+201.277+92.163+218.305+80" fill="none" stroke-linecap="round" opacity="1" stroke-linejoin="round"/>
<path stroke="#000000" stroke-width="2" d="M327.232+77.7401C344.963+79.1041+363.419+94.704+379.209+102.599" fill="none" stroke-linecap="round" opacity="1" stroke-linejoin="round"/>
</g>
<g id="Layer_3" inkpad:layer="">
<path stroke="#443d47" stroke-opacity="0.253219" stroke-width="12.5781" d="M216.497+123.842C214.689+126.102+212.881+128.362+211.073+130.621" fill="none" stroke-linecap="round" opacity="1" stroke-linejoin="round"/>
<path stroke="#443d47" stroke-opacity="0.253219" stroke-width="12.5781" d="M321.808+117.966C325.574+123.238+329.555+127.876+333.559+132.881" fill="none" stroke-linecap="round" opacity="1" stroke-linejoin="round"/>
<path stroke="#443d47" stroke-opacity="0.253219" stroke-width="12.5781" d="M220.113+122.034C216.84+126.943+218.13+124.644+216.045+128.814" fill="none" stroke-linecap="round" opacity="1" stroke-linejoin="round"/>
<path stroke="#443d47" stroke-opacity="0.253219" stroke-width="12.5781" d="M325.424+119.322C331.228+123.966+336.02+128.858+339.887+135.141" fill="none" stroke-linecap="round" opacity="1" stroke-linejoin="round"/>
<path stroke="#443d47" stroke-opacity="0.253219" stroke-width="12.5781" d="M227.345+104.407C236.712+111.432+244.068+121.268+244.068+133.333" fill="none" stroke-linecap="round" opacity="1" stroke-linejoin="round"/>
<path stroke="#443d47" stroke-opacity="0.253219" stroke-width="12.5781" d="M201.13+377.401C209.586+390.086+220.864+407.81+232.316+417.627" fill="none" stroke-linecap="round" opacity="1" stroke-linejoin="round"/>
<path stroke="#443d47" stroke-opacity="0.253219" stroke-width="12.5781" d="M302.373+312.768C311.563+312.768+320.753+312.768+329.944+312.768" fill="none" stroke-linecap="round" opacity="1" stroke-linejoin="round"/>
</g>
<g id="Layer_4" inkpad:layer="">
<path stroke="#443d47" stroke-opacity="0.253219" stroke-width="22.0504" d="M168.136+123.842C185.29+109.546+202.654+92.7794+226.893+97.6271" fill="none" stroke-linecap="round" opacity="1" stroke-linejoin="round"/>
<path stroke="#443d47" stroke-opacity="0.253219" stroke-width="22.0504" d="M321.808+91.2994C348.927+91.2994+361.065+120.215+385.537+124.294" fill="none" stroke-linecap="round" opacity="1" stroke-linejoin="round"/>
<path stroke="#443d47" stroke-opacity="0.253219" stroke-width="22.0504" d="M285.198+259.435C285.198+267.597+284.746+275.69+284.746+283.842" fill="none" stroke-linecap="round" opacity="1" stroke-linejoin="round"/>
<path stroke="#443d47" stroke-opacity="0.253219" stroke-width="22.0504" d="M243.616+323.616C263.303+294.085+270.293+320.506+292.429+321.808C311.367+322.922+326.668+313.672+345.763+313.672" fill="none" stroke-linecap="round" opacity="1" stroke-linejoin="round"/>
<path stroke="#443d47" stroke-opacity="0.253219" stroke-width="22.0504" d="M269.379+346.667C282.583+346.667+295.553+345.311+308.701+345.311" fill="none" stroke-linecap="round" opacity="1" stroke-linejoin="round"/>
<path stroke="#443d47" stroke-opacity="0.253219" stroke-width="22.0504" d="M263.503+210.621C264.497+219.569+269.073+232.808+276.61+238.192" fill="none" stroke-linecap="round" opacity="1" stroke-linejoin="round"/>
<path stroke="#443d47" stroke-opacity="0.253219" stroke-width="22.0504" d="M259.887+231.412C259.887+229.73+270.735+244.972+276.158+246.328" fill="none" stroke-linecap="round" opacity="1" stroke-linejoin="round"/>
<path stroke="#443d47" stroke-opacity="0.253219" stroke-width="22.0504" d="M161.356+192.09C192.024+226.593+192.908+282.347+202.938+324.972" fill="none" stroke-linecap="round" opacity="1" stroke-linejoin="round"/>
<path stroke="#443d47" stroke-opacity="0.253219" stroke-width="22.0504" d="M240+395.48C253.207+427.177+305.64+425.308+327.232+405.876" fill="none" stroke-linecap="round" opacity="1" stroke-linejoin="round"/>
<path stroke="#443d47" stroke-opacity="0.253219" stroke-width="22.0504" d="M207.91+385.537C207.825+385.282+206.726+381.469+206.554+381.469C205.189+381.469+206.621+384.228+207.006+385.537C208.92+392.047+211.489+397.755+212.881+404.52C214.301+411.414+224.774+465.014+219.209+467.797" fill="none" stroke-linecap="round" opacity="1" stroke-linejoin="round"/>
<path stroke="#443d47" stroke-opacity="0.253219" stroke-width="22.0504" d="M133.333+169.944C148.927+202.864+142.353+236.56+152.768+262.599C153.952+265.558+160.904+273.562+160.904+275.706" fill="none" stroke-linecap="round" opacity="1" stroke-linejoin="round"/>
<path stroke="#443d47" stroke-opacity="0.253219" stroke-width="22.0504" d="M164.972+211.977C184+233.724+188.306+275.032+195.254+302.825C196.752+308.816+196.708+328.411+202.486+331.299" fill="none" stroke-linecap="round" opacity="1" stroke-linejoin="round"/>
<path stroke="#443d47" stroke-opacity="0.253219" stroke-width="22.0504" d="M193.446+152.316C203.933+160.706+223.555+158.111+233.22+150.057" fill="none" stroke-linecap="round" opacity="1" stroke-linejoin="round"/>
<path stroke="#443d47" stroke-opacity="0.253219" stroke-width="22.0504" d="M320.452+147.797C336.833+151.892+351.912+153.22+368.814+153.22" fill="none" stroke-linecap="round" opacity="1" stroke-linejoin="round"/>
<path stroke="#443d47" stroke-opacity="0.253219" stroke-width="22.0504" d="M235.48+97.6271C258.163+97.6271+254.463+160.474+254.463+176.271" fill="none" stroke-linecap="round" opacity="1" stroke-linejoin="round"/>
<path stroke="#443d47" stroke-opacity="0.253219" stroke-width="22.0504" d="M213.333+9.49154C170.839+23.6562+171.299+80.9316+171.299+116.158" fill="none" stroke-linecap="round" opacity="1" stroke-linejoin="round"/>
<path stroke="#443d47" stroke-opacity="0.253219" stroke-width="22.0504" d="M217.853+16.7232C192.389+48.5539+191.525+45.0951+188.475+90.8475" fill="none" stroke-linecap="round" opacity="1" stroke-linejoin="round"/>
<path stroke="#443d47" stroke-opacity="0.253219" stroke-width="22.0504" d="M173.107+122.034C173.107+135.495+167.232+148.798+167.232+162.712" fill="none" stroke-linecap="round" opacity="1" stroke-linejoin="round"/>
<path stroke="#443d47" stroke-opacity="0.253219" stroke-width="22.0504" d="M242.712+328.136C250.822+322.053+259.194+314.938+268.475+310.96" fill="none" stroke-linecap="round" opacity="1" stroke-linejoin="round"/>
<path stroke="#443d47" stroke-opacity="0.253219" stroke-width="12.5781" d="M315.932+207.006C327.061+245.956+366.102+267.17+366.102+308.701" fill="none" stroke-linecap="round" opacity="1" stroke-linejoin="round"/>
<path stroke="#443d47" stroke-opacity="0.253219" stroke-width="12.5781" d="M244.068+208.362C237.814+225.039+240.276+240.492+238.644+257.627C237.144+273.377+227.841+286.149+220.565+299.661" fill="none" stroke-linecap="round" opacity="1" stroke-linejoin="round"/>
<path stroke="#443d47" stroke-opacity="0.253219" stroke-width="12.5781" d="M422.599+196.61C421.792+209.515+418.935+226.036+409.492+235.48" fill="none" stroke-linecap="round" opacity="1" stroke-linejoin="round"/>
<path stroke="#443d47" stroke-opacity="0.253219" stroke-width="12.5781" d="M191.186+149.153C205.312+149.153+218.956+151.958+233.22+150.057" fill="none" stroke-linecap="round" opacity="1" stroke-linejoin="round"/>
<path stroke="#443d47" stroke-opacity="0.253219" stroke-width="12.5781" d="M313.22+140.113C330.22+141.53+345.484+145.989+362.938+145.989" fill="none" stroke-linecap="round" opacity="1" stroke-linejoin="round"/>
<path stroke="#443d47" stroke-opacity="0.253219" stroke-width="12.5781" d="M326.78+103.503C343.183+103.503+360.597+107.037+372.429+118.87" fill="none" stroke-linecap="round" opacity="1" stroke-linejoin="round"/>
<path stroke="#443d47" stroke-opacity="0.253219" stroke-width="12.5781" d="M179.435+116.61C198.157+107.249+211.433+105.477+231.412+102.147" fill="none" stroke-linecap="round" opacity="1" stroke-linejoin="round"/>
<path stroke="#443d47" stroke-opacity="0.253219" stroke-width="12.5781" d="M243.164+104.859C253.356+106.897+251.299+129.836+251.299+136.949" fill="none" stroke-linecap="round" opacity="1" stroke-linejoin="round"/>
<path stroke="#443d47" stroke-opacity="0.253219" stroke-width="12.5781" d="M169.492+103.051C182.803+94.7313+196.106+86.3225+209.266+77.7401" fill="none" stroke-linecap="round" opacity="1" stroke-linejoin="round"/>
<path stroke="#443d47" stroke-opacity="0.253219" stroke-width="12.5781" d="M322.712+66.4407C349.375+67.6527+370.179+85.7927+390.056+101.695" fill="none" stroke-linecap="round" opacity="1" stroke-linejoin="round"/>
<path stroke="#443d47" stroke-opacity="0.253219" stroke-width="12.5781" d="M169.492+98.9831C190.344+81.1092+207.008+75.0283+233.672+75.0283" fill="none" stroke-linecap="round" opacity="1" stroke-linejoin="round"/>
<path stroke="#443d47" stroke-opacity="0.253219" stroke-width="12.5781" d="M141.469+202.938C144.816+218.001+147.797+232.141+147.797+247.684" fill="none" stroke-linecap="round" opacity="1" stroke-linejoin="round"/>
<path stroke="#443d47" stroke-opacity="0.253219" stroke-width="12.5781" d="M198.418+343.051C205.552+357.318+220.05+365.431+233.22+373.333" fill="none" stroke-linecap="round" opacity="1" stroke-linejoin="round"/>
<path stroke="#443d47" stroke-opacity="0.253219" stroke-width="12.5781" d="M272.542+349.831C286.931+349.831+301.12+351.638+315.48+351.638" fill="none" stroke-linecap="round" opacity="1" stroke-linejoin="round"/>
<path stroke="#443d47" stroke-opacity="0.253219" stroke-width="12.5781" d="M319.096+207.458C321.926+221.608+331.814+231.893+337.627+244.972" fill="none" stroke-linecap="round" opacity="1" stroke-linejoin="round"/>
<path stroke="#443d47" stroke-opacity="0.253219" stroke-width="12.5781" d="M244.068+211.525C244.068+229.718+244.391+248.94+240.452+266.667" fill="none" stroke-linecap="round" opacity="1" stroke-linejoin="round"/>
</g>
</svg>
