<svg viewBox="0 0 1280 649" 
xmlns="http://www.w3.org/2000/svg"
xmlns:xlink="http://www.w3.org/1999/xlink">
<defs> 
<g id="t00003f"><polygon
         points="0,0 -1.5,-0.8660254037844386 -1,-1.7320508075688772 1,-1.7320508075688772 1.5,-0.8660254037844386 3,-1.7320508075688772 4.5,-0.8660254037844386 4,0 3,0 3,1.7320508075688772 1.5,2.598076211353316 1,1.7320508075688772 0,1.7320508075688772"
         stroke-width="0.09999999999999998"
         fill="rgb(254, 248, 20)"
         id="polygon3941"
         style="stroke:none" />
       
    <path
       style="fill:#000000;stroke:#000000;stroke-width:0.116;stroke-linecap:butt;stroke-linejoin:miter;stroke-opacity:1"
       d="m -0.76557835,-1.364683 c -0.206257,0.300263 0.01247,0.56118999 0.141072,0.71326799 0.167958,0.198617 0.708181,0.207869 0.708181,0.207869 l 0.107741,0.112692 0.01762,1.56190401 c 0,0 0.0971,0.167536 0.178659,0.167174 0.06613,-2.97e-4 0.143664,-0.136838 0.143664,-0.136838 l 0.01063,-1.09820401 c 0,0 0.177406,0.421404 0.332871,0.581932 0.10705,0.110535 0.39315595,0.241925 0.39315595,0.241925 L 1.4422506,2.407587 c 0,0 0.742446,-0.295165 0.692886,-0.442472 -0.08914,-0.26496 -0.425967,-0.07718 -0.425967,-0.07718 l 0.07792,-1.64830501 0.674169,-0.558814 1.165458,-0.117697 0.275274,0.122916 c 0,0 0.363846,-0.4689 0.209448,-0.625411 -0.09629,-0.09761 -0.391784,0.125311 -0.391784,0.125311 0,0 -0.75695,-0.06028 -1.359133,0.02665 -0.235993,-0.04909 -1.222122,0.74426 -1.006213,0.60032 0,0 -0.269473,-0.22956 -0.39715595,-0.340656 -0.127684,-0.111097 -0.446688,-0.248006 -0.446688,-0.248006 0,0 -0.07082,-0.41077999 -0.250971,-0.63153099 -0.378023,-0.319328 -0.818816,-0.257664 -1.025073,0.0426 z"
       id="path4183"
        />
    
</g>
<g id="t00004f"><polygon
         points="0,0 -1.5,-0.8660254037844386 -1,-1.7320508075688772 1,-1.7320508075688772 1.5,-0.8660254037844386 3,-1.7320508075688772 4.5,-0.8660254037844386 4,0 3,0 3,1.7320508075688772 1.5,2.598076211353316 1,1.7320508075688772 0,1.7320508075688772"
         stroke-width="0.09999999999999998"
         fill="rgb(19, 24, 18)"
         id="polygon3941"
         style="stroke:none" />
       
    <path
       style="fill:#ff0000;stroke:#000000;stroke-width:0.116;stroke-linecap:butt;stroke-linejoin:miter;stroke-opacity:1"
       d="m -0.76557835,-1.364683 c -0.206257,0.300263 0.01247,0.56118999 0.141072,0.71326799 0.167958,0.198617 0.708181,0.207869 0.708181,0.207869 l 0.107741,0.112692 0.01762,1.56190401 c 0,0 0.0971,0.167536 0.178659,0.167174 0.06613,-2.97e-4 0.143664,-0.136838 0.143664,-0.136838 l 0.01063,-1.09820401 c 0,0 0.177406,0.421404 0.332871,0.581932 0.10705,0.110535 0.39315595,0.241925 0.39315595,0.241925 L 1.4422506,2.407587 c 0,0 0.742446,-0.295165 0.692886,-0.442472 -0.08914,-0.26496 -0.425967,-0.07718 -0.425967,-0.07718 l 0.07792,-1.64830501 0.674169,-0.558814 1.165458,-0.117697 0.275274,0.122916 c 0,0 0.363846,-0.4689 0.209448,-0.625411 -0.09629,-0.09761 -0.391784,0.125311 -0.391784,0.125311 0,0 -0.75695,-0.06028 -1.359133,0.02665 -0.235993,-0.04909 -1.222122,0.74426 -1.006213,0.60032 0,0 -0.269473,-0.22956 -0.39715595,-0.340656 -0.127684,-0.111097 -0.446688,-0.248006 -0.446688,-0.248006 0,0 -0.07082,-0.41077999 -0.250971,-0.63153099 -0.378023,-0.319328 -0.818816,-0.257664 -1.025073,0.0426 z"
       id="path4183"
        />
    
</g>
<g id="t00006f"><polygon
         points="0,0 -1.5,-0.8660254037844386 -1,-1.7320508075688772 1,-1.7320508075688772 1.5,-0.8660254037844386 3,-1.7320508075688772 4.5,-0.8660254037844386 4,0 3,0 3,1.7320508075688772 1.5,2.598076211353316 1,1.7320508075688772 0,1.7320508075688772"
         stroke-width="0.09999999999999998"
         fill="rgb(155, 215, 40)"
         id="polygon3941"
         style="stroke:none" />
       
    <path
       style="fill:#009900;stroke:#000000;stroke-width:0.116;stroke-linecap:butt;stroke-linejoin:miter;stroke-opacity:1"
       d="m -0.76557835,-1.364683 c -0.206257,0.300263 0.01247,0.56118999 0.141072,0.71326799 0.167958,0.198617 0.708181,0.207869 0.708181,0.207869 l 0.107741,0.112692 0.01762,1.56190401 c 0,0 0.0971,0.167536 0.178659,0.167174 0.06613,-2.97e-4 0.143664,-0.136838 0.143664,-0.136838 l 0.01063,-1.09820401 c 0,0 0.177406,0.421404 0.332871,0.581932 0.10705,0.110535 0.39315595,0.241925 0.39315595,0.241925 L 1.4422506,2.407587 c 0,0 0.742446,-0.295165 0.692886,-0.442472 -0.08914,-0.26496 -0.425967,-0.07718 -0.425967,-0.07718 l 0.07792,-1.64830501 0.674169,-0.558814 1.165458,-0.117697 0.275274,0.122916 c 0,0 0.363846,-0.4689 0.209448,-0.625411 -0.09629,-0.09761 -0.391784,0.125311 -0.391784,0.125311 0,0 -0.75695,-0.06028 -1.359133,0.02665 -0.235993,-0.04909 -1.222122,0.74426 -1.006213,0.60032 0,0 -0.269473,-0.22956 -0.39715595,-0.340656 -0.127684,-0.111097 -0.446688,-0.248006 -0.446688,-0.248006 0,0 -0.07082,-0.41077999 -0.250971,-0.63153099 -0.378023,-0.319328 -0.818816,-0.257664 -1.025073,0.0426 z"
       id="path4183"
        />
    
</g>
<g id="t00008f"><polygon
         points="0,0 -1.5,-0.8660254037844386 -1,-1.7320508075688772 1,-1.7320508075688772 1.5,-0.8660254037844386 3,-1.7320508075688772 4.5,-0.8660254037844386 4,0 3,0 3,1.7320508075688772 1.5,2.598076211353316 1,1.7320508075688772 0,1.7320508075688772"
         stroke-width="0.09999999999999998"
         fill="rgb(41, 170, 231)"
         id="polygon3941"
         style="stroke:none" />
       
    <path
       style="fill:#0000ff;stroke:#000000;stroke-width:0.116;stroke-linecap:butt;stroke-linejoin:miter;stroke-opacity:1"
       d="m -0.76557835,-1.364683 c -0.206257,0.300263 0.01247,0.56118999 0.141072,0.71326799 0.167958,0.198617 0.708181,0.207869 0.708181,0.207869 l 0.107741,0.112692 0.01762,1.56190401 c 0,0 0.0971,0.167536 0.178659,0.167174 0.06613,-2.97e-4 0.143664,-0.136838 0.143664,-0.136838 l 0.01063,-1.09820401 c 0,0 0.177406,0.421404 0.332871,0.581932 0.10705,0.110535 0.39315595,0.241925 0.39315595,0.241925 L 1.4422506,2.407587 c 0,0 0.742446,-0.295165 0.692886,-0.442472 -0.08914,-0.26496 -0.425967,-0.07718 -0.425967,-0.07718 l 0.07792,-1.64830501 0.674169,-0.558814 1.165458,-0.117697 0.275274,0.122916 c 0,0 0.363846,-0.4689 0.209448,-0.625411 -0.09629,-0.09761 -0.391784,0.125311 -0.391784,0.125311 0,0 -0.75695,-0.06028 -1.359133,0.02665 -0.235993,-0.04909 -1.222122,0.74426 -1.006213,0.60032 0,0 -0.269473,-0.22956 -0.39715595,-0.340656 -0.127684,-0.111097 -0.446688,-0.248006 -0.446688,-0.248006 0,0 -0.07082,-0.41077999 -0.250971,-0.63153099 -0.378023,-0.319328 -0.818816,-0.257664 -1.025073,0.0426 z"
       id="path4183"
        />
    
</g>
<g id="t00010f"><polygon
         points="0,0 -1.5,-0.8660254037844386 -1,-1.7320508075688772 1,-1.7320508075688772 1.5,-0.8660254037844386 3,-1.7320508075688772 4.5,-0.8660254037844386 4,0 3,0 3,1.7320508075688772 1.5,2.598076211353316 1,1.7320508075688772 0,1.7320508075688772"
         stroke-width="0.09999999999999998"
         fill="rgb(229, 59, 94)"
         id="polygon3941"
         style="stroke:none" />
       
    <path
       style="fill:#ffff00;stroke:#000000;stroke-width:0.116;stroke-linecap:butt;stroke-linejoin:miter;stroke-opacity:1"
       d="m -0.76557835,-1.364683 c -0.206257,0.300263 0.01247,0.56118999 0.141072,0.71326799 0.167958,0.198617 0.708181,0.207869 0.708181,0.207869 l 0.107741,0.112692 0.01762,1.56190401 c 0,0 0.0971,0.167536 0.178659,0.167174 0.06613,-2.97e-4 0.143664,-0.136838 0.143664,-0.136838 l 0.01063,-1.09820401 c 0,0 0.177406,0.421404 0.332871,0.581932 0.10705,0.110535 0.39315595,0.241925 0.39315595,0.241925 L 1.4422506,2.407587 c 0,0 0.742446,-0.295165 0.692886,-0.442472 -0.08914,-0.26496 -0.425967,-0.07718 -0.425967,-0.07718 l 0.07792,-1.64830501 0.674169,-0.558814 1.165458,-0.117697 0.275274,0.122916 c 0,0 0.363846,-0.4689 0.209448,-0.625411 -0.09629,-0.09761 -0.391784,0.125311 -0.391784,0.125311 0,0 -0.75695,-0.06028 -1.359133,0.02665 -0.235993,-0.04909 -1.222122,0.74426 -1.006213,0.60032 0,0 -0.269473,-0.22956 -0.39715595,-0.340656 -0.127684,-0.111097 -0.446688,-0.248006 -0.446688,-0.248006 0,0 -0.07082,-0.41077999 -0.250971,-0.63153099 -0.378023,-0.319328 -0.818816,-0.257664 -1.025073,0.0426 z"
       id="path4183"
        />
    
</g><g id="t00002s">
    <use xlink:href="#t00003s" transform="matrix(-0.24999999999999997 -0.4330127018922194 0.4330127018922194 -0.24999999999999997 1 1.7320508075688774)"/>
    <use xlink:href="#t00003s" transform="matrix(-0.25 -0.4330127018922193 0.4330127018922193 -0.25 4 1.7320508075688772)"/>
    <use xlink:href="#t00003s" transform="matrix(-0.25000000000000006 0.43301270189221935 -0.43301270189221935 -0.25000000000000006 2.5 2.598076211353315)"/>
    <use xlink:href="#t00004s" transform="matrix(-0.25 0.4330127018922193 0.4330127018922193 0.25 2.5 0.8660254037844386)"/>
    <polygon points="0,0 4,0 4.5,0.8660254037844386 2.5,4.330127018922193 1.5,4.330127018922193 -0.5,0.8660254037844386" fill="none" stroke="rgb(0,0,0)" stroke-width="0.1"/>
  </g>
<g id="t00002f">
    <use xlink:href="#t00003f" transform="matrix(-0.24999999999999997 -0.4330127018922194 0.4330127018922194 -0.24999999999999997 1 1.7320508075688774)"/>
    <use xlink:href="#t00003f" transform="matrix(-0.25 -0.4330127018922193 0.4330127018922193 -0.25 4 1.7320508075688772)"/>
    <use xlink:href="#t00003f" transform="matrix(-0.25000000000000006 0.43301270189221935 -0.43301270189221935 -0.25000000000000006 2.5 2.598076211353315)"/>
    <use xlink:href="#t00004f" transform="matrix(-0.25 0.4330127018922193 0.4330127018922193 0.25 2.5 0.8660254037844386)"/>
  </g>
<g id="t00005s">
    <use xlink:href="#t00006s" transform="matrix(0.5 0 0 0.5 0.5 0.8660254037844386)"/>
    <polygon points="0,0 3,0 1.5,2.598076211353316" fill="none" stroke="rgb(0,0,0)" stroke-width="0.10000000000000007"/>
  </g>
<g id="t00005f">
    <use xlink:href="#t00006f" transform="matrix(0.5 0 0 0.5 0.5 0.8660254037844386)"/>
  </g>
<g id="t00007s">
    <use xlink:href="#t00008s" transform="matrix(0.5 0 0 0.5 1.5 0.8660254037844386)"/>
    <use xlink:href="#t00008s" transform="matrix(0.25 -0.4330127018922193 0.4330127018922193 0.25 0 1.7320508075688772)"/>
    <polygon points="0,0 4,0 3,1.7320508075688772 -1,1.7320508075688772" fill="none" stroke="rgb(0,0,0)" stroke-width="0.09999999999999998"/>
  </g>
<g id="t00007f">
    <use xlink:href="#t00008f" transform="matrix(0.5 0 0 0.5 1.5 0.8660254037844386)"/>
    <use xlink:href="#t00008f" transform="matrix(0.25 -0.4330127018922193 0.4330127018922193 0.25 0 1.7320508075688772)"/>
  </g>
<g id="t00009s">
    <use xlink:href="#t00010s" transform="matrix(0.5 0 0 0.5 1.5 0.8660254037844386)"/>
    <use xlink:href="#t00010s" transform="matrix(0.25 -0.4330127018922193 0.4330127018922193 0.25 0 1.7320508075688772)"/>
    <polygon points="0,0 3,0 3.5,0.8660254037844386 3,1.7320508075688772 -1,1.7320508075688772" fill="none" stroke="rgb(0,0,0)" stroke-width="0.1"/>
  </g>
<g id="t00009f">
    <use xlink:href="#t00010f" transform="matrix(0.5 0 0 0.5 1.5 0.8660254037844386)"/>
    <use xlink:href="#t00010f" transform="matrix(0.25 -0.4330127018922193 0.4330127018922193 0.25 0 1.7320508075688772)"/>
  </g>
<g id="t00001s">
    <use xlink:href="#t00002s" transform="matrix(1 0 0 1 -4.499999999999998 -2.5980762113533156)"/>
    <use xlink:href="#t00002s" transform="matrix(1 2.7755575615628914e-16 -2.7755575615628914e-16 1 1.7763568394002505e-15 -3.4641016151377553)"/>
    <use xlink:href="#t00002s" transform="matrix(-0.49999999999999994 -0.8660254037844388 0.8660254037844388 -0.49999999999999994 -3.552713678800501e-15 5.196152422706632)"/>
    <use xlink:href="#t00005s" transform="matrix(-0.9999999999999993 0 0 -0.9999999999999993 1.5000000000000009 0.866025403784437)"/>
    <use xlink:href="#t00007s" transform="matrix(-0.5 -0.8660254037844388 0.8660254037844388 -0.5 -2.0000000000000036 5.196152422706632)"/>
    <use xlink:href="#t00009s" transform="matrix(-0.5 -0.8660254037844386 0.8660254037844386 -0.5 -4.999999999999998 1.7320508075688772)"/>
    <use xlink:href="#t00007s" transform="matrix(1 0 0 1 -3.4999999999999982 -4.330127018922193)"/>
    <use xlink:href="#t00009s" transform="matrix(1 2.9605947323337506e-16 -2.9605947323337506e-16 1 1.0000000000000018 -5.196152422706632)"/>
    <use xlink:href="#t00007s" transform="matrix(0.5000000000000004 -0.8660254037844384 0.8660254037844384 0.5000000000000004 2.5 0.8660254037844379)"/>
    <use xlink:href="#t00009s" transform="matrix(-0.5000000000000001 0.8660254037844387 -0.8660254037844387 -0.5000000000000001 3.9999999999999964 3.464101615137754)"/>
    <polygon points="-5.280821917808215,-3.3336046364853096 4.500000000000002,-4.330127018922193 5.527397260273977,-2.906523615440919 1.4999999999999964,6.0621778264910695 -0.2465753424657624,6.240128251926228 -5.999999999999998,-1.7320508075688772" fill="none" stroke="rgb(0,0,0)" stroke-width="0.2"/>
  </g>
<g id="t00001f">
    <use xlink:href="#t00002f" transform="matrix(1 0 0 1 -4.499999999999998 -2.5980762113533156)"/>
    <use xlink:href="#t00002f" transform="matrix(1 2.7755575615628914e-16 -2.7755575615628914e-16 1 1.7763568394002505e-15 -3.4641016151377553)"/>
    <use xlink:href="#t00002f" transform="matrix(-0.49999999999999994 -0.8660254037844388 0.8660254037844388 -0.49999999999999994 -3.552713678800501e-15 5.196152422706632)"/>
    <use xlink:href="#t00005f" transform="matrix(-0.9999999999999993 0 0 -0.9999999999999993 1.5000000000000009 0.866025403784437)"/>
    <use xlink:href="#t00007f" transform="matrix(-0.5 -0.8660254037844388 0.8660254037844388 -0.5 -2.0000000000000036 5.196152422706632)"/>
    <use xlink:href="#t00009f" transform="matrix(-0.5 -0.8660254037844386 0.8660254037844386 -0.5 -4.999999999999998 1.7320508075688772)"/>
    <use xlink:href="#t00007f" transform="matrix(1 0 0 1 -3.4999999999999982 -4.330127018922193)"/>
    <use xlink:href="#t00009f" transform="matrix(1 2.9605947323337506e-16 -2.9605947323337506e-16 1 1.0000000000000018 -5.196152422706632)"/>
    <use xlink:href="#t00007f" transform="matrix(0.5000000000000004 -0.8660254037844384 0.8660254037844384 0.5000000000000004 2.5 0.8660254037844379)"/>
    <use xlink:href="#t00009f" transform="matrix(-0.5000000000000001 0.8660254037844387 -0.8660254037844387 -0.5000000000000001 3.9999999999999964 3.464101615137754)"/>
  </g>
<g id="t00011s">
    <use xlink:href="#t00002s" transform="matrix(0.5000000000000007 -0.8660254037844384 0.8660254037844384 0.5000000000000007 -2.500000000000001 0.866025403784441)"/>
    <polygon points="4.253424657534238,1.9100012330040377 -3.7808219178082174,2.728573190005757 -0.47260273972602285,-4.638574423009794" fill="none" stroke="rgb(0,0,0)" stroke-width="0.2"/>
  </g>
<g id="t00011f">
    <use xlink:href="#t00002f" transform="matrix(0.5000000000000007 -0.8660254037844384 0.8660254037844384 0.5000000000000007 -2.500000000000001 0.866025403784441)"/>
  </g>
<g id="t00012s">
    <use xlink:href="#t00009s" transform="matrix(0.5 -0.8660254037844387 0.8660254037844387 0.5 -6 0)"/>
    <use xlink:href="#t00002s" transform="matrix(0.5000000000000001 0.8660254037844387 -0.8660254037844387 0.5000000000000001 -2 -1.7320508075688776)"/>
    <use xlink:href="#t00007s" transform="matrix(0.5 0.8660254037844387 -0.8660254037844387 0.5 0 -1.7320508075688776)"/>
    <use xlink:href="#t00002s" transform="matrix(-0.5 0.8660254037844388 -0.8660254037844388 -0.5 5 -1.7320508075688776)"/>
    <use xlink:href="#t00009s" transform="matrix(-0.5 0.8660254037844388 -0.8660254037844388 -0.5 6 0)"/>
    <polygon points="-3.5,-2.598076211353317 6.2808219178082165,-3.5945985937902005 3.5,2.5980762113533165 -6.2808219178082165,3.5945985937901996" fill="none" stroke="rgb(0,0,0)" stroke-width="0.19999999999999982"/>
  </g>
<g id="t00012f">
    <use xlink:href="#t00009f" transform="matrix(0.5 -0.8660254037844387 0.8660254037844387 0.5 -6 0)"/>
    <use xlink:href="#t00002f" transform="matrix(0.5000000000000001 0.8660254037844387 -0.8660254037844387 0.5000000000000001 -2 -1.7320508075688776)"/>
    <use xlink:href="#t00007f" transform="matrix(0.5 0.8660254037844387 -0.8660254037844387 0.5 0 -1.7320508075688776)"/>
    <use xlink:href="#t00002f" transform="matrix(-0.5 0.8660254037844388 -0.8660254037844388 -0.5 5 -1.7320508075688776)"/>
    <use xlink:href="#t00009f" transform="matrix(-0.5 0.8660254037844388 -0.8660254037844388 -0.5 6 0)"/>
  </g>
<g id="t00013s">
    <use xlink:href="#t00009s" transform="matrix(0.5 -0.8660254037844386 0.8660254037844386 0.5 -6.943835616438356 -0.026099395730489583)"/>
    <use xlink:href="#t00002s" transform="matrix(0.49999999999999994 0.8660254037844388 -0.8660254037844388 0.49999999999999994 -2.9438356164383563 -1.7581502032993672)"/>
    <use xlink:href="#t00007s" transform="matrix(0.5 0.8660254037844388 -0.8660254037844388 0.5 -0.9438356164383563 -1.7581502032993672)"/>
    <use xlink:href="#t00002s" transform="matrix(-0.5000000000000002 0.8660254037844388 -0.8660254037844388 -0.5000000000000002 4.056164383561644 -1.7581502032993672)"/>
    <use xlink:href="#t00009s" transform="matrix(1 0 0 1 0.5561643835616437 -4.356226414652683)"/>
    <use xlink:href="#t00009s" transform="matrix(-0.5 0.8660254037844388 -0.8660254037844388 -0.5 5.056164383561644 -0.026099395730489583)"/>
    <polygon points="-4.443835616438356,-2.6241756070838047 4.056164383561644,-3.490201010868244 5.056164383561644,-0.026099395730489583 2.5561643835616437,2.5719768156228273 -7.224657534246573,3.5684991980597105" fill="none" stroke="rgb(0,0,0)" stroke-width="0.20000000000000007"/>
  </g>
<g id="t00013f">
    <use xlink:href="#t00009f" transform="matrix(0.5 -0.8660254037844386 0.8660254037844386 0.5 -6.943835616438356 -0.026099395730489583)"/>
    <use xlink:href="#t00002f" transform="matrix(0.49999999999999994 0.8660254037844388 -0.8660254037844388 0.49999999999999994 -2.9438356164383563 -1.7581502032993672)"/>
    <use xlink:href="#t00007f" transform="matrix(0.5 0.8660254037844388 -0.8660254037844388 0.5 -0.9438356164383563 -1.7581502032993672)"/>
    <use xlink:href="#t00002f" transform="matrix(-0.5000000000000002 0.8660254037844388 -0.8660254037844388 -0.5000000000000002 4.056164383561644 -1.7581502032993672)"/>
    <use xlink:href="#t00009f" transform="matrix(1 0 0 1 0.5561643835616437 -4.356226414652683)"/>
    <use xlink:href="#t00009f" transform="matrix(-0.5 0.8660254037844388 -0.8660254037844388 -0.5 5.056164383561644 -0.026099395730489583)"/>
  </g>
<g id="t00000s">
    <use xlink:href="#t00001s" transform="matrix(1 0 0 1 -5.999999999999997 -1.7320508075688739)"/>
    <use xlink:href="#t00001s" transform="matrix(0.9999999999999999 -4.3021142204224816e-16 4.3021142204224816e-16 0.9999999999999999 4.500000000000003 -4.330127018922191)"/>
    <use xlink:href="#t00001s" transform="matrix(-0.5000000000000002 -0.8660254037844397 0.8660254037844397 -0.5000000000000002 1.4999999999999956 6.0621778264910615)"/>
    <use xlink:href="#t00011s" transform="matrix(1 -5.551115123125783e-16 5.551115123125783e-16 1 4.440892098500626e-15 -2.220446049250313e-16)"/>
    <use xlink:href="#t00012s" transform="matrix(-0.5000000000000001 -0.8660254037844397 0.8660254037844397 -0.5000000000000001 -5.000000000000012 8.660254037844377)"/>
    <use xlink:href="#t00013s" transform="matrix(-0.4999999999999995 -0.8660254037844384 0.8660254037844384 -0.4999999999999995 -12.94931506849315 0.035590085087034096)"/>
    <use xlink:href="#t00012s" transform="matrix(1 -1.3877787807814457e-17 1.3877787807814457e-17 1 -4.9999999999999964 -8.660254037844382)"/>
    <use xlink:href="#t00013s" transform="matrix(1 -4.163336342344337e-16 4.163336342344337e-16 1 6.443835616438359 -11.232230853467211)"/>
    <use xlink:href="#t00012s" transform="matrix(0.5000000000000002 -0.8660254037844384 0.8660254037844384 0.5000000000000002 10 1.7763568394002505e-15)"/>
    <use xlink:href="#t00013s" transform="matrix(-0.5000000000000007 0.8660254037844386 -0.8660254037844386 -0.5000000000000007 6.505479452054794 11.19664076838018)"/>
    <polygon points="-13.763157894736839,-8.341192046976438 11.500000000000004,-11.258330249197703 14.105263157894747,-7.748648349650241 3.9999999999999956,15.588457268119894 -0.34210526315790357,16.089840396626677 -15.499999999999993,-4.33012701892219" fill="none" stroke="rgb(0,0,0)" stroke-width="0.4"/>
  </g>
<g id="t00000f">
    <use xlink:href="#t00001f" transform="matrix(1 0 0 1 -5.999999999999997 -1.7320508075688739)"/>
    <use xlink:href="#t00001f" transform="matrix(0.9999999999999999 -4.3021142204224816e-16 4.3021142204224816e-16 0.9999999999999999 4.500000000000003 -4.330127018922191)"/>
    <use xlink:href="#t00001f" transform="matrix(-0.5000000000000002 -0.8660254037844397 0.8660254037844397 -0.5000000000000002 1.4999999999999956 6.0621778264910615)"/>
    <use xlink:href="#t00011f" transform="matrix(1 -5.551115123125783e-16 5.551115123125783e-16 1 4.440892098500626e-15 -2.220446049250313e-16)"/>
    <use xlink:href="#t00012f" transform="matrix(-0.5000000000000001 -0.8660254037844397 0.8660254037844397 -0.5000000000000001 -5.000000000000012 8.660254037844377)"/>
    <use xlink:href="#t00013f" transform="matrix(-0.4999999999999995 -0.8660254037844384 0.8660254037844384 -0.4999999999999995 -12.94931506849315 0.035590085087034096)"/>
    <use xlink:href="#t00012f" transform="matrix(1 -1.3877787807814457e-17 1.3877787807814457e-17 1 -4.9999999999999964 -8.660254037844382)"/>
    <use xlink:href="#t00013f" transform="matrix(1 -4.163336342344337e-16 4.163336342344337e-16 1 6.443835616438359 -11.232230853467211)"/>
    <use xlink:href="#t00012f" transform="matrix(0.5000000000000002 -0.8660254037844384 0.8660254037844384 0.5000000000000002 10 1.7763568394002505e-15)"/>
    <use xlink:href="#t00013f" transform="matrix(-0.5000000000000007 0.8660254037844386 -0.8660254037844386 -0.5000000000000007 6.505479452054794 11.19664076838018)"/>
  </g>
<g id="t00014s">
    <use xlink:href="#t00001s" transform="matrix(0.5000000000000003 -0.8660254037844384 0.8660254037844384 0.5000000000000003 0 1.3322676295501878e-14)"/>
    <polygon points="11.157894736842092,4.831510147428979 -9.763157894736842,7.247265221143447 -1.394736842105253,-12.078775368572426" fill="none" stroke="rgb(0,0,0)" stroke-width="0.4"/>
  </g>
<g id="t00014f">
    <use xlink:href="#t00001f" transform="matrix(0.5000000000000003 -0.8660254037844384 0.8660254037844384 0.5000000000000003 0 1.3322676295501878e-14)"/>
  </g>
<g id="t00015s">
    <use xlink:href="#t00013s" transform="matrix(0.49999999999999967 -0.8660254037844385 0.8660254037844385 0.49999999999999967 -11.505479452054795 -2.536386730535792)"/>
    <use xlink:href="#t00001s" transform="matrix(0.5000000000000002 0.8660254037844383 -0.8660254037844383 0.5000000000000002 -6.499999999999999 2.598076211353316)"/>
    <use xlink:href="#t00012s" transform="matrix(0.5000000000000002 0.8660254037844384 -0.8660254037844384 0.5000000000000002 -1.7763568394002505e-15 0)"/>
    <use xlink:href="#t00001s" transform="matrix(-0.49999999999999917 0.866025403784439 -0.866025403784439 -0.49999999999999917 6.499999999999995 -2.5980762113533196)"/>
    <use xlink:href="#t00013s" transform="matrix(-0.4999999999999989 0.8660254037844388 -0.8660254037844388 -0.4999999999999989 11.505479452054793 2.536386730535787)"/>
    <polygon points="-9.000000000000002,-6.928203230275503 16.263157894736842,-9.84534143249677 9,6.928203230275503 -16.263157894736842,9.845341432496769" fill="none" stroke="rgb(0,0,0)" stroke-width="0.4"/>
  </g>
<g id="t00015f">
    <use xlink:href="#t00013f" transform="matrix(0.49999999999999967 -0.8660254037844385 0.8660254037844385 0.49999999999999967 -11.505479452054795 -2.536386730535792)"/>
    <use xlink:href="#t00001f" transform="matrix(0.5000000000000002 0.8660254037844383 -0.8660254037844383 0.5000000000000002 -6.499999999999999 2.598076211353316)"/>
    <use xlink:href="#t00012f" transform="matrix(0.5000000000000002 0.8660254037844384 -0.8660254037844384 0.5000000000000002 -1.7763568394002505e-15 0)"/>
    <use xlink:href="#t00001f" transform="matrix(-0.49999999999999917 0.866025403784439 -0.866025403784439 -0.49999999999999917 6.499999999999995 -2.5980762113533196)"/>
    <use xlink:href="#t00013f" transform="matrix(-0.4999999999999989 0.8660254037844388 -0.8660254037844388 -0.4999999999999989 11.505479452054793 2.536386730535787)"/>
  </g>
<g id="t00016s">
    <use xlink:href="#t00013s" transform="matrix(0.5 -0.8660254037844392 0.8660254037844392 0.5 -14.15284787310744 -2.60019912870937)"/>
    <use xlink:href="#t00001s" transform="matrix(0.500000000000001 0.866025403784439 -0.866025403784439 0.500000000000001 -9.14736842105264 2.5342638131797415)"/>
    <use xlink:href="#t00012s" transform="matrix(0.5000000000000009 0.8660254037844389 -0.8660254037844389 0.5000000000000009 -2.647368421052633 -0.06381239817358164)"/>
    <use xlink:href="#t00001s" transform="matrix(-0.4999999999999991 0.8660254037844392 -0.8660254037844392 -0.4999999999999991 3.852631578947367 -2.661888609526901)"/>
    <use xlink:href="#t00013s" transform="matrix(0.9999999999999996 -7.355227538141662e-16 7.355227538141662e-16 0.9999999999999996 5.796467195385716 -9.563992444071925)"/>
    <use xlink:href="#t00013s" transform="matrix(-0.49999999999999895 0.8660254037844393 -0.8660254037844393 -0.49999999999999895 8.858111031002167 2.4725743323622034)"/>
    <polygon points="-11.647368421052647,-6.992015628449085 10.85263157894736,-9.590091839802415 13.352631578947367,-0.06381239817359585 6.352631578947381,6.864390832101922 -18.91052631578946,9.781529034323187" fill="none" stroke="rgb(0,0,0)" stroke-width="0.4"/>
  </g>
<g id="t00016f">
    <use xlink:href="#t00013f" transform="matrix(0.5 -0.8660254037844392 0.8660254037844392 0.5 -14.15284787310744 -2.60019912870937)"/>
    <use xlink:href="#t00001f" transform="matrix(0.500000000000001 0.866025403784439 -0.866025403784439 0.500000000000001 -9.14736842105264 2.5342638131797415)"/>
    <use xlink:href="#t00012f" transform="matrix(0.5000000000000009 0.8660254037844389 -0.8660254037844389 0.5000000000000009 -2.647368421052633 -0.06381239817358164)"/>
    <use xlink:href="#t00001f" transform="matrix(-0.4999999999999991 0.8660254037844392 -0.8660254037844392 -0.4999999999999991 3.852631578947367 -2.661888609526901)"/>
    <use xlink:href="#t00013f" transform="matrix(0.9999999999999996 -7.355227538141662e-16 7.355227538141662e-16 0.9999999999999996 5.796467195385716 -9.563992444071925)"/>
    <use xlink:href="#t00013f" transform="matrix(-0.49999999999999895 0.8660254037844393 -0.8660254037844393 -0.49999999999999895 8.858111031002167 2.4725743323622034)"/>
  </g></defs>
<use xlink:href="#t00000f" transform="matrix(20 0 0 -20 640 324.5)"/>
</svg>
