<?xml version="1.0" encoding="UTF-8" standalone="no"?>
<!-- Created with Inkscape (http://www.inkscape.org/) -->

<svg
   width="297mm"
   height="210mm"
   viewBox="0 0 297 210"
   version="1.1"
   id="svg5"
   inkscape:version="1.2.2 (b0a8486, 2022-12-01)"
   sodipodi:docname="yy.svg"
   xmlns:inkscape="http://www.inkscape.org/namespaces/inkscape"
   xmlns:sodipodi="http://sodipodi.sourceforge.net/DTD/sodipodi-0.dtd"
   xmlns="http://www.w3.org/2000/svg"
   xmlns:svg="http://www.w3.org/2000/svg">
  <sodipodi:namedview
     id="namedview7"
     pagecolor="#ffffff"
     bordercolor="#666666"
     borderopacity="1.0"
     inkscape:showpageshadow="2"
     inkscape:pageopacity="0.0"
     inkscape:pagecheckerboard="0"
     inkscape:deskcolor="#d1d1d1"
     inkscape:document-units="mm"
     showgrid="false"
     inkscape:zoom="24.402244"
     inkscape:cx="11.269456"
     inkscape:cy="-0.36881854"
     inkscape:window-width="1280"
     inkscape:window-height="683"
     inkscape:window-x="0"
     inkscape:window-y="0"
     inkscape:window-maximized="1"
     inkscape:current-layer="layer1" />
  <defs
     id="defs2" />
  <g
     inkscape:label="Layer 1"
     inkscape:groupmode="layer"
     id="layer1">
    <g
       id="t00003f">
      <polygon
         points="0,0 -1.5,-0.8660254037844386 -1,-1.7320508075688772 1,-1.7320508075688772 1.5,-0.8660254037844386 3,-1.7320508075688772 4.5,-0.8660254037844386 4,0 3,0 3,1.7320508075688772 1.5,2.598076211353316 1,1.7320508075688772 0,1.7320508075688772"
         stroke="rgb(0,0,0)"
         stroke-width="0.09999999999999998"
         fill="rgb(148 205 235)"
         id="polygon3941"
         style="fill:#ffff00;stroke:none" />
    </g>
    <g
       id="g5517"
       transform="matrix(17.47922,0,0,17.47922,126.49065,83.005126)"
       style="fill:none">
      <polygon
         points="1,-1.7320508 1.5,-0.8660254 3,-1.7320508 4.5,-0.8660254 4,0 3,0 3,1.7320508 1.5,2.5980762 1,1.7320508 0,1.7320508 0,0 -1.5,-0.8660254 -1,-1.7320508 "
         stroke="#000000"
         stroke-width="0.1"
         fill="rgb(148 205 235)"
         id="polygon5515"
         style="fill:none" />
    </g>
    <path
       style="fill:#ff0000;stroke:none;stroke-width:0.264583px;stroke-linecap:butt;stroke-linejoin:miter;stroke-opacity:1"
       d="m 116.00347,60.346838 c -3.49877,5.093404 0.2115,9.519539 2.39302,12.099267 2.8491,3.369171 12.01298,3.526105 12.01298,3.526105 l 1.82762,1.911619 0.29884,26.494801 c 0,0 1.64714,2.84194 3.03062,2.8358 1.12183,-0.005 2.43698,-2.3212 2.43698,-2.3212 l 0.18034,-18.629 c 0,0 3.00936,7.148335 5.64654,9.871393 1.81589,1.875029 6.66915,4.103817 6.66915,4.103817 l 2.95558,24.09695 c 0,0 12.59421,-5.00692 11.75352,-7.50571 -1.51213,-4.49455 -7.22574,-1.30917 -7.22574,-1.30917 l 1.32184,-27.960436 11.43603,-9.479245 19.76983,-1.996505 4.6695,2.08505 c 0,0 6.17198,-7.954031 3.55291,-10.608947 -1.63341,-1.655767 -6.64589,2.125666 -6.64589,2.125666 0,0 -12.84026,-1.022577 -23.05517,0.45212 -4.00319,-0.832706 -20.73103,12.624992 -17.06853,10.183325 0,0 -4.57112,-3.894061 -6.73703,-5.778609 -2.16591,-1.884547 -7.57722,-4.206953 -7.57722,-4.206953 0,0 -1.20134,-6.968119 -4.25727,-10.712748 -6.41246,-5.416821 -13.88968,-4.370794 -17.38845,0.72261 z"
       id="path8666"
       sodipodi:nodetypes="zscccsccsccscccccsccczccz" />
    <path
       style="fill:#ff0000;stroke:none;stroke-width:0.264583px;stroke-linecap:butt;stroke-linejoin:miter;stroke-opacity:1"
       d="m 116.00347,60.346838 c -3.49877,5.093404 0.2115,9.519539 2.39302,12.099267 2.8491,3.369171 12.01298,3.526105 12.01298,3.526105 l 1.82762,1.911619 0.29884,26.494801 c 0,0 1.64714,2.84194 3.03062,2.8358 1.12183,-0.005 2.43698,-2.3212 2.43698,-2.3212 l 0.18034,-18.629 c 0,0 3.00936,7.148335 5.64654,9.871393 1.81589,1.875029 6.66915,4.103817 6.66915,4.103817 l 2.95558,24.09695 c 0,0 12.59421,-5.00692 11.75352,-7.50571 -1.51213,-4.49455 -7.22574,-1.30917 -7.22574,-1.30917 l 1.32184,-27.960436 11.43603,-9.479245 19.76983,-1.996505 4.6695,2.08505 c 0,0 6.17198,-7.954031 3.55291,-10.608947 -1.63341,-1.655767 -6.64589,2.125666 -6.64589,2.125666 0,0 -12.84026,-1.022577 -23.05517,0.45212 -4.00319,-0.832706 -20.73103,12.624992 -17.06853,10.183325 0,0 -4.57112,-3.894061 -6.73703,-5.778609 -2.16591,-1.884547 -7.57722,-4.206953 -7.57722,-4.206953 0,0 -1.20134,-6.968119 -4.25727,-10.712748 -6.41246,-5.416821 -13.88968,-4.370794 -17.38845,0.72261 z"
       id="path4145"
       sodipodi:nodetypes="zscccsccsccscccccsccczccz" />
    <path
       style="fill:#ff0000;stroke:none;stroke-width:0.264583px;stroke-linecap:butt;stroke-linejoin:miter;stroke-opacity:1"
       d="m 116.00347,60.346838 c -3.49877,5.093404 0.2115,9.519539 2.39302,12.099267 2.8491,3.369171 12.01298,3.526105 12.01298,3.526105 l 1.82762,1.911619 0.29884,26.494801 c 0,0 1.64714,2.84194 3.03062,2.8358 1.12183,-0.005 2.43698,-2.3212 2.43698,-2.3212 l 0.18034,-18.629 c 0,0 3.00936,7.148335 5.64654,9.871393 1.81589,1.875029 6.66915,4.103817 6.66915,4.103817 l 2.95558,24.09695 c 0,0 12.59421,-5.00692 11.75352,-7.50571 -1.51213,-4.49455 -7.22574,-1.30917 -7.22574,-1.30917 l 1.32184,-27.960436 11.43603,-9.479245 19.76983,-1.996505 4.6695,2.08505 c 0,0 6.17198,-7.954031 3.55291,-10.608947 -1.63341,-1.655767 -6.64589,2.125666 -6.64589,2.125666 0,0 -12.84026,-1.022577 -23.05517,0.45212 -4.00319,-0.832706 -20.73103,12.624992 -17.06853,10.183325 0,0 -4.57112,-3.894061 -6.73703,-5.778609 -2.16591,-1.884547 -7.57722,-4.206953 -7.57722,-4.206953 0,0 -1.20134,-6.968119 -4.25727,-10.712748 -6.41246,-5.416821 -13.88968,-4.370794 -17.38845,0.72261 z"
       id="path4147"
       sodipodi:nodetypes="zscccsccsccscccccsccczccz" />
    <path
       style="fill:#ff0000;stroke:none;stroke-width:0.264583px;stroke-linecap:butt;stroke-linejoin:miter;stroke-opacity:1"
       d="m 116.00347,60.346838 c -3.49877,5.093404 0.2115,9.519539 2.39302,12.099267 2.8491,3.369171 12.01298,3.526105 12.01298,3.526105 l 1.82762,1.911619 0.29884,26.494801 c 0,0 1.64714,2.84194 3.03062,2.8358 1.12183,-0.005 2.43698,-2.3212 2.43698,-2.3212 l 0.18034,-18.629 c 0,0 3.00936,7.148335 5.64654,9.871393 1.81589,1.875029 6.66915,4.103817 6.66915,4.103817 l 2.95558,24.09695 c 0,0 12.59421,-5.00692 11.75352,-7.50571 -1.51213,-4.49455 -7.22574,-1.30917 -7.22574,-1.30917 l 1.32184,-27.960436 11.43603,-9.479245 19.76983,-1.996505 4.6695,2.08505 c 0,0 6.17198,-7.954031 3.55291,-10.608947 -1.63341,-1.655767 -6.64589,2.125666 -6.64589,2.125666 0,0 -12.84026,-1.022577 -23.05517,0.45212 -4.00319,-0.832706 -20.73103,12.624992 -17.06853,10.183325 0,0 -4.57112,-3.894061 -6.73703,-5.778609 -2.16591,-1.884547 -7.57722,-4.206953 -7.57722,-4.206953 0,0 -1.20134,-6.968119 -4.25727,-10.712748 -6.41246,-5.416821 -13.88968,-4.370794 -17.38845,0.72261 z"
       id="path4149"
       sodipodi:nodetypes="zscccsccsccscccccsccczccz" />
    <path
       style="fill:#ff0000;stroke:#000000;stroke-width:0.116;stroke-linecap:butt;stroke-linejoin:miter;stroke-opacity:1;stroke-dasharray:none"
       d="m -0.76557835,-1.364683 c -0.206257,0.300263 0.01247,0.56118999 0.141072,0.71326799 0.167958,0.198617 0.708181,0.207869 0.708181,0.207869 l 0.107741,0.112692 0.01762,1.56190401 c 0,0 0.0971,0.167536 0.178659,0.167174 0.06613,-2.97e-4 0.143664,-0.136838 0.143664,-0.136838 l 0.01063,-1.09820401 c 0,0 0.177406,0.421404 0.332871,0.581932 0.10705,0.110535 0.39315595,0.241925 0.39315595,0.241925 L 1.4422506,2.407587 c 0,0 0.742446,-0.295165 0.692886,-0.442472 -0.08914,-0.26496 -0.425967,-0.07718 -0.425967,-0.07718 l 0.07792,-1.64830501 0.674169,-0.558814 1.165458,-0.117697 0.275274,0.122916 c 0,0 0.363846,-0.4689 0.209448,-0.625411 -0.09629,-0.09761 -0.391784,0.125311 -0.391784,0.125311 0,0 -0.75695,-0.06028 -1.359133,0.02665 -0.235993,-0.04909 -1.222122,0.74426 -1.006213,0.60032 0,0 -0.269473,-0.22956 -0.39715595,-0.340656 -0.127684,-0.111097 -0.446688,-0.248006 -0.446688,-0.248006 0,0 -0.07082,-0.41077999 -0.250971,-0.63153099 -0.378023,-0.319328 -0.818816,-0.257664 -1.025073,0.0426 z"
       id="path4183"
       sodipodi:nodetypes="zscccsccsccscccccsccczccz" />
  </g>
</svg>
