<svg viewBox="0 0 1280 649" 
xmlns="http://www.w3.org/2000/svg"
xmlns:xlink="http://www.w3.org/1999/xlink">
<defs> 
<g id="t00003f"><polygon
         points="0,0 -1.5,-0.8660254037844386 -1,-1.7320508075688772 1,-1.7320508075688772 1.5,-0.8660254037844386 3,-1.7320508075688772 4.5,-0.8660254037844386 4,0 3,0 3,1.7320508075688772 1.5,2.598076211353316 1,1.7320508075688772 0,1.7320508075688772"
         stroke="rgb( 0 0 0)"
         stroke-width="0.09999999999999998"
         fill="rgb(0, 0, 150)"
         id="polygon3941"
         style="stroke:none" 
          />
          
    <path
       d="m 1.2322623,2.1417114 c 0.026591,0.056528 0.3080055,0.030443 0.3991173,-0.0027 C 1.8670584,2.0533121 2.1033287,1.8499084 2.2624245,1.6589848 2.5115933,1.3599822 2.613021,0.92997486 2.613021,0.54791123 c 0,-0.0947332 -0.044871,-0.55211016 -0.010792,-0.62026727 0.033675,-0.06736359 0.3054806,-0.09539688 0.3775477,-0.11325855 0.522067,-0.12944658 0.5284312,-0.18720122 0.522067,-0.566336 C 3.5003894,-0.8385032 3.4609019,-1.0528865 3.4004781,-1.1133103 3.2569066,-1.2568817 3.1676272,-0.74685756 2.8772957,-0.84363951 2.5575604,-0.95021797 1.8680683,-1.0476492 1.4749674,-0.88584094 1.4060168,-0.85746138 1.2666294,-1.0411999 0.87071503,-1.1310709 c -0.25648371,-0.058216 -0.6351568,-0.1576242 -0.92752255,-0.13327 -0.23234593,0.019362 -0.61805981,0.32658859 -0.65802492,0.566336 -0.0571342,0.34284877 0.53041068,-0.006117 0.58865587,0.022998 0.1816465,0.0908232 -0.12620032,0.30507668 -0.0600775,0.34915373 0.19857036,0.13238986 0.46075307,-0.16211121 0.62791403,-0.0506706 0.109767,0.073178 0.0400084,0.28777769 0.0418552,0.28799411 0.1172262,0.01301391 0.50770126,-0.07589044 0.51681964,-0.04854968 0.050757,0.15230028 -0.64235627,0.28349263 -0.77128345,0.36137411 -0.52120572,0.31484432 0.16596344,0.2397907 0.0788481,0.50113659 -0.0333427,0.10002822 -0.36443281,0.23006634 -0.28059263,0.39773224 0.06517055,0.1303556 0.39843923,-0.07905 0.49299929,-0.07905 0.002092,0 0.0366179,-0.00227 0.0377577,0 0.0890053,0.178025 -0.27972703,0.2498035 -0.31283892,0.4153053 -0.027687,0.1384928 0.18600371,0.1560659 0.28585879,0.1132729 0.21556636,-0.092381 0.63882152,-0.78983763 0.84140282,-0.99241893 0.00918,-0.009176 0.050339,-0.0395611 0.059327,-0.0485497 C 1.4455923,0.51795903 1.6999551,0.29519318 1.7230685,0.36451895 1.7629471,0.48416903 1.4289714,0.7091712 1.3886745,0.83007649 1.3466895,0.95600268 1.5881394,0.88247841 1.5342947,0.99018224 1.456947,1.144892 1.1895414,1.146782 1.1102749,1.3449772 c -0.081791,0.204457 0.3929278,-0.00961 0.4509854,-0.00961 0.00512,0 0.032362,0.061102 0.032362,0.070119 0,0.2152634 -0.5349699,0.3673328 -0.3613597,0.7362238 z"
       opacity="1"
       fill="#f2edf3"
       id="path62507"
       style="stroke-width:0.0144278" /><path
       stroke="#645956"
       stroke-opacity="0.186695"
       stroke-width="0.0288557"
       d="m 2.4026631,-0.08852965 c 0.1798574,0 0.3986123,-0.05924071 0.5771136,-0.09170335 0.1260272,-0.0229114 0.3281468,-0.0452601 0.4207014,-0.14022418 0.282057,-0.28940804 0.028481,-0.69752832 -0.075515,-0.80364512 -0.047121,-0.048088 -0.1382765,0.16338087 -0.1564123,0.18877386 -0.06204,0.08687 -0.2149748,0.0931317 -0.3128244,0.0809113 -0.4300506,-0.0537581 -0.6443329,-0.19018776 -1.1164695,-0.0485497 -0.033256,0.00997 -0.3505821,0.11281128 -0.3505821,0.14562019"
       fill="none"
       opacity="1"
       stroke-linejoin="round"
       id="path62510" /><path
       stroke="#645956"
       stroke-opacity="0.186695"
       stroke-width="0.0288557"
       d="m 2.5644713,0.04629851 c 0.050194,0 0.079858,0.54773852 0.04855,0.79826354 C 2.5461191,1.3797051 1.9076583,2.3429221 1.2646239,2.1821671 1.0135218,2.1193916 1.5640882,1.5514252 1.615206,1.4594189 1.619206,1.4522189 1.65331,1.3679749 1.636776,1.3569524 1.5022937,1.2672978 1.2354364,1.4949691 1.1351773,1.3946956 0.99075466,1.2502873 1.519535,1.0952169 1.5666563,1.0009743 1.621208,0.89185651 1.3038676,0.92837337 1.3832785,0.79601236 1.4514356,0.68240755 1.6205876,0.59014152 1.6205876,0.44543028"
       fill="none"
       opacity="1"
       stroke-linejoin="round"
       id="path62512" /><path
       stroke="#645956"
       stroke-opacity="0.186695"
       stroke-width="0.0288557"
       d="M 1.3940705,0.50475756 C 1.1696599,0.84137349 0.80304846,1.1258616 0.62278703,1.4863845 0.59658607,1.538772 0.28836413,1.6643375 0.25601691,1.5672958 0.17435534,1.3223111 0.56344532,1.2494072 0.56344532,1.0441135 c 0,-0.023431 -0.0466741,-0.0054 -0.0701049,-0.0054 -0.13321225,0 -0.40887056,0.1304998 -0.43688942,0.1024809 C -0.07807415,1.0066733 0.2945681,0.77204772 0.33153222,0.66116977 0.36209039,0.56948085 0.08682163,0.59471514 0.06724305,0.41846465 0.06454505,0.39425473 0.05604705,0.32593891 0.07263906,0.30519168 0.1854792,0.16414511 0.7352809,0.19807939 0.87628418,0.05709054"
       fill="none"
       opacity="1"
       stroke-linejoin="round"
       id="path62514" /><path
       stroke="#645956"
       stroke-opacity="0.186695"
       stroke-width="0.0288557"
       d="m 1.9657881,-0.81127787 c -0.3032588,0 -0.9123445,-0.28578663 -1.24053455,-0.37215173 -0.39949246,-0.1051356 -0.89024101,-0.1561092 -1.20276245,0.1564122 -0.0809979,0.0809835 -0.29906027,0.27023348 -0.22653152,0.41530542 0.0990616,0.19812309 0.55902109,-0.0828158 0.61487126,-0.0269656 0.061982,0.061982 -0.1237043,0.20008529 -0.0701193,0.28046278 0.09230932,0.13847841 0.58318772,-0.0802188 0.62026726,-0.0431537 0.0348865,0.0349009 0.048896,0.18231018 0.0323616,0.23192752 -3.0298e-4,9.0896e-4 -0.0409606,0.0461835 -0.021584,0.0539313 0.12444012,0.04977605 0.7251721,-0.10587149 0.5879056,0.12944658"
       fill="none"
       opacity="1"
       stroke-linejoin="round"
       id="path62517" /><path
       d="m 3.3471961,-0.60980751 c 0,0.0442935 -0.030558,0.0801899 -0.068244,0.0801899 -0.0377,0 -0.068244,-0.0358965 -0.068244,-0.0801899 0,-0.044279 0.030544,-0.0801899 0.068244,-0.0801899 0.037685,0 0.068244,0.0359109 0.068244,0.0801899 z"
       opacity="1"
       fill="#000000"
       id="path62520"
       style="stroke-width:0.0144278" /><path
       d="m 3.3779995,-1.1168307 c 0.1559952,0 0.3207309,0.12856652 0.482164,0.12856652"
       stroke="#2a2421"
       stroke-width="0.0288557"
       fill="none"
       opacity="1"
       stroke-linejoin="round"
       id="path62522" /><path
       d="m 3.2172734,-1.0896342 c -0.1150621,0 -0.556352,-0.1558062 -0.556352,-0.2917742"
       stroke="#2a2421"
       stroke-width="0.0288557"
       fill="none"
       opacity="1"
       stroke-linejoin="round"
       id="path62524" /><path
       d="m 3.6747138,-0.98578259 c 0.066261,0.11043069 0.1806957,0.41293921 0.2101776,0.41293921"
       stroke="#2a2421"
       stroke-width="0.0288557"
       fill="none"
       opacity="1"
       stroke-linejoin="round"
       id="path62526" /><path
       d="m 3.6747138,-1.0253437 c 0.043119,-0.015409 0.4456861,-0.089005 0.447553,-0.091487"
       stroke="#2a2421"
       stroke-width="0.0288557"
       fill="none"
       opacity="1"
       stroke-linejoin="round"
       id="path62528" /><path
       d="m 3.881182,-0.48135645 c -0.04177,-0.0363149 0.052018,0.0242388 0.03338,-0.0642905 -0.00635,-0.0301686 -0.057312,-0.0444955 -0.08407,-0.0321452 -0.095952,0.044279 0.1188551,0.15567639 0.05069,0.0964357 z"
       stroke="#2a2421"
       stroke-width="0.0288557"
       fill="#071d1f"
       opacity="1"
       stroke-linejoin="round"
       id="path62530" /><path
       d="m 4.0975404,-1.057489 c -0.028281,0.00492 0.1469533,-0.044712 0.096434,-0.074188 -0.014213,-0.00828 -0.1404276,-0.017357 -0.14836,0.00248 -0.014888,0.037209 0.07641,0.067436 0.051926,0.071706 z"
       stroke="#2a2421"
       stroke-width="0.0288557"
       fill="#072d2d"
       opacity="1"
       stroke-linejoin="round"
       id="path62532" /><path
       d="m 3.5275902,-1.100758 c 0.03034,0.00414 0.1232325,-0.098008 0.087779,-0.1050924 -0.057009,-0.011398 -0.1918499,0.090867 -0.087779,0.1050924 z"
       stroke="#2a2421"
       stroke-width="0.0288557"
       fill="#001e40"
       opacity="1"
       stroke-linejoin="round"
       id="path62534" /><path
       d="m 3.8082377,-0.94622145 c 0.00368,0.0484775 0.1307494,0.13615552 0.1087974,0.0395611 -0.010151,-0.0446686 -0.1144603,-0.11418185 -0.1087974,-0.0395611 z"
       stroke="#2a2421"
       stroke-width="0.0288557"
       fill="#212735"
       opacity="1"
       stroke-linejoin="round"
       id="path62536" />

    
</g>
<g id="t00004f"><polygon
         points="0,0 -1.5,-0.8660254037844386 -1,-1.7320508075688772 1,-1.7320508075688772 1.5,-0.8660254037844386 3,-1.7320508075688772 4.5,-0.8660254037844386 4,0 3,0 3,1.7320508075688772 1.5,2.598076211353316 1,1.7320508075688772 0,1.7320508075688772"
         stroke="rgb( 0 0 0)"
         stroke-width="0.09999999999999998"
         fill="rgb(21, 195, 255)"
         id="polygon3941"
         style="stroke:none" 
          />
          
    <path
       d="m 1.2322623,2.1417114 c 0.026591,0.056528 0.3080055,0.030443 0.3991173,-0.0027 C 1.8670584,2.0533121 2.1033287,1.8499084 2.2624245,1.6589848 2.5115933,1.3599822 2.613021,0.92997486 2.613021,0.54791123 c 0,-0.0947332 -0.044871,-0.55211016 -0.010792,-0.62026727 0.033675,-0.06736359 0.3054806,-0.09539688 0.3775477,-0.11325855 0.522067,-0.12944658 0.5284312,-0.18720122 0.522067,-0.566336 C 3.5003894,-0.8385032 3.4609019,-1.0528865 3.4004781,-1.1133103 3.2569066,-1.2568817 3.1676272,-0.74685756 2.8772957,-0.84363951 2.5575604,-0.95021797 1.8680683,-1.0476492 1.4749674,-0.88584094 1.4060168,-0.85746138 1.2666294,-1.0411999 0.87071503,-1.1310709 c -0.25648371,-0.058216 -0.6351568,-0.1576242 -0.92752255,-0.13327 -0.23234593,0.019362 -0.61805981,0.32658859 -0.65802492,0.566336 -0.0571342,0.34284877 0.53041068,-0.006117 0.58865587,0.022998 0.1816465,0.0908232 -0.12620032,0.30507668 -0.0600775,0.34915373 0.19857036,0.13238986 0.46075307,-0.16211121 0.62791403,-0.0506706 0.109767,0.073178 0.0400084,0.28777769 0.0418552,0.28799411 0.1172262,0.01301391 0.50770126,-0.07589044 0.51681964,-0.04854968 0.050757,0.15230028 -0.64235627,0.28349263 -0.77128345,0.36137411 -0.52120572,0.31484432 0.16596344,0.2397907 0.0788481,0.50113659 -0.0333427,0.10002822 -0.36443281,0.23006634 -0.28059263,0.39773224 0.06517055,0.1303556 0.39843923,-0.07905 0.49299929,-0.07905 0.002092,0 0.0366179,-0.00227 0.0377577,0 0.0890053,0.178025 -0.27972703,0.2498035 -0.31283892,0.4153053 -0.027687,0.1384928 0.18600371,0.1560659 0.28585879,0.1132729 0.21556636,-0.092381 0.63882152,-0.78983763 0.84140282,-0.99241893 0.00918,-0.009176 0.050339,-0.0395611 0.059327,-0.0485497 C 1.4455923,0.51795903 1.6999551,0.29519318 1.7230685,0.36451895 1.7629471,0.48416903 1.4289714,0.7091712 1.3886745,0.83007649 1.3466895,0.95600268 1.5881394,0.88247841 1.5342947,0.99018224 1.456947,1.144892 1.1895414,1.146782 1.1102749,1.3449772 c -0.081791,0.204457 0.3929278,-0.00961 0.4509854,-0.00961 0.00512,0 0.032362,0.061102 0.032362,0.070119 0,0.2152634 -0.5349699,0.3673328 -0.3613597,0.7362238 z"
       opacity="1"
       fill="#f2edf3"
       id="path62507"
       style="stroke-width:0.0144278" /><path
       stroke="#645956"
       stroke-opacity="0.186695"
       stroke-width="0.0288557"
       d="m 2.4026631,-0.08852965 c 0.1798574,0 0.3986123,-0.05924071 0.5771136,-0.09170335 0.1260272,-0.0229114 0.3281468,-0.0452601 0.4207014,-0.14022418 0.282057,-0.28940804 0.028481,-0.69752832 -0.075515,-0.80364512 -0.047121,-0.048088 -0.1382765,0.16338087 -0.1564123,0.18877386 -0.06204,0.08687 -0.2149748,0.0931317 -0.3128244,0.0809113 -0.4300506,-0.0537581 -0.6443329,-0.19018776 -1.1164695,-0.0485497 -0.033256,0.00997 -0.3505821,0.11281128 -0.3505821,0.14562019"
       fill="none"
       opacity="1"
       stroke-linejoin="round"
       id="path62510" /><path
       stroke="#645956"
       stroke-opacity="0.186695"
       stroke-width="0.0288557"
       d="m 2.5644713,0.04629851 c 0.050194,0 0.079858,0.54773852 0.04855,0.79826354 C 2.5461191,1.3797051 1.9076583,2.3429221 1.2646239,2.1821671 1.0135218,2.1193916 1.5640882,1.5514252 1.615206,1.4594189 1.619206,1.4522189 1.65331,1.3679749 1.636776,1.3569524 1.5022937,1.2672978 1.2354364,1.4949691 1.1351773,1.3946956 0.99075466,1.2502873 1.519535,1.0952169 1.5666563,1.0009743 1.621208,0.89185651 1.3038676,0.92837337 1.3832785,0.79601236 1.4514356,0.68240755 1.6205876,0.59014152 1.6205876,0.44543028"
       fill="none"
       opacity="1"
       stroke-linejoin="round"
       id="path62512" /><path
       stroke="#645956"
       stroke-opacity="0.186695"
       stroke-width="0.0288557"
       d="M 1.3940705,0.50475756 C 1.1696599,0.84137349 0.80304846,1.1258616 0.62278703,1.4863845 0.59658607,1.538772 0.28836413,1.6643375 0.25601691,1.5672958 0.17435534,1.3223111 0.56344532,1.2494072 0.56344532,1.0441135 c 0,-0.023431 -0.0466741,-0.0054 -0.0701049,-0.0054 -0.13321225,0 -0.40887056,0.1304998 -0.43688942,0.1024809 C -0.07807415,1.0066733 0.2945681,0.77204772 0.33153222,0.66116977 0.36209039,0.56948085 0.08682163,0.59471514 0.06724305,0.41846465 0.06454505,0.39425473 0.05604705,0.32593891 0.07263906,0.30519168 0.1854792,0.16414511 0.7352809,0.19807939 0.87628418,0.05709054"
       fill="none"
       opacity="1"
       stroke-linejoin="round"
       id="path62514" /><path
       stroke="#645956"
       stroke-opacity="0.186695"
       stroke-width="0.0288557"
       d="m 1.9657881,-0.81127787 c -0.3032588,0 -0.9123445,-0.28578663 -1.24053455,-0.37215173 -0.39949246,-0.1051356 -0.89024101,-0.1561092 -1.20276245,0.1564122 -0.0809979,0.0809835 -0.29906027,0.27023348 -0.22653152,0.41530542 0.0990616,0.19812309 0.55902109,-0.0828158 0.61487126,-0.0269656 0.061982,0.061982 -0.1237043,0.20008529 -0.0701193,0.28046278 0.09230932,0.13847841 0.58318772,-0.0802188 0.62026726,-0.0431537 0.0348865,0.0349009 0.048896,0.18231018 0.0323616,0.23192752 -3.0298e-4,9.0896e-4 -0.0409606,0.0461835 -0.021584,0.0539313 0.12444012,0.04977605 0.7251721,-0.10587149 0.5879056,0.12944658"
       fill="none"
       opacity="1"
       stroke-linejoin="round"
       id="path62517" /><path
       d="m 3.3471961,-0.60980751 c 0,0.0442935 -0.030558,0.0801899 -0.068244,0.0801899 -0.0377,0 -0.068244,-0.0358965 -0.068244,-0.0801899 0,-0.044279 0.030544,-0.0801899 0.068244,-0.0801899 0.037685,0 0.068244,0.0359109 0.068244,0.0801899 z"
       opacity="1"
       fill="#000000"
       id="path62520"
       style="stroke-width:0.0144278" /><path
       d="m 3.3779995,-1.1168307 c 0.1559952,0 0.3207309,0.12856652 0.482164,0.12856652"
       stroke="#2a2421"
       stroke-width="0.0288557"
       fill="none"
       opacity="1"
       stroke-linejoin="round"
       id="path62522" /><path
       d="m 3.2172734,-1.0896342 c -0.1150621,0 -0.556352,-0.1558062 -0.556352,-0.2917742"
       stroke="#2a2421"
       stroke-width="0.0288557"
       fill="none"
       opacity="1"
       stroke-linejoin="round"
       id="path62524" /><path
       d="m 3.6747138,-0.98578259 c 0.066261,0.11043069 0.1806957,0.41293921 0.2101776,0.41293921"
       stroke="#2a2421"
       stroke-width="0.0288557"
       fill="none"
       opacity="1"
       stroke-linejoin="round"
       id="path62526" /><path
       d="m 3.6747138,-1.0253437 c 0.043119,-0.015409 0.4456861,-0.089005 0.447553,-0.091487"
       stroke="#2a2421"
       stroke-width="0.0288557"
       fill="none"
       opacity="1"
       stroke-linejoin="round"
       id="path62528" /><path
       d="m 3.881182,-0.48135645 c -0.04177,-0.0363149 0.052018,0.0242388 0.03338,-0.0642905 -0.00635,-0.0301686 -0.057312,-0.0444955 -0.08407,-0.0321452 -0.095952,0.044279 0.1188551,0.15567639 0.05069,0.0964357 z"
       stroke="#2a2421"
       stroke-width="0.0288557"
       fill="#071d1f"
       opacity="1"
       stroke-linejoin="round"
       id="path62530" /><path
       d="m 4.0975404,-1.057489 c -0.028281,0.00492 0.1469533,-0.044712 0.096434,-0.074188 -0.014213,-0.00828 -0.1404276,-0.017357 -0.14836,0.00248 -0.014888,0.037209 0.07641,0.067436 0.051926,0.071706 z"
       stroke="#2a2421"
       stroke-width="0.0288557"
       fill="#072d2d"
       opacity="1"
       stroke-linejoin="round"
       id="path62532" /><path
       d="m 3.5275902,-1.100758 c 0.03034,0.00414 0.1232325,-0.098008 0.087779,-0.1050924 -0.057009,-0.011398 -0.1918499,0.090867 -0.087779,0.1050924 z"
       stroke="#2a2421"
       stroke-width="0.0288557"
       fill="#001e40"
       opacity="1"
       stroke-linejoin="round"
       id="path62534" /><path
       d="m 3.8082377,-0.94622145 c 0.00368,0.0484775 0.1307494,0.13615552 0.1087974,0.0395611 -0.010151,-0.0446686 -0.1144603,-0.11418185 -0.1087974,-0.0395611 z"
       stroke="#2a2421"
       stroke-width="0.0288557"
       fill="#212735"
       opacity="1"
       stroke-linejoin="round"
       id="path62536" />

    
</g>
<g id="t00006f"><polygon
         points="0,0 -1.5,-0.8660254037844386 -1,-1.7320508075688772 1,-1.7320508075688772 1.5,-0.8660254037844386 3,-1.7320508075688772 4.5,-0.8660254037844386 4,0 3,0 3,1.7320508075688772 1.5,2.598076211353316 1,1.7320508075688772 0,1.7320508075688772"
         stroke="rgb( 0 0 0)"
         stroke-width="0.09999999999999998"
         fill="rgb(163, 195, 255)"
         id="polygon3941"
         style="stroke:none" 
          />
          
    <path
       d="m 1.2322623,2.1417114 c 0.026591,0.056528 0.3080055,0.030443 0.3991173,-0.0027 C 1.8670584,2.0533121 2.1033287,1.8499084 2.2624245,1.6589848 2.5115933,1.3599822 2.613021,0.92997486 2.613021,0.54791123 c 0,-0.0947332 -0.044871,-0.55211016 -0.010792,-0.62026727 0.033675,-0.06736359 0.3054806,-0.09539688 0.3775477,-0.11325855 0.522067,-0.12944658 0.5284312,-0.18720122 0.522067,-0.566336 C 3.5003894,-0.8385032 3.4609019,-1.0528865 3.4004781,-1.1133103 3.2569066,-1.2568817 3.1676272,-0.74685756 2.8772957,-0.84363951 2.5575604,-0.95021797 1.8680683,-1.0476492 1.4749674,-0.88584094 1.4060168,-0.85746138 1.2666294,-1.0411999 0.87071503,-1.1310709 c -0.25648371,-0.058216 -0.6351568,-0.1576242 -0.92752255,-0.13327 -0.23234593,0.019362 -0.61805981,0.32658859 -0.65802492,0.566336 -0.0571342,0.34284877 0.53041068,-0.006117 0.58865587,0.022998 0.1816465,0.0908232 -0.12620032,0.30507668 -0.0600775,0.34915373 0.19857036,0.13238986 0.46075307,-0.16211121 0.62791403,-0.0506706 0.109767,0.073178 0.0400084,0.28777769 0.0418552,0.28799411 0.1172262,0.01301391 0.50770126,-0.07589044 0.51681964,-0.04854968 0.050757,0.15230028 -0.64235627,0.28349263 -0.77128345,0.36137411 -0.52120572,0.31484432 0.16596344,0.2397907 0.0788481,0.50113659 -0.0333427,0.10002822 -0.36443281,0.23006634 -0.28059263,0.39773224 0.06517055,0.1303556 0.39843923,-0.07905 0.49299929,-0.07905 0.002092,0 0.0366179,-0.00227 0.0377577,0 0.0890053,0.178025 -0.27972703,0.2498035 -0.31283892,0.4153053 -0.027687,0.1384928 0.18600371,0.1560659 0.28585879,0.1132729 0.21556636,-0.092381 0.63882152,-0.78983763 0.84140282,-0.99241893 0.00918,-0.009176 0.050339,-0.0395611 0.059327,-0.0485497 C 1.4455923,0.51795903 1.6999551,0.29519318 1.7230685,0.36451895 1.7629471,0.48416903 1.4289714,0.7091712 1.3886745,0.83007649 1.3466895,0.95600268 1.5881394,0.88247841 1.5342947,0.99018224 1.456947,1.144892 1.1895414,1.146782 1.1102749,1.3449772 c -0.081791,0.204457 0.3929278,-0.00961 0.4509854,-0.00961 0.00512,0 0.032362,0.061102 0.032362,0.070119 0,0.2152634 -0.5349699,0.3673328 -0.3613597,0.7362238 z"
       opacity="1"
       fill="#f2edf3"
       id="path62507"
       style="stroke-width:0.0144278" /><path
       stroke="#645956"
       stroke-opacity="0.186695"
       stroke-width="0.0288557"
       d="m 2.4026631,-0.08852965 c 0.1798574,0 0.3986123,-0.05924071 0.5771136,-0.09170335 0.1260272,-0.0229114 0.3281468,-0.0452601 0.4207014,-0.14022418 0.282057,-0.28940804 0.028481,-0.69752832 -0.075515,-0.80364512 -0.047121,-0.048088 -0.1382765,0.16338087 -0.1564123,0.18877386 -0.06204,0.08687 -0.2149748,0.0931317 -0.3128244,0.0809113 -0.4300506,-0.0537581 -0.6443329,-0.19018776 -1.1164695,-0.0485497 -0.033256,0.00997 -0.3505821,0.11281128 -0.3505821,0.14562019"
       fill="none"
       opacity="1"
       stroke-linejoin="round"
       id="path62510" /><path
       stroke="#645956"
       stroke-opacity="0.186695"
       stroke-width="0.0288557"
       d="m 2.5644713,0.04629851 c 0.050194,0 0.079858,0.54773852 0.04855,0.79826354 C 2.5461191,1.3797051 1.9076583,2.3429221 1.2646239,2.1821671 1.0135218,2.1193916 1.5640882,1.5514252 1.615206,1.4594189 1.619206,1.4522189 1.65331,1.3679749 1.636776,1.3569524 1.5022937,1.2672978 1.2354364,1.4949691 1.1351773,1.3946956 0.99075466,1.2502873 1.519535,1.0952169 1.5666563,1.0009743 1.621208,0.89185651 1.3038676,0.92837337 1.3832785,0.79601236 1.4514356,0.68240755 1.6205876,0.59014152 1.6205876,0.44543028"
       fill="none"
       opacity="1"
       stroke-linejoin="round"
       id="path62512" /><path
       stroke="#645956"
       stroke-opacity="0.186695"
       stroke-width="0.0288557"
       d="M 1.3940705,0.50475756 C 1.1696599,0.84137349 0.80304846,1.1258616 0.62278703,1.4863845 0.59658607,1.538772 0.28836413,1.6643375 0.25601691,1.5672958 0.17435534,1.3223111 0.56344532,1.2494072 0.56344532,1.0441135 c 0,-0.023431 -0.0466741,-0.0054 -0.0701049,-0.0054 -0.13321225,0 -0.40887056,0.1304998 -0.43688942,0.1024809 C -0.07807415,1.0066733 0.2945681,0.77204772 0.33153222,0.66116977 0.36209039,0.56948085 0.08682163,0.59471514 0.06724305,0.41846465 0.06454505,0.39425473 0.05604705,0.32593891 0.07263906,0.30519168 0.1854792,0.16414511 0.7352809,0.19807939 0.87628418,0.05709054"
       fill="none"
       opacity="1"
       stroke-linejoin="round"
       id="path62514" /><path
       stroke="#645956"
       stroke-opacity="0.186695"
       stroke-width="0.0288557"
       d="m 1.9657881,-0.81127787 c -0.3032588,0 -0.9123445,-0.28578663 -1.24053455,-0.37215173 -0.39949246,-0.1051356 -0.89024101,-0.1561092 -1.20276245,0.1564122 -0.0809979,0.0809835 -0.29906027,0.27023348 -0.22653152,0.41530542 0.0990616,0.19812309 0.55902109,-0.0828158 0.61487126,-0.0269656 0.061982,0.061982 -0.1237043,0.20008529 -0.0701193,0.28046278 0.09230932,0.13847841 0.58318772,-0.0802188 0.62026726,-0.0431537 0.0348865,0.0349009 0.048896,0.18231018 0.0323616,0.23192752 -3.0298e-4,9.0896e-4 -0.0409606,0.0461835 -0.021584,0.0539313 0.12444012,0.04977605 0.7251721,-0.10587149 0.5879056,0.12944658"
       fill="none"
       opacity="1"
       stroke-linejoin="round"
       id="path62517" /><path
       d="m 3.3471961,-0.60980751 c 0,0.0442935 -0.030558,0.0801899 -0.068244,0.0801899 -0.0377,0 -0.068244,-0.0358965 -0.068244,-0.0801899 0,-0.044279 0.030544,-0.0801899 0.068244,-0.0801899 0.037685,0 0.068244,0.0359109 0.068244,0.0801899 z"
       opacity="1"
       fill="#000000"
       id="path62520"
       style="stroke-width:0.0144278" /><path
       d="m 3.3779995,-1.1168307 c 0.1559952,0 0.3207309,0.12856652 0.482164,0.12856652"
       stroke="#2a2421"
       stroke-width="0.0288557"
       fill="none"
       opacity="1"
       stroke-linejoin="round"
       id="path62522" /><path
       d="m 3.2172734,-1.0896342 c -0.1150621,0 -0.556352,-0.1558062 -0.556352,-0.2917742"
       stroke="#2a2421"
       stroke-width="0.0288557"
       fill="none"
       opacity="1"
       stroke-linejoin="round"
       id="path62524" /><path
       d="m 3.6747138,-0.98578259 c 0.066261,0.11043069 0.1806957,0.41293921 0.2101776,0.41293921"
       stroke="#2a2421"
       stroke-width="0.0288557"
       fill="none"
       opacity="1"
       stroke-linejoin="round"
       id="path62526" /><path
       d="m 3.6747138,-1.0253437 c 0.043119,-0.015409 0.4456861,-0.089005 0.447553,-0.091487"
       stroke="#2a2421"
       stroke-width="0.0288557"
       fill="none"
       opacity="1"
       stroke-linejoin="round"
       id="path62528" /><path
       d="m 3.881182,-0.48135645 c -0.04177,-0.0363149 0.052018,0.0242388 0.03338,-0.0642905 -0.00635,-0.0301686 -0.057312,-0.0444955 -0.08407,-0.0321452 -0.095952,0.044279 0.1188551,0.15567639 0.05069,0.0964357 z"
       stroke="#2a2421"
       stroke-width="0.0288557"
       fill="#071d1f"
       opacity="1"
       stroke-linejoin="round"
       id="path62530" /><path
       d="m 4.0975404,-1.057489 c -0.028281,0.00492 0.1469533,-0.044712 0.096434,-0.074188 -0.014213,-0.00828 -0.1404276,-0.017357 -0.14836,0.00248 -0.014888,0.037209 0.07641,0.067436 0.051926,0.071706 z"
       stroke="#2a2421"
       stroke-width="0.0288557"
       fill="#072d2d"
       opacity="1"
       stroke-linejoin="round"
       id="path62532" /><path
       d="m 3.5275902,-1.100758 c 0.03034,0.00414 0.1232325,-0.098008 0.087779,-0.1050924 -0.057009,-0.011398 -0.1918499,0.090867 -0.087779,0.1050924 z"
       stroke="#2a2421"
       stroke-width="0.0288557"
       fill="#001e40"
       opacity="1"
       stroke-linejoin="round"
       id="path62534" /><path
       d="m 3.8082377,-0.94622145 c 0.00368,0.0484775 0.1307494,0.13615552 0.1087974,0.0395611 -0.010151,-0.0446686 -0.1144603,-0.11418185 -0.1087974,-0.0395611 z"
       stroke="#2a2421"
       stroke-width="0.0288557"
       fill="#212735"
       opacity="1"
       stroke-linejoin="round"
       id="path62536" />

    
</g>
<g id="t00008f"><polygon
         points="0,0 -1.5,-0.8660254037844386 -1,-1.7320508075688772 1,-1.7320508075688772 1.5,-0.8660254037844386 3,-1.7320508075688772 4.5,-0.8660254037844386 4,0 3,0 3,1.7320508075688772 1.5,2.598076211353316 1,1.7320508075688772 0,1.7320508075688772"
         stroke="rgb( 0 0 0)"
         stroke-width="0.09999999999999998"
         fill="rgb(0, 255, 255)"
         id="polygon3941"
         style="stroke:none" 
          />
          
    <path
       d="m 1.2322623,2.1417114 c 0.026591,0.056528 0.3080055,0.030443 0.3991173,-0.0027 C 1.8670584,2.0533121 2.1033287,1.8499084 2.2624245,1.6589848 2.5115933,1.3599822 2.613021,0.92997486 2.613021,0.54791123 c 0,-0.0947332 -0.044871,-0.55211016 -0.010792,-0.62026727 0.033675,-0.06736359 0.3054806,-0.09539688 0.3775477,-0.11325855 0.522067,-0.12944658 0.5284312,-0.18720122 0.522067,-0.566336 C 3.5003894,-0.8385032 3.4609019,-1.0528865 3.4004781,-1.1133103 3.2569066,-1.2568817 3.1676272,-0.74685756 2.8772957,-0.84363951 2.5575604,-0.95021797 1.8680683,-1.0476492 1.4749674,-0.88584094 1.4060168,-0.85746138 1.2666294,-1.0411999 0.87071503,-1.1310709 c -0.25648371,-0.058216 -0.6351568,-0.1576242 -0.92752255,-0.13327 -0.23234593,0.019362 -0.61805981,0.32658859 -0.65802492,0.566336 -0.0571342,0.34284877 0.53041068,-0.006117 0.58865587,0.022998 0.1816465,0.0908232 -0.12620032,0.30507668 -0.0600775,0.34915373 0.19857036,0.13238986 0.46075307,-0.16211121 0.62791403,-0.0506706 0.109767,0.073178 0.0400084,0.28777769 0.0418552,0.28799411 0.1172262,0.01301391 0.50770126,-0.07589044 0.51681964,-0.04854968 0.050757,0.15230028 -0.64235627,0.28349263 -0.77128345,0.36137411 -0.52120572,0.31484432 0.16596344,0.2397907 0.0788481,0.50113659 -0.0333427,0.10002822 -0.36443281,0.23006634 -0.28059263,0.39773224 0.06517055,0.1303556 0.39843923,-0.07905 0.49299929,-0.07905 0.002092,0 0.0366179,-0.00227 0.0377577,0 0.0890053,0.178025 -0.27972703,0.2498035 -0.31283892,0.4153053 -0.027687,0.1384928 0.18600371,0.1560659 0.28585879,0.1132729 0.21556636,-0.092381 0.63882152,-0.78983763 0.84140282,-0.99241893 0.00918,-0.009176 0.050339,-0.0395611 0.059327,-0.0485497 C 1.4455923,0.51795903 1.6999551,0.29519318 1.7230685,0.36451895 1.7629471,0.48416903 1.4289714,0.7091712 1.3886745,0.83007649 1.3466895,0.95600268 1.5881394,0.88247841 1.5342947,0.99018224 1.456947,1.144892 1.1895414,1.146782 1.1102749,1.3449772 c -0.081791,0.204457 0.3929278,-0.00961 0.4509854,-0.00961 0.00512,0 0.032362,0.061102 0.032362,0.070119 0,0.2152634 -0.5349699,0.3673328 -0.3613597,0.7362238 z"
       opacity="1"
       fill="#f2edf3"
       id="path62507"
       style="stroke-width:0.0144278" /><path
       stroke="#645956"
       stroke-opacity="0.186695"
       stroke-width="0.0288557"
       d="m 2.4026631,-0.08852965 c 0.1798574,0 0.3986123,-0.05924071 0.5771136,-0.09170335 0.1260272,-0.0229114 0.3281468,-0.0452601 0.4207014,-0.14022418 0.282057,-0.28940804 0.028481,-0.69752832 -0.075515,-0.80364512 -0.047121,-0.048088 -0.1382765,0.16338087 -0.1564123,0.18877386 -0.06204,0.08687 -0.2149748,0.0931317 -0.3128244,0.0809113 -0.4300506,-0.0537581 -0.6443329,-0.19018776 -1.1164695,-0.0485497 -0.033256,0.00997 -0.3505821,0.11281128 -0.3505821,0.14562019"
       fill="none"
       opacity="1"
       stroke-linejoin="round"
       id="path62510" /><path
       stroke="#645956"
       stroke-opacity="0.186695"
       stroke-width="0.0288557"
       d="m 2.5644713,0.04629851 c 0.050194,0 0.079858,0.54773852 0.04855,0.79826354 C 2.5461191,1.3797051 1.9076583,2.3429221 1.2646239,2.1821671 1.0135218,2.1193916 1.5640882,1.5514252 1.615206,1.4594189 1.619206,1.4522189 1.65331,1.3679749 1.636776,1.3569524 1.5022937,1.2672978 1.2354364,1.4949691 1.1351773,1.3946956 0.99075466,1.2502873 1.519535,1.0952169 1.5666563,1.0009743 1.621208,0.89185651 1.3038676,0.92837337 1.3832785,0.79601236 1.4514356,0.68240755 1.6205876,0.59014152 1.6205876,0.44543028"
       fill="none"
       opacity="1"
       stroke-linejoin="round"
       id="path62512" /><path
       stroke="#645956"
       stroke-opacity="0.186695"
       stroke-width="0.0288557"
       d="M 1.3940705,0.50475756 C 1.1696599,0.84137349 0.80304846,1.1258616 0.62278703,1.4863845 0.59658607,1.538772 0.28836413,1.6643375 0.25601691,1.5672958 0.17435534,1.3223111 0.56344532,1.2494072 0.56344532,1.0441135 c 0,-0.023431 -0.0466741,-0.0054 -0.0701049,-0.0054 -0.13321225,0 -0.40887056,0.1304998 -0.43688942,0.1024809 C -0.07807415,1.0066733 0.2945681,0.77204772 0.33153222,0.66116977 0.36209039,0.56948085 0.08682163,0.59471514 0.06724305,0.41846465 0.06454505,0.39425473 0.05604705,0.32593891 0.07263906,0.30519168 0.1854792,0.16414511 0.7352809,0.19807939 0.87628418,0.05709054"
       fill="none"
       opacity="1"
       stroke-linejoin="round"
       id="path62514" /><path
       stroke="#645956"
       stroke-opacity="0.186695"
       stroke-width="0.0288557"
       d="m 1.9657881,-0.81127787 c -0.3032588,0 -0.9123445,-0.28578663 -1.24053455,-0.37215173 -0.39949246,-0.1051356 -0.89024101,-0.1561092 -1.20276245,0.1564122 -0.0809979,0.0809835 -0.29906027,0.27023348 -0.22653152,0.41530542 0.0990616,0.19812309 0.55902109,-0.0828158 0.61487126,-0.0269656 0.061982,0.061982 -0.1237043,0.20008529 -0.0701193,0.28046278 0.09230932,0.13847841 0.58318772,-0.0802188 0.62026726,-0.0431537 0.0348865,0.0349009 0.048896,0.18231018 0.0323616,0.23192752 -3.0298e-4,9.0896e-4 -0.0409606,0.0461835 -0.021584,0.0539313 0.12444012,0.04977605 0.7251721,-0.10587149 0.5879056,0.12944658"
       fill="none"
       opacity="1"
       stroke-linejoin="round"
       id="path62517" /><path
       d="m 3.3471961,-0.60980751 c 0,0.0442935 -0.030558,0.0801899 -0.068244,0.0801899 -0.0377,0 -0.068244,-0.0358965 -0.068244,-0.0801899 0,-0.044279 0.030544,-0.0801899 0.068244,-0.0801899 0.037685,0 0.068244,0.0359109 0.068244,0.0801899 z"
       opacity="1"
       fill="#000000"
       id="path62520"
       style="stroke-width:0.0144278" /><path
       d="m 3.3779995,-1.1168307 c 0.1559952,0 0.3207309,0.12856652 0.482164,0.12856652"
       stroke="#2a2421"
       stroke-width="0.0288557"
       fill="none"
       opacity="1"
       stroke-linejoin="round"
       id="path62522" /><path
       d="m 3.2172734,-1.0896342 c -0.1150621,0 -0.556352,-0.1558062 -0.556352,-0.2917742"
       stroke="#2a2421"
       stroke-width="0.0288557"
       fill="none"
       opacity="1"
       stroke-linejoin="round"
       id="path62524" /><path
       d="m 3.6747138,-0.98578259 c 0.066261,0.11043069 0.1806957,0.41293921 0.2101776,0.41293921"
       stroke="#2a2421"
       stroke-width="0.0288557"
       fill="none"
       opacity="1"
       stroke-linejoin="round"
       id="path62526" /><path
       d="m 3.6747138,-1.0253437 c 0.043119,-0.015409 0.4456861,-0.089005 0.447553,-0.091487"
       stroke="#2a2421"
       stroke-width="0.0288557"
       fill="none"
       opacity="1"
       stroke-linejoin="round"
       id="path62528" /><path
       d="m 3.881182,-0.48135645 c -0.04177,-0.0363149 0.052018,0.0242388 0.03338,-0.0642905 -0.00635,-0.0301686 -0.057312,-0.0444955 -0.08407,-0.0321452 -0.095952,0.044279 0.1188551,0.15567639 0.05069,0.0964357 z"
       stroke="#2a2421"
       stroke-width="0.0288557"
       fill="#071d1f"
       opacity="1"
       stroke-linejoin="round"
       id="path62530" /><path
       d="m 4.0975404,-1.057489 c -0.028281,0.00492 0.1469533,-0.044712 0.096434,-0.074188 -0.014213,-0.00828 -0.1404276,-0.017357 -0.14836,0.00248 -0.014888,0.037209 0.07641,0.067436 0.051926,0.071706 z"
       stroke="#2a2421"
       stroke-width="0.0288557"
       fill="#072d2d"
       opacity="1"
       stroke-linejoin="round"
       id="path62532" /><path
       d="m 3.5275902,-1.100758 c 0.03034,0.00414 0.1232325,-0.098008 0.087779,-0.1050924 -0.057009,-0.011398 -0.1918499,0.090867 -0.087779,0.1050924 z"
       stroke="#2a2421"
       stroke-width="0.0288557"
       fill="#001e40"
       opacity="1"
       stroke-linejoin="round"
       id="path62534" /><path
       d="m 3.8082377,-0.94622145 c 0.00368,0.0484775 0.1307494,0.13615552 0.1087974,0.0395611 -0.010151,-0.0446686 -0.1144603,-0.11418185 -0.1087974,-0.0395611 z"
       stroke="#2a2421"
       stroke-width="0.0288557"
       fill="#212735"
       opacity="1"
       stroke-linejoin="round"
       id="path62536" />

    
</g>
<g id="t00010f"><polygon
         points="0,0 -1.5,-0.8660254037844386 -1,-1.7320508075688772 1,-1.7320508075688772 1.5,-0.8660254037844386 3,-1.7320508075688772 4.5,-0.8660254037844386 4,0 3,0 3,1.7320508075688772 1.5,2.598076211353316 1,1.7320508075688772 0,1.7320508075688772"
         stroke="rgb( 0 0 0)"
         stroke-width="0.09999999999999998"
         fill="rgb(0, 58, 255)"
         id="polygon3941"
         style="stroke:none" 
          />
          
    <path
       d="m 1.2322623,2.1417114 c 0.026591,0.056528 0.3080055,0.030443 0.3991173,-0.0027 C 1.8670584,2.0533121 2.1033287,1.8499084 2.2624245,1.6589848 2.5115933,1.3599822 2.613021,0.92997486 2.613021,0.54791123 c 0,-0.0947332 -0.044871,-0.55211016 -0.010792,-0.62026727 0.033675,-0.06736359 0.3054806,-0.09539688 0.3775477,-0.11325855 0.522067,-0.12944658 0.5284312,-0.18720122 0.522067,-0.566336 C 3.5003894,-0.8385032 3.4609019,-1.0528865 3.4004781,-1.1133103 3.2569066,-1.2568817 3.1676272,-0.74685756 2.8772957,-0.84363951 2.5575604,-0.95021797 1.8680683,-1.0476492 1.4749674,-0.88584094 1.4060168,-0.85746138 1.2666294,-1.0411999 0.87071503,-1.1310709 c -0.25648371,-0.058216 -0.6351568,-0.1576242 -0.92752255,-0.13327 -0.23234593,0.019362 -0.61805981,0.32658859 -0.65802492,0.566336 -0.0571342,0.34284877 0.53041068,-0.006117 0.58865587,0.022998 0.1816465,0.0908232 -0.12620032,0.30507668 -0.0600775,0.34915373 0.19857036,0.13238986 0.46075307,-0.16211121 0.62791403,-0.0506706 0.109767,0.073178 0.0400084,0.28777769 0.0418552,0.28799411 0.1172262,0.01301391 0.50770126,-0.07589044 0.51681964,-0.04854968 0.050757,0.15230028 -0.64235627,0.28349263 -0.77128345,0.36137411 -0.52120572,0.31484432 0.16596344,0.2397907 0.0788481,0.50113659 -0.0333427,0.10002822 -0.36443281,0.23006634 -0.28059263,0.39773224 0.06517055,0.1303556 0.39843923,-0.07905 0.49299929,-0.07905 0.002092,0 0.0366179,-0.00227 0.0377577,0 0.0890053,0.178025 -0.27972703,0.2498035 -0.31283892,0.4153053 -0.027687,0.1384928 0.18600371,0.1560659 0.28585879,0.1132729 0.21556636,-0.092381 0.63882152,-0.78983763 0.84140282,-0.99241893 0.00918,-0.009176 0.050339,-0.0395611 0.059327,-0.0485497 C 1.4455923,0.51795903 1.6999551,0.29519318 1.7230685,0.36451895 1.7629471,0.48416903 1.4289714,0.7091712 1.3886745,0.83007649 1.3466895,0.95600268 1.5881394,0.88247841 1.5342947,0.99018224 1.456947,1.144892 1.1895414,1.146782 1.1102749,1.3449772 c -0.081791,0.204457 0.3929278,-0.00961 0.4509854,-0.00961 0.00512,0 0.032362,0.061102 0.032362,0.070119 0,0.2152634 -0.5349699,0.3673328 -0.3613597,0.7362238 z"
       opacity="1"
       fill="#f2edf3"
       id="path62507"
       style="stroke-width:0.0144278" /><path
       stroke="#645956"
       stroke-opacity="0.186695"
       stroke-width="0.0288557"
       d="m 2.4026631,-0.08852965 c 0.1798574,0 0.3986123,-0.05924071 0.5771136,-0.09170335 0.1260272,-0.0229114 0.3281468,-0.0452601 0.4207014,-0.14022418 0.282057,-0.28940804 0.028481,-0.69752832 -0.075515,-0.80364512 -0.047121,-0.048088 -0.1382765,0.16338087 -0.1564123,0.18877386 -0.06204,0.08687 -0.2149748,0.0931317 -0.3128244,0.0809113 -0.4300506,-0.0537581 -0.6443329,-0.19018776 -1.1164695,-0.0485497 -0.033256,0.00997 -0.3505821,0.11281128 -0.3505821,0.14562019"
       fill="none"
       opacity="1"
       stroke-linejoin="round"
       id="path62510" /><path
       stroke="#645956"
       stroke-opacity="0.186695"
       stroke-width="0.0288557"
       d="m 2.5644713,0.04629851 c 0.050194,0 0.079858,0.54773852 0.04855,0.79826354 C 2.5461191,1.3797051 1.9076583,2.3429221 1.2646239,2.1821671 1.0135218,2.1193916 1.5640882,1.5514252 1.615206,1.4594189 1.619206,1.4522189 1.65331,1.3679749 1.636776,1.3569524 1.5022937,1.2672978 1.2354364,1.4949691 1.1351773,1.3946956 0.99075466,1.2502873 1.519535,1.0952169 1.5666563,1.0009743 1.621208,0.89185651 1.3038676,0.92837337 1.3832785,0.79601236 1.4514356,0.68240755 1.6205876,0.59014152 1.6205876,0.44543028"
       fill="none"
       opacity="1"
       stroke-linejoin="round"
       id="path62512" /><path
       stroke="#645956"
       stroke-opacity="0.186695"
       stroke-width="0.0288557"
       d="M 1.3940705,0.50475756 C 1.1696599,0.84137349 0.80304846,1.1258616 0.62278703,1.4863845 0.59658607,1.538772 0.28836413,1.6643375 0.25601691,1.5672958 0.17435534,1.3223111 0.56344532,1.2494072 0.56344532,1.0441135 c 0,-0.023431 -0.0466741,-0.0054 -0.0701049,-0.0054 -0.13321225,0 -0.40887056,0.1304998 -0.43688942,0.1024809 C -0.07807415,1.0066733 0.2945681,0.77204772 0.33153222,0.66116977 0.36209039,0.56948085 0.08682163,0.59471514 0.06724305,0.41846465 0.06454505,0.39425473 0.05604705,0.32593891 0.07263906,0.30519168 0.1854792,0.16414511 0.7352809,0.19807939 0.87628418,0.05709054"
       fill="none"
       opacity="1"
       stroke-linejoin="round"
       id="path62514" /><path
       stroke="#645956"
       stroke-opacity="0.186695"
       stroke-width="0.0288557"
       d="m 1.9657881,-0.81127787 c -0.3032588,0 -0.9123445,-0.28578663 -1.24053455,-0.37215173 -0.39949246,-0.1051356 -0.89024101,-0.1561092 -1.20276245,0.1564122 -0.0809979,0.0809835 -0.29906027,0.27023348 -0.22653152,0.41530542 0.0990616,0.19812309 0.55902109,-0.0828158 0.61487126,-0.0269656 0.061982,0.061982 -0.1237043,0.20008529 -0.0701193,0.28046278 0.09230932,0.13847841 0.58318772,-0.0802188 0.62026726,-0.0431537 0.0348865,0.0349009 0.048896,0.18231018 0.0323616,0.23192752 -3.0298e-4,9.0896e-4 -0.0409606,0.0461835 -0.021584,0.0539313 0.12444012,0.04977605 0.7251721,-0.10587149 0.5879056,0.12944658"
       fill="none"
       opacity="1"
       stroke-linejoin="round"
       id="path62517" /><path
       d="m 3.3471961,-0.60980751 c 0,0.0442935 -0.030558,0.0801899 -0.068244,0.0801899 -0.0377,0 -0.068244,-0.0358965 -0.068244,-0.0801899 0,-0.044279 0.030544,-0.0801899 0.068244,-0.0801899 0.037685,0 0.068244,0.0359109 0.068244,0.0801899 z"
       opacity="1"
       fill="#000000"
       id="path62520"
       style="stroke-width:0.0144278" /><path
       d="m 3.3779995,-1.1168307 c 0.1559952,0 0.3207309,0.12856652 0.482164,0.12856652"
       stroke="#2a2421"
       stroke-width="0.0288557"
       fill="none"
       opacity="1"
       stroke-linejoin="round"
       id="path62522" /><path
       d="m 3.2172734,-1.0896342 c -0.1150621,0 -0.556352,-0.1558062 -0.556352,-0.2917742"
       stroke="#2a2421"
       stroke-width="0.0288557"
       fill="none"
       opacity="1"
       stroke-linejoin="round"
       id="path62524" /><path
       d="m 3.6747138,-0.98578259 c 0.066261,0.11043069 0.1806957,0.41293921 0.2101776,0.41293921"
       stroke="#2a2421"
       stroke-width="0.0288557"
       fill="none"
       opacity="1"
       stroke-linejoin="round"
       id="path62526" /><path
       d="m 3.6747138,-1.0253437 c 0.043119,-0.015409 0.4456861,-0.089005 0.447553,-0.091487"
       stroke="#2a2421"
       stroke-width="0.0288557"
       fill="none"
       opacity="1"
       stroke-linejoin="round"
       id="path62528" /><path
       d="m 3.881182,-0.48135645 c -0.04177,-0.0363149 0.052018,0.0242388 0.03338,-0.0642905 -0.00635,-0.0301686 -0.057312,-0.0444955 -0.08407,-0.0321452 -0.095952,0.044279 0.1188551,0.15567639 0.05069,0.0964357 z"
       stroke="#2a2421"
       stroke-width="0.0288557"
       fill="#071d1f"
       opacity="1"
       stroke-linejoin="round"
       id="path62530" /><path
       d="m 4.0975404,-1.057489 c -0.028281,0.00492 0.1469533,-0.044712 0.096434,-0.074188 -0.014213,-0.00828 -0.1404276,-0.017357 -0.14836,0.00248 -0.014888,0.037209 0.07641,0.067436 0.051926,0.071706 z"
       stroke="#2a2421"
       stroke-width="0.0288557"
       fill="#072d2d"
       opacity="1"
       stroke-linejoin="round"
       id="path62532" /><path
       d="m 3.5275902,-1.100758 c 0.03034,0.00414 0.1232325,-0.098008 0.087779,-0.1050924 -0.057009,-0.011398 -0.1918499,0.090867 -0.087779,0.1050924 z"
       stroke="#2a2421"
       stroke-width="0.0288557"
       fill="#001e40"
       opacity="1"
       stroke-linejoin="round"
       id="path62534" /><path
       d="m 3.8082377,-0.94622145 c 0.00368,0.0484775 0.1307494,0.13615552 0.1087974,0.0395611 -0.010151,-0.0446686 -0.1144603,-0.11418185 -0.1087974,-0.0395611 z"
       stroke="#2a2421"
       stroke-width="0.0288557"
       fill="#212735"
       opacity="1"
       stroke-linejoin="round"
       id="path62536" />

    
</g><g id="t00002s">
    <use xlink:href="#t00003s" transform="matrix(-0.24999999999999997 -0.4330127018922194 0.4330127018922194 -0.24999999999999997 1 1.7320508075688774)"/>
    <use xlink:href="#t00003s" transform="matrix(-0.25 -0.4330127018922193 0.4330127018922193 -0.25 4 1.7320508075688772)"/>
    <use xlink:href="#t00003s" transform="matrix(-0.25000000000000006 0.43301270189221935 -0.43301270189221935 -0.25000000000000006 2.5 2.598076211353315)"/>
    <use xlink:href="#t00004s" transform="matrix(-0.25 0.4330127018922193 0.4330127018922193 0.25 2.5 0.8660254037844386)"/>
    <polygon points="0,0 4,0 4.5,0.8660254037844386 2.5,4.330127018922193 1.5,4.330127018922193 -0.5,0.8660254037844386" fill="none" stroke="rgb(0,0,0)" stroke-width="0.1"/>
  </g>
<g id="t00002f">
    <use xlink:href="#t00003f" transform="matrix(-0.24999999999999997 -0.4330127018922194 0.4330127018922194 -0.24999999999999997 1 1.7320508075688774)"/>
    <use xlink:href="#t00003f" transform="matrix(-0.25 -0.4330127018922193 0.4330127018922193 -0.25 4 1.7320508075688772)"/>
    <use xlink:href="#t00003f" transform="matrix(-0.25000000000000006 0.43301270189221935 -0.43301270189221935 -0.25000000000000006 2.5 2.598076211353315)"/>
    <use xlink:href="#t00004f" transform="matrix(-0.25 0.4330127018922193 0.4330127018922193 0.25 2.5 0.8660254037844386)"/>
  </g>
<g id="t00005s">
    <use xlink:href="#t00006s" transform="matrix(0.5 0 0 0.5 0.5 0.8660254037844386)"/>
    <polygon points="0,0 3,0 1.5,2.598076211353316" fill="none" stroke="rgb(0,0,0)" stroke-width="0.10000000000000007"/>
  </g>
<g id="t00005f">
    <use xlink:href="#t00006f" transform="matrix(0.5 0 0 0.5 0.5 0.8660254037844386)"/>
  </g>
<g id="t00007s">
    <use xlink:href="#t00008s" transform="matrix(0.5 0 0 0.5 1.5 0.8660254037844386)"/>
    <use xlink:href="#t00008s" transform="matrix(0.25 -0.4330127018922193 0.4330127018922193 0.25 0 1.7320508075688772)"/>
    <polygon points="0,0 4,0 3,1.7320508075688772 -1,1.7320508075688772" fill="none" stroke="rgb(0,0,0)" stroke-width="0.09999999999999998"/>
  </g>
<g id="t00007f">
    <use xlink:href="#t00008f" transform="matrix(0.5 0 0 0.5 1.5 0.8660254037844386)"/>
    <use xlink:href="#t00008f" transform="matrix(0.25 -0.4330127018922193 0.4330127018922193 0.25 0 1.7320508075688772)"/>
  </g>
<g id="t00009s">
    <use xlink:href="#t00010s" transform="matrix(0.5 0 0 0.5 1.5 0.8660254037844386)"/>
    <use xlink:href="#t00010s" transform="matrix(0.25 -0.4330127018922193 0.4330127018922193 0.25 0 1.7320508075688772)"/>
    <polygon points="0,0 3,0 3.5,0.8660254037844386 3,1.7320508075688772 -1,1.7320508075688772" fill="none" stroke="rgb(0,0,0)" stroke-width="0.1"/>
  </g>
<g id="t00009f">
    <use xlink:href="#t00010f" transform="matrix(0.5 0 0 0.5 1.5 0.8660254037844386)"/>
    <use xlink:href="#t00010f" transform="matrix(0.25 -0.4330127018922193 0.4330127018922193 0.25 0 1.7320508075688772)"/>
  </g>
<g id="t00001s">
    <use xlink:href="#t00002s" transform="matrix(1 0 0 1 -4.499999999999998 -2.5980762113533156)"/>
    <use xlink:href="#t00002s" transform="matrix(1 2.7755575615628914e-16 -2.7755575615628914e-16 1 1.7763568394002505e-15 -3.4641016151377553)"/>
    <use xlink:href="#t00002s" transform="matrix(-0.49999999999999994 -0.8660254037844388 0.8660254037844388 -0.49999999999999994 -3.552713678800501e-15 5.196152422706632)"/>
    <use xlink:href="#t00005s" transform="matrix(-0.9999999999999993 0 0 -0.9999999999999993 1.5000000000000009 0.866025403784437)"/>
    <use xlink:href="#t00007s" transform="matrix(-0.5 -0.8660254037844388 0.8660254037844388 -0.5 -2.0000000000000036 5.196152422706632)"/>
    <use xlink:href="#t00009s" transform="matrix(-0.5 -0.8660254037844386 0.8660254037844386 -0.5 -4.999999999999998 1.7320508075688772)"/>
    <use xlink:href="#t00007s" transform="matrix(1 0 0 1 -3.4999999999999982 -4.330127018922193)"/>
    <use xlink:href="#t00009s" transform="matrix(1 2.9605947323337506e-16 -2.9605947323337506e-16 1 1.0000000000000018 -5.196152422706632)"/>
    <use xlink:href="#t00007s" transform="matrix(0.5000000000000004 -0.8660254037844384 0.8660254037844384 0.5000000000000004 2.5 0.8660254037844379)"/>
    <use xlink:href="#t00009s" transform="matrix(-0.5000000000000001 0.8660254037844387 -0.8660254037844387 -0.5000000000000001 3.9999999999999964 3.464101615137754)"/>
    <polygon points="-5.280821917808215,-3.3336046364853096 4.500000000000002,-4.330127018922193 5.527397260273977,-2.906523615440919 1.4999999999999964,6.0621778264910695 -0.2465753424657624,6.240128251926228 -5.999999999999998,-1.7320508075688772" fill="none" stroke="rgb(0,0,0)" stroke-width="0.2"/>
  </g>
<g id="t00001f">
    <use xlink:href="#t00002f" transform="matrix(1 0 0 1 -4.499999999999998 -2.5980762113533156)"/>
    <use xlink:href="#t00002f" transform="matrix(1 2.7755575615628914e-16 -2.7755575615628914e-16 1 1.7763568394002505e-15 -3.4641016151377553)"/>
    <use xlink:href="#t00002f" transform="matrix(-0.49999999999999994 -0.8660254037844388 0.8660254037844388 -0.49999999999999994 -3.552713678800501e-15 5.196152422706632)"/>
    <use xlink:href="#t00005f" transform="matrix(-0.9999999999999993 0 0 -0.9999999999999993 1.5000000000000009 0.866025403784437)"/>
    <use xlink:href="#t00007f" transform="matrix(-0.5 -0.8660254037844388 0.8660254037844388 -0.5 -2.0000000000000036 5.196152422706632)"/>
    <use xlink:href="#t00009f" transform="matrix(-0.5 -0.8660254037844386 0.8660254037844386 -0.5 -4.999999999999998 1.7320508075688772)"/>
    <use xlink:href="#t00007f" transform="matrix(1 0 0 1 -3.4999999999999982 -4.330127018922193)"/>
    <use xlink:href="#t00009f" transform="matrix(1 2.9605947323337506e-16 -2.9605947323337506e-16 1 1.0000000000000018 -5.196152422706632)"/>
    <use xlink:href="#t00007f" transform="matrix(0.5000000000000004 -0.8660254037844384 0.8660254037844384 0.5000000000000004 2.5 0.8660254037844379)"/>
    <use xlink:href="#t00009f" transform="matrix(-0.5000000000000001 0.8660254037844387 -0.8660254037844387 -0.5000000000000001 3.9999999999999964 3.464101615137754)"/>
  </g>
<g id="t00011s">
    <use xlink:href="#t00002s" transform="matrix(0.5000000000000007 -0.8660254037844384 0.8660254037844384 0.5000000000000007 -2.500000000000001 0.866025403784441)"/>
    <polygon points="4.253424657534238,1.9100012330040377 -3.7808219178082174,2.728573190005757 -0.47260273972602285,-4.638574423009794" fill="none" stroke="rgb(0,0,0)" stroke-width="0.2"/>
  </g>
<g id="t00011f">
    <use xlink:href="#t00002f" transform="matrix(0.5000000000000007 -0.8660254037844384 0.8660254037844384 0.5000000000000007 -2.500000000000001 0.866025403784441)"/>
  </g>
<g id="t00012s">
    <use xlink:href="#t00009s" transform="matrix(0.5 -0.8660254037844387 0.8660254037844387 0.5 -6 0)"/>
    <use xlink:href="#t00002s" transform="matrix(0.5000000000000001 0.8660254037844387 -0.8660254037844387 0.5000000000000001 -2 -1.7320508075688776)"/>
    <use xlink:href="#t00007s" transform="matrix(0.5 0.8660254037844387 -0.8660254037844387 0.5 0 -1.7320508075688776)"/>
    <use xlink:href="#t00002s" transform="matrix(-0.5 0.8660254037844388 -0.8660254037844388 -0.5 5 -1.7320508075688776)"/>
    <use xlink:href="#t00009s" transform="matrix(-0.5 0.8660254037844388 -0.8660254037844388 -0.5 6 0)"/>
    <polygon points="-3.5,-2.598076211353317 6.2808219178082165,-3.5945985937902005 3.5,2.5980762113533165 -6.2808219178082165,3.5945985937901996" fill="none" stroke="rgb(0,0,0)" stroke-width="0.19999999999999982"/>
  </g>
<g id="t00012f">
    <use xlink:href="#t00009f" transform="matrix(0.5 -0.8660254037844387 0.8660254037844387 0.5 -6 0)"/>
    <use xlink:href="#t00002f" transform="matrix(0.5000000000000001 0.8660254037844387 -0.8660254037844387 0.5000000000000001 -2 -1.7320508075688776)"/>
    <use xlink:href="#t00007f" transform="matrix(0.5 0.8660254037844387 -0.8660254037844387 0.5 0 -1.7320508075688776)"/>
    <use xlink:href="#t00002f" transform="matrix(-0.5 0.8660254037844388 -0.8660254037844388 -0.5 5 -1.7320508075688776)"/>
    <use xlink:href="#t00009f" transform="matrix(-0.5 0.8660254037844388 -0.8660254037844388 -0.5 6 0)"/>
  </g>
<g id="t00013s">
    <use xlink:href="#t00009s" transform="matrix(0.5 -0.8660254037844386 0.8660254037844386 0.5 -6.943835616438356 -0.026099395730489583)"/>
    <use xlink:href="#t00002s" transform="matrix(0.49999999999999994 0.8660254037844388 -0.8660254037844388 0.49999999999999994 -2.9438356164383563 -1.7581502032993672)"/>
    <use xlink:href="#t00007s" transform="matrix(0.5 0.8660254037844388 -0.8660254037844388 0.5 -0.9438356164383563 -1.7581502032993672)"/>
    <use xlink:href="#t00002s" transform="matrix(-0.5000000000000002 0.8660254037844388 -0.8660254037844388 -0.5000000000000002 4.056164383561644 -1.7581502032993672)"/>
    <use xlink:href="#t00009s" transform="matrix(1 0 0 1 0.5561643835616437 -4.356226414652683)"/>
    <use xlink:href="#t00009s" transform="matrix(-0.5 0.8660254037844388 -0.8660254037844388 -0.5 5.056164383561644 -0.026099395730489583)"/>
    <polygon points="-4.443835616438356,-2.6241756070838047 4.056164383561644,-3.490201010868244 5.056164383561644,-0.026099395730489583 2.5561643835616437,2.5719768156228273 -7.224657534246573,3.5684991980597105" fill="none" stroke="rgb(0,0,0)" stroke-width="0.20000000000000007"/>
  </g>
<g id="t00013f">
    <use xlink:href="#t00009f" transform="matrix(0.5 -0.8660254037844386 0.8660254037844386 0.5 -6.943835616438356 -0.026099395730489583)"/>
    <use xlink:href="#t00002f" transform="matrix(0.49999999999999994 0.8660254037844388 -0.8660254037844388 0.49999999999999994 -2.9438356164383563 -1.7581502032993672)"/>
    <use xlink:href="#t00007f" transform="matrix(0.5 0.8660254037844388 -0.8660254037844388 0.5 -0.9438356164383563 -1.7581502032993672)"/>
    <use xlink:href="#t00002f" transform="matrix(-0.5000000000000002 0.8660254037844388 -0.8660254037844388 -0.5000000000000002 4.056164383561644 -1.7581502032993672)"/>
    <use xlink:href="#t00009f" transform="matrix(1 0 0 1 0.5561643835616437 -4.356226414652683)"/>
    <use xlink:href="#t00009f" transform="matrix(-0.5 0.8660254037844388 -0.8660254037844388 -0.5 5.056164383561644 -0.026099395730489583)"/>
  </g>
<g id="t00000s">
    <use xlink:href="#t00001s" transform="matrix(1 0 0 1 -5.999999999999997 -1.7320508075688739)"/>
    <use xlink:href="#t00001s" transform="matrix(0.9999999999999999 -4.3021142204224816e-16 4.3021142204224816e-16 0.9999999999999999 4.500000000000003 -4.330127018922191)"/>
    <use xlink:href="#t00001s" transform="matrix(-0.5000000000000002 -0.8660254037844397 0.8660254037844397 -0.5000000000000002 1.4999999999999956 6.0621778264910615)"/>
    <use xlink:href="#t00011s" transform="matrix(1 -5.551115123125783e-16 5.551115123125783e-16 1 4.440892098500626e-15 -2.220446049250313e-16)"/>
    <use xlink:href="#t00012s" transform="matrix(-0.5000000000000001 -0.8660254037844397 0.8660254037844397 -0.5000000000000001 -5.000000000000012 8.660254037844377)"/>
    <use xlink:href="#t00013s" transform="matrix(-0.4999999999999995 -0.8660254037844384 0.8660254037844384 -0.4999999999999995 -12.94931506849315 0.035590085087034096)"/>
    <use xlink:href="#t00012s" transform="matrix(1 -1.3877787807814457e-17 1.3877787807814457e-17 1 -4.9999999999999964 -8.660254037844382)"/>
    <use xlink:href="#t00013s" transform="matrix(1 -4.163336342344337e-16 4.163336342344337e-16 1 6.443835616438359 -11.232230853467211)"/>
    <use xlink:href="#t00012s" transform="matrix(0.5000000000000002 -0.8660254037844384 0.8660254037844384 0.5000000000000002 10 1.7763568394002505e-15)"/>
    <use xlink:href="#t00013s" transform="matrix(-0.5000000000000007 0.8660254037844386 -0.8660254037844386 -0.5000000000000007 6.505479452054794 11.19664076838018)"/>
    <polygon points="-13.763157894736839,-8.341192046976438 11.500000000000004,-11.258330249197703 14.105263157894747,-7.748648349650241 3.9999999999999956,15.588457268119894 -0.34210526315790357,16.089840396626677 -15.499999999999993,-4.33012701892219" fill="none" stroke="rgb(0,0,0)" stroke-width="0.4"/>
  </g>
<g id="t00000f">
    <use xlink:href="#t00001f" transform="matrix(1 0 0 1 -5.999999999999997 -1.7320508075688739)"/>
    <use xlink:href="#t00001f" transform="matrix(0.9999999999999999 -4.3021142204224816e-16 4.3021142204224816e-16 0.9999999999999999 4.500000000000003 -4.330127018922191)"/>
    <use xlink:href="#t00001f" transform="matrix(-0.5000000000000002 -0.8660254037844397 0.8660254037844397 -0.5000000000000002 1.4999999999999956 6.0621778264910615)"/>
    <use xlink:href="#t00011f" transform="matrix(1 -5.551115123125783e-16 5.551115123125783e-16 1 4.440892098500626e-15 -2.220446049250313e-16)"/>
    <use xlink:href="#t00012f" transform="matrix(-0.5000000000000001 -0.8660254037844397 0.8660254037844397 -0.5000000000000001 -5.000000000000012 8.660254037844377)"/>
    <use xlink:href="#t00013f" transform="matrix(-0.4999999999999995 -0.8660254037844384 0.8660254037844384 -0.4999999999999995 -12.94931506849315 0.035590085087034096)"/>
    <use xlink:href="#t00012f" transform="matrix(1 -1.3877787807814457e-17 1.3877787807814457e-17 1 -4.9999999999999964 -8.660254037844382)"/>
    <use xlink:href="#t00013f" transform="matrix(1 -4.163336342344337e-16 4.163336342344337e-16 1 6.443835616438359 -11.232230853467211)"/>
    <use xlink:href="#t00012f" transform="matrix(0.5000000000000002 -0.8660254037844384 0.8660254037844384 0.5000000000000002 10 1.7763568394002505e-15)"/>
    <use xlink:href="#t00013f" transform="matrix(-0.5000000000000007 0.8660254037844386 -0.8660254037844386 -0.5000000000000007 6.505479452054794 11.19664076838018)"/>
  </g>
<g id="t00014s">
    <use xlink:href="#t00001s" transform="matrix(0.5000000000000003 -0.8660254037844384 0.8660254037844384 0.5000000000000003 0 1.3322676295501878e-14)"/>
    <polygon points="11.157894736842092,4.831510147428979 -9.763157894736842,7.247265221143447 -1.394736842105253,-12.078775368572426" fill="none" stroke="rgb(0,0,0)" stroke-width="0.4"/>
  </g>
<g id="t00014f">
    <use xlink:href="#t00001f" transform="matrix(0.5000000000000003 -0.8660254037844384 0.8660254037844384 0.5000000000000003 0 1.3322676295501878e-14)"/>
  </g>
<g id="t00015s">
    <use xlink:href="#t00013s" transform="matrix(0.49999999999999967 -0.8660254037844385 0.8660254037844385 0.49999999999999967 -11.505479452054795 -2.536386730535792)"/>
    <use xlink:href="#t00001s" transform="matrix(0.5000000000000002 0.8660254037844383 -0.8660254037844383 0.5000000000000002 -6.499999999999999 2.598076211353316)"/>
    <use xlink:href="#t00012s" transform="matrix(0.5000000000000002 0.8660254037844384 -0.8660254037844384 0.5000000000000002 -1.7763568394002505e-15 0)"/>
    <use xlink:href="#t00001s" transform="matrix(-0.49999999999999917 0.866025403784439 -0.866025403784439 -0.49999999999999917 6.499999999999995 -2.5980762113533196)"/>
    <use xlink:href="#t00013s" transform="matrix(-0.4999999999999989 0.8660254037844388 -0.8660254037844388 -0.4999999999999989 11.505479452054793 2.536386730535787)"/>
    <polygon points="-9.000000000000002,-6.928203230275503 16.263157894736842,-9.84534143249677 9,6.928203230275503 -16.263157894736842,9.845341432496769" fill="none" stroke="rgb(0,0,0)" stroke-width="0.4"/>
  </g>
<g id="t00015f">
    <use xlink:href="#t00013f" transform="matrix(0.49999999999999967 -0.8660254037844385 0.8660254037844385 0.49999999999999967 -11.505479452054795 -2.536386730535792)"/>
    <use xlink:href="#t00001f" transform="matrix(0.5000000000000002 0.8660254037844383 -0.8660254037844383 0.5000000000000002 -6.499999999999999 2.598076211353316)"/>
    <use xlink:href="#t00012f" transform="matrix(0.5000000000000002 0.8660254037844384 -0.8660254037844384 0.5000000000000002 -1.7763568394002505e-15 0)"/>
    <use xlink:href="#t00001f" transform="matrix(-0.49999999999999917 0.866025403784439 -0.866025403784439 -0.49999999999999917 6.499999999999995 -2.5980762113533196)"/>
    <use xlink:href="#t00013f" transform="matrix(-0.4999999999999989 0.8660254037844388 -0.8660254037844388 -0.4999999999999989 11.505479452054793 2.536386730535787)"/>
  </g>
<g id="t00016s">
    <use xlink:href="#t00013s" transform="matrix(0.5 -0.8660254037844392 0.8660254037844392 0.5 -14.15284787310744 -2.60019912870937)"/>
    <use xlink:href="#t00001s" transform="matrix(0.500000000000001 0.866025403784439 -0.866025403784439 0.500000000000001 -9.14736842105264 2.5342638131797415)"/>
    <use xlink:href="#t00012s" transform="matrix(0.5000000000000009 0.8660254037844389 -0.8660254037844389 0.5000000000000009 -2.647368421052633 -0.06381239817358164)"/>
    <use xlink:href="#t00001s" transform="matrix(-0.4999999999999991 0.8660254037844392 -0.8660254037844392 -0.4999999999999991 3.852631578947367 -2.661888609526901)"/>
    <use xlink:href="#t00013s" transform="matrix(0.9999999999999996 -7.355227538141662e-16 7.355227538141662e-16 0.9999999999999996 5.796467195385716 -9.563992444071925)"/>
    <use xlink:href="#t00013s" transform="matrix(-0.49999999999999895 0.8660254037844393 -0.8660254037844393 -0.49999999999999895 8.858111031002167 2.4725743323622034)"/>
    <polygon points="-11.647368421052647,-6.992015628449085 10.85263157894736,-9.590091839802415 13.352631578947367,-0.06381239817359585 6.352631578947381,6.864390832101922 -18.91052631578946,9.781529034323187" fill="none" stroke="rgb(0,0,0)" stroke-width="0.4"/>
  </g>
<g id="t00016f">
    <use xlink:href="#t00013f" transform="matrix(0.5 -0.8660254037844392 0.8660254037844392 0.5 -14.15284787310744 -2.60019912870937)"/>
    <use xlink:href="#t00001f" transform="matrix(0.500000000000001 0.866025403784439 -0.866025403784439 0.500000000000001 -9.14736842105264 2.5342638131797415)"/>
    <use xlink:href="#t00012f" transform="matrix(0.5000000000000009 0.8660254037844389 -0.8660254037844389 0.5000000000000009 -2.647368421052633 -0.06381239817358164)"/>
    <use xlink:href="#t00001f" transform="matrix(-0.4999999999999991 0.8660254037844392 -0.8660254037844392 -0.4999999999999991 3.852631578947367 -2.661888609526901)"/>
    <use xlink:href="#t00013f" transform="matrix(0.9999999999999996 -7.355227538141662e-16 7.355227538141662e-16 0.9999999999999996 5.796467195385716 -9.563992444071925)"/>
    <use xlink:href="#t00013f" transform="matrix(-0.49999999999999895 0.8660254037844393 -0.8660254037844393 -0.49999999999999895 8.858111031002167 2.4725743323622034)"/>
  </g></defs>
<use xlink:href="#t00000f" transform="matrix(20 0 0 -20 640 324.5)"/>
</svg>
