<svg viewBox="0 0 1280 649" 
xmlns="http://www.w3.org/2000/svg"
xmlns:xlink="http://www.w3.org/1999/xlink">
<defs> 
<g id="t00003f"><polygon
         points="0,0 -1.5,-0.8660254037844386 -1,-1.7320508075688772 1,-1.7320508075688772 1.5,-0.8660254037844386 3,-1.7320508075688772 4.5,-0.8660254037844386 4,0 3,0 3,1.7320508075688772 1.5,2.598076211353316 1,1.7320508075688772 0,1.7320508075688772"
         stroke="rgb( 0 0 0)"
         stroke-width="0.09999999999999998"
         fill="rgb(180, 230, 255)"
         id="polygon3941"
         style="stroke:none" 
          />
          
    <path
       d="m 0.52075759,-1.7261355 c 0,-0.066134 0.15795504,0.029764 0.51678421,0.1535609 0.02689,0.00927 0.2510616,0.61678601 0.283935,0.69896243 0.067985,0.16999063 0.1462787,0.36883352 0.3193508,0.40728938 0.050298,0.0111789 0.4142261,0.16482265 0.4046086,0.14662418 -0.2429641,-0.45971537 0.01806,-0.80042899 0.4470304,-0.73443359 0.1677797,0.025812 0.2818622,0.36975932 0.2175388,0.50912898 -0.042933,0.0930237 -0.083752,0.16700592 -0.1718285,0.2110443 -0.00308,0.001548 -0.058423,0.0111236 -0.054968,0.0111236 0.4348289,0 1.2111729,-0.89973988 1.3409113,-0.85194298 0.04209,0.015518 0.3262876,0.32526496 0.3623529,0.36133028 0.012906,0.0129061 -0.262047,0.1532016 -0.3748997,0.22216789 -0.234812,0.14348745 -0.4941921,0.3389449 -0.703523,0.51838714 C 2.9544896,0.05872469 2.6250377,0.31156884 2.5572598,0.51491644 2.4695423,0.77805509 2.3904059,1.0707922 2.2656696,1.3202647 2.1980713,1.4554475 2.073791,1.6606052 1.950934,1.7506994 1.884814,1.7992014 1.7657987,1.9127032 1.7657987,1.9127032 c 0,0 0.00976,-0.2880942 -0.00463,-0.3887869 C 1.7257953,1.2763092 1.7227691,0.93997594 1.611768,0.7144226 1.3827049,0.24902798 1.4490872,0.46582062 1.2939096,0.22534371 c 0,0 -0.2328908,-0.3989156 -0.23401,-0.71449405 C 1.0595818,-0.57827728 0.9532236,-0.79645173 0.91417357,-0.86389803 0.86359921,-0.95124243 0.52075759,-1.7035843 0.52075759,-1.7261355 Z"
       opacity="1"
       fill="#27279a"
       id="path79468"
       style="stroke-width:0.0138181" /><path
       d="m 0.91417357,2.7180514 c -0.0435271,0.00543 -0.0282443,-0.00417 -0.0509198,0.018516"
       stroke="#2a2421"
       stroke-width="0.0276363"
       fill="#27279a"
       opacity="1"
       stroke-linejoin="round"
       id="path79470" /><path
       d="M 1.4669126,0.58650817 C 1.362641,0.44905923 0.88939766,-0.07879333 0.81569176,-0.16353993 0.53838952,-0.48246237 0.27085671,-0.82439199 -0.09134411,-1.0531511 c -0.15969613,-0.1008586 -0.32367588,-0.2128131 -0.50585825,-0.2674638 -0.0418827,-0.012561 -0.1279172,-0.029073 -0.1279172,-0.029073 0,0 0.42849331,0.44191761 0.53492054,0.60469518 0.10193635,0.15589614 0.6454034,1.42014449 0.6454034,1.55245309 0,0.0242785 -0.27492551,0.54103503 -0.38956072,0.77913523 -0.0624994,0.1297937 -0.12791443,0.4128167 -0.12791443,0.4128167 0,0 0.2305555,-0.1989673 0.31397555,-0.2907197 C 0.41437181,1.5297475 0.75588689,1.4466591 0.99013183,1.4412286 1.4490872,1.4306025 1.6284465,2.034358 1.6284465,1.999412 c 0,-0.4025913 0.077119,-1.09829265 -0.1615339,-1.41290383 z"
       opacity="1"
       fill="#27279a"
       id="path79473"
       style="stroke-width:0.0138181" /><path
       d="m -0.86152523,-1.6852753 c 0.42215769,-0.1977789 0.70594063,-0.2352675 1.01534238,0.1360118 0.0580776,0.069685 0.15465251,0.214112 0.15465251,0.214112 0,0 0.19618981,0.1930669 0.31409991,0.2412092 0.0391882,0.015988 0.20618032,0.029087 0.15857686,0.06109 -0.20724431,0.13925911 -0.45418811,0.0445082 -0.63903324,-0.052108 -0.11650065,-0.060883 -0.18386404,-0.1991054 -0.25783249,-0.2950447 -0.13497549,-0.1750757 -0.51820613,-0.3034185 -0.7299054,-0.3008621"
       fill-opacity="0.587983"
       fill="#27279a"
       opacity="1"
       id="path79476"
       style="stroke-width:0.0138181" /><path
       d="M 3.0128712,0.09020239 C 2.907425,0.20960486 3.1915396,-0.11257866 3.3113151,-0.2057405 c 0.3261079,-0.25363177 0.6372231,-0.0526885 0.907865,0.15549542 0.1047,0.08053206 0.2711255,0.21574247 0.4012647,0.24576926 0.041523,0.00959 -0.183187,0.1579965 -0.4765044,0.12539953 C 3.7976857,0.28245404 3.3344743,-0.2739606 3.0128712,0.09020239 Z"
       fill-opacity="0.587983"
       fill="#27279a"
       opacity="1"
       id="path79478"
       style="stroke-width:0.0138181" /><path
       d="m -0.84989312,-0.48631762 c 0.0337356,-0.0674739 0.12011409,-0.11890501 0.19060175,-0.13041552 0.28504868,-0.0465256 0.41118057,0.30716322 0.57586504,0.40412503 0.09756982,0.0574281 0.10895596,0.12792825 0.09756982,0.12411445 -0.22511116,-0.07536408 -0.40351703,-0.09499965 -0.63832299,-0.16208667 -0.0700165,-0.0200086 -0.3901618,0.0132516 -0.3912355,0.010032"
       fill-opacity="0.587983"
       fill="#27279a"
       opacity="1"
       id="path79480"
       style="stroke-width:0.0138181" /><path
       d="M 2.2352559,1.6136374 C 2.1871826,1.7655125 2.3165065,1.3558878 2.3883055,1.2221974 2.5837768,0.8582417 2.9496256,0.91600148 3.2813712,0.99676845 3.409714,1.0280112 3.6166405,1.084251 3.7477884,1.0590053 3.7896435,1.0509632 3.6442768,1.2776358 3.3628706,1.3666107 3.0306965,1.4716423 2.3818524,1.1504537 2.2352559,1.6136374 Z"
       fill-opacity="0.587983"
       fill="#27279a"
       opacity="1"
       id="path79482"
       style="stroke-width:0.0138181" />

    
</g>
<g id="t00004f"><polygon
         points="0,0 -1.5,-0.8660254037844386 -1,-1.7320508075688772 1,-1.7320508075688772 1.5,-0.8660254037844386 3,-1.7320508075688772 4.5,-0.8660254037844386 4,0 3,0 3,1.7320508075688772 1.5,2.598076211353316 1,1.7320508075688772 0,1.7320508075688772"
         stroke="rgb( 0 0 0)"
         stroke-width="0.09999999999999998"
         fill="rgb(100, 210, 255)"
         id="polygon3941"
         style="stroke:none" 
          />
          
    <path
       d="m 0.52075759,-1.7261355 c 0,-0.066134 0.15795504,0.029764 0.51678421,0.1535609 0.02689,0.00927 0.2510616,0.61678601 0.283935,0.69896243 0.067985,0.16999063 0.1462787,0.36883352 0.3193508,0.40728938 0.050298,0.0111789 0.4142261,0.16482265 0.4046086,0.14662418 -0.2429641,-0.45971537 0.01806,-0.80042899 0.4470304,-0.73443359 0.1677797,0.025812 0.2818622,0.36975932 0.2175388,0.50912898 -0.042933,0.0930237 -0.083752,0.16700592 -0.1718285,0.2110443 -0.00308,0.001548 -0.058423,0.0111236 -0.054968,0.0111236 0.4348289,0 1.2111729,-0.89973988 1.3409113,-0.85194298 0.04209,0.015518 0.3262876,0.32526496 0.3623529,0.36133028 0.012906,0.0129061 -0.262047,0.1532016 -0.3748997,0.22216789 -0.234812,0.14348745 -0.4941921,0.3389449 -0.703523,0.51838714 C 2.9544896,0.05872469 2.6250377,0.31156884 2.5572598,0.51491644 2.4695423,0.77805509 2.3904059,1.0707922 2.2656696,1.3202647 2.1980713,1.4554475 2.073791,1.6606052 1.950934,1.7506994 1.884814,1.7992014 1.7657987,1.9127032 1.7657987,1.9127032 c 0,0 0.00976,-0.2880942 -0.00463,-0.3887869 C 1.7257953,1.2763092 1.7227691,0.93997594 1.611768,0.7144226 1.3827049,0.24902798 1.4490872,0.46582062 1.2939096,0.22534371 c 0,0 -0.2328908,-0.3989156 -0.23401,-0.71449405 C 1.0595818,-0.57827728 0.9532236,-0.79645173 0.91417357,-0.86389803 0.86359921,-0.95124243 0.52075759,-1.7035843 0.52075759,-1.7261355 Z"
       opacity="1"
       fill="#27279a"
       id="path79468"
       style="stroke-width:0.0138181" /><path
       d="m 0.91417357,2.7180514 c -0.0435271,0.00543 -0.0282443,-0.00417 -0.0509198,0.018516"
       stroke="#2a2421"
       stroke-width="0.0276363"
       fill="#27279a"
       opacity="1"
       stroke-linejoin="round"
       id="path79470" /><path
       d="M 1.4669126,0.58650817 C 1.362641,0.44905923 0.88939766,-0.07879333 0.81569176,-0.16353993 0.53838952,-0.48246237 0.27085671,-0.82439199 -0.09134411,-1.0531511 c -0.15969613,-0.1008586 -0.32367588,-0.2128131 -0.50585825,-0.2674638 -0.0418827,-0.012561 -0.1279172,-0.029073 -0.1279172,-0.029073 0,0 0.42849331,0.44191761 0.53492054,0.60469518 0.10193635,0.15589614 0.6454034,1.42014449 0.6454034,1.55245309 0,0.0242785 -0.27492551,0.54103503 -0.38956072,0.77913523 -0.0624994,0.1297937 -0.12791443,0.4128167 -0.12791443,0.4128167 0,0 0.2305555,-0.1989673 0.31397555,-0.2907197 C 0.41437181,1.5297475 0.75588689,1.4466591 0.99013183,1.4412286 1.4490872,1.4306025 1.6284465,2.034358 1.6284465,1.999412 c 0,-0.4025913 0.077119,-1.09829265 -0.1615339,-1.41290383 z"
       opacity="1"
       fill="#27279a"
       id="path79473"
       style="stroke-width:0.0138181" /><path
       d="m -0.86152523,-1.6852753 c 0.42215769,-0.1977789 0.70594063,-0.2352675 1.01534238,0.1360118 0.0580776,0.069685 0.15465251,0.214112 0.15465251,0.214112 0,0 0.19618981,0.1930669 0.31409991,0.2412092 0.0391882,0.015988 0.20618032,0.029087 0.15857686,0.06109 -0.20724431,0.13925911 -0.45418811,0.0445082 -0.63903324,-0.052108 -0.11650065,-0.060883 -0.18386404,-0.1991054 -0.25783249,-0.2950447 -0.13497549,-0.1750757 -0.51820613,-0.3034185 -0.7299054,-0.3008621"
       fill-opacity="0.587983"
       fill="#27279a"
       opacity="1"
       id="path79476"
       style="stroke-width:0.0138181" /><path
       d="M 3.0128712,0.09020239 C 2.907425,0.20960486 3.1915396,-0.11257866 3.3113151,-0.2057405 c 0.3261079,-0.25363177 0.6372231,-0.0526885 0.907865,0.15549542 0.1047,0.08053206 0.2711255,0.21574247 0.4012647,0.24576926 0.041523,0.00959 -0.183187,0.1579965 -0.4765044,0.12539953 C 3.7976857,0.28245404 3.3344743,-0.2739606 3.0128712,0.09020239 Z"
       fill-opacity="0.587983"
       fill="#27279a"
       opacity="1"
       id="path79478"
       style="stroke-width:0.0138181" /><path
       d="m -0.84989312,-0.48631762 c 0.0337356,-0.0674739 0.12011409,-0.11890501 0.19060175,-0.13041552 0.28504868,-0.0465256 0.41118057,0.30716322 0.57586504,0.40412503 0.09756982,0.0574281 0.10895596,0.12792825 0.09756982,0.12411445 -0.22511116,-0.07536408 -0.40351703,-0.09499965 -0.63832299,-0.16208667 -0.0700165,-0.0200086 -0.3901618,0.0132516 -0.3912355,0.010032"
       fill-opacity="0.587983"
       fill="#27279a"
       opacity="1"
       id="path79480"
       style="stroke-width:0.0138181" /><path
       d="M 2.2352559,1.6136374 C 2.1871826,1.7655125 2.3165065,1.3558878 2.3883055,1.2221974 2.5837768,0.8582417 2.9496256,0.91600148 3.2813712,0.99676845 3.409714,1.0280112 3.6166405,1.084251 3.7477884,1.0590053 3.7896435,1.0509632 3.6442768,1.2776358 3.3628706,1.3666107 3.0306965,1.4716423 2.3818524,1.1504537 2.2352559,1.6136374 Z"
       fill-opacity="0.587983"
       fill="#27279a"
       opacity="1"
       id="path79482"
       style="stroke-width:0.0138181" />

    
</g>
<g id="t00006f"><polygon
         points="0,0 -1.5,-0.8660254037844386 -1,-1.7320508075688772 1,-1.7320508075688772 1.5,-0.8660254037844386 3,-1.7320508075688772 4.5,-0.8660254037844386 4,0 3,0 3,1.7320508075688772 1.5,2.598076211353316 1,1.7320508075688772 0,1.7320508075688772"
         stroke="rgb( 0 0 0)"
         stroke-width="0.09999999999999998"
         fill="rgb(200, 240, 255)"
         id="polygon3941"
         style="stroke:none" 
          />
          
    <path
       d="m 0.52075759,-1.7261355 c 0,-0.066134 0.15795504,0.029764 0.51678421,0.1535609 0.02689,0.00927 0.2510616,0.61678601 0.283935,0.69896243 0.067985,0.16999063 0.1462787,0.36883352 0.3193508,0.40728938 0.050298,0.0111789 0.4142261,0.16482265 0.4046086,0.14662418 -0.2429641,-0.45971537 0.01806,-0.80042899 0.4470304,-0.73443359 0.1677797,0.025812 0.2818622,0.36975932 0.2175388,0.50912898 -0.042933,0.0930237 -0.083752,0.16700592 -0.1718285,0.2110443 -0.00308,0.001548 -0.058423,0.0111236 -0.054968,0.0111236 0.4348289,0 1.2111729,-0.89973988 1.3409113,-0.85194298 0.04209,0.015518 0.3262876,0.32526496 0.3623529,0.36133028 0.012906,0.0129061 -0.262047,0.1532016 -0.3748997,0.22216789 -0.234812,0.14348745 -0.4941921,0.3389449 -0.703523,0.51838714 C 2.9544896,0.05872469 2.6250377,0.31156884 2.5572598,0.51491644 2.4695423,0.77805509 2.3904059,1.0707922 2.2656696,1.3202647 2.1980713,1.4554475 2.073791,1.6606052 1.950934,1.7506994 1.884814,1.7992014 1.7657987,1.9127032 1.7657987,1.9127032 c 0,0 0.00976,-0.2880942 -0.00463,-0.3887869 C 1.7257953,1.2763092 1.7227691,0.93997594 1.611768,0.7144226 1.3827049,0.24902798 1.4490872,0.46582062 1.2939096,0.22534371 c 0,0 -0.2328908,-0.3989156 -0.23401,-0.71449405 C 1.0595818,-0.57827728 0.9532236,-0.79645173 0.91417357,-0.86389803 0.86359921,-0.95124243 0.52075759,-1.7035843 0.52075759,-1.7261355 Z"
       opacity="1"
       fill="#27279a"
       id="path79468"
       style="stroke-width:0.0138181" /><path
       d="m 0.91417357,2.7180514 c -0.0435271,0.00543 -0.0282443,-0.00417 -0.0509198,0.018516"
       stroke="#2a2421"
       stroke-width="0.0276363"
       fill="#27279a"
       opacity="1"
       stroke-linejoin="round"
       id="path79470" /><path
       d="M 1.4669126,0.58650817 C 1.362641,0.44905923 0.88939766,-0.07879333 0.81569176,-0.16353993 0.53838952,-0.48246237 0.27085671,-0.82439199 -0.09134411,-1.0531511 c -0.15969613,-0.1008586 -0.32367588,-0.2128131 -0.50585825,-0.2674638 -0.0418827,-0.012561 -0.1279172,-0.029073 -0.1279172,-0.029073 0,0 0.42849331,0.44191761 0.53492054,0.60469518 0.10193635,0.15589614 0.6454034,1.42014449 0.6454034,1.55245309 0,0.0242785 -0.27492551,0.54103503 -0.38956072,0.77913523 -0.0624994,0.1297937 -0.12791443,0.4128167 -0.12791443,0.4128167 0,0 0.2305555,-0.1989673 0.31397555,-0.2907197 C 0.41437181,1.5297475 0.75588689,1.4466591 0.99013183,1.4412286 1.4490872,1.4306025 1.6284465,2.034358 1.6284465,1.999412 c 0,-0.4025913 0.077119,-1.09829265 -0.1615339,-1.41290383 z"
       opacity="1"
       fill="#27279a"
       id="path79473"
       style="stroke-width:0.0138181" /><path
       d="m -0.86152523,-1.6852753 c 0.42215769,-0.1977789 0.70594063,-0.2352675 1.01534238,0.1360118 0.0580776,0.069685 0.15465251,0.214112 0.15465251,0.214112 0,0 0.19618981,0.1930669 0.31409991,0.2412092 0.0391882,0.015988 0.20618032,0.029087 0.15857686,0.06109 -0.20724431,0.13925911 -0.45418811,0.0445082 -0.63903324,-0.052108 -0.11650065,-0.060883 -0.18386404,-0.1991054 -0.25783249,-0.2950447 -0.13497549,-0.1750757 -0.51820613,-0.3034185 -0.7299054,-0.3008621"
       fill-opacity="0.587983"
       fill="#27279a"
       opacity="1"
       id="path79476"
       style="stroke-width:0.0138181" /><path
       d="M 3.0128712,0.09020239 C 2.907425,0.20960486 3.1915396,-0.11257866 3.3113151,-0.2057405 c 0.3261079,-0.25363177 0.6372231,-0.0526885 0.907865,0.15549542 0.1047,0.08053206 0.2711255,0.21574247 0.4012647,0.24576926 0.041523,0.00959 -0.183187,0.1579965 -0.4765044,0.12539953 C 3.7976857,0.28245404 3.3344743,-0.2739606 3.0128712,0.09020239 Z"
       fill-opacity="0.587983"
       fill="#27279a"
       opacity="1"
       id="path79478"
       style="stroke-width:0.0138181" /><path
       d="m -0.84989312,-0.48631762 c 0.0337356,-0.0674739 0.12011409,-0.11890501 0.19060175,-0.13041552 0.28504868,-0.0465256 0.41118057,0.30716322 0.57586504,0.40412503 0.09756982,0.0574281 0.10895596,0.12792825 0.09756982,0.12411445 -0.22511116,-0.07536408 -0.40351703,-0.09499965 -0.63832299,-0.16208667 -0.0700165,-0.0200086 -0.3901618,0.0132516 -0.3912355,0.010032"
       fill-opacity="0.587983"
       fill="#27279a"
       opacity="1"
       id="path79480"
       style="stroke-width:0.0138181" /><path
       d="M 2.2352559,1.6136374 C 2.1871826,1.7655125 2.3165065,1.3558878 2.3883055,1.2221974 2.5837768,0.8582417 2.9496256,0.91600148 3.2813712,0.99676845 3.409714,1.0280112 3.6166405,1.084251 3.7477884,1.0590053 3.7896435,1.0509632 3.6442768,1.2776358 3.3628706,1.3666107 3.0306965,1.4716423 2.3818524,1.1504537 2.2352559,1.6136374 Z"
       fill-opacity="0.587983"
       fill="#27279a"
       opacity="1"
       id="path79482"
       style="stroke-width:0.0138181" />

    
</g>
<g id="t00008f"><polygon
         points="0,0 -1.5,-0.8660254037844386 -1,-1.7320508075688772 1,-1.7320508075688772 1.5,-0.8660254037844386 3,-1.7320508075688772 4.5,-0.8660254037844386 4,0 3,0 3,1.7320508075688772 1.5,2.598076211353316 1,1.7320508075688772 0,1.7320508075688772"
         stroke="rgb( 0 0 0)"
         stroke-width="0.09999999999999998"
         fill="rgb(200, 220, 255)"
         id="polygon3941"
         style="stroke:none" 
          />
          
    <path
       d="m 0.52075759,-1.7261355 c 0,-0.066134 0.15795504,0.029764 0.51678421,0.1535609 0.02689,0.00927 0.2510616,0.61678601 0.283935,0.69896243 0.067985,0.16999063 0.1462787,0.36883352 0.3193508,0.40728938 0.050298,0.0111789 0.4142261,0.16482265 0.4046086,0.14662418 -0.2429641,-0.45971537 0.01806,-0.80042899 0.4470304,-0.73443359 0.1677797,0.025812 0.2818622,0.36975932 0.2175388,0.50912898 -0.042933,0.0930237 -0.083752,0.16700592 -0.1718285,0.2110443 -0.00308,0.001548 -0.058423,0.0111236 -0.054968,0.0111236 0.4348289,0 1.2111729,-0.89973988 1.3409113,-0.85194298 0.04209,0.015518 0.3262876,0.32526496 0.3623529,0.36133028 0.012906,0.0129061 -0.262047,0.1532016 -0.3748997,0.22216789 -0.234812,0.14348745 -0.4941921,0.3389449 -0.703523,0.51838714 C 2.9544896,0.05872469 2.6250377,0.31156884 2.5572598,0.51491644 2.4695423,0.77805509 2.3904059,1.0707922 2.2656696,1.3202647 2.1980713,1.4554475 2.073791,1.6606052 1.950934,1.7506994 1.884814,1.7992014 1.7657987,1.9127032 1.7657987,1.9127032 c 0,0 0.00976,-0.2880942 -0.00463,-0.3887869 C 1.7257953,1.2763092 1.7227691,0.93997594 1.611768,0.7144226 1.3827049,0.24902798 1.4490872,0.46582062 1.2939096,0.22534371 c 0,0 -0.2328908,-0.3989156 -0.23401,-0.71449405 C 1.0595818,-0.57827728 0.9532236,-0.79645173 0.91417357,-0.86389803 0.86359921,-0.95124243 0.52075759,-1.7035843 0.52075759,-1.7261355 Z"
       opacity="1"
       fill="#27279a"
       id="path79468"
       style="stroke-width:0.0138181" /><path
       d="m 0.91417357,2.7180514 c -0.0435271,0.00543 -0.0282443,-0.00417 -0.0509198,0.018516"
       stroke="#2a2421"
       stroke-width="0.0276363"
       fill="#27279a"
       opacity="1"
       stroke-linejoin="round"
       id="path79470" /><path
       d="M 1.4669126,0.58650817 C 1.362641,0.44905923 0.88939766,-0.07879333 0.81569176,-0.16353993 0.53838952,-0.48246237 0.27085671,-0.82439199 -0.09134411,-1.0531511 c -0.15969613,-0.1008586 -0.32367588,-0.2128131 -0.50585825,-0.2674638 -0.0418827,-0.012561 -0.1279172,-0.029073 -0.1279172,-0.029073 0,0 0.42849331,0.44191761 0.53492054,0.60469518 0.10193635,0.15589614 0.6454034,1.42014449 0.6454034,1.55245309 0,0.0242785 -0.27492551,0.54103503 -0.38956072,0.77913523 -0.0624994,0.1297937 -0.12791443,0.4128167 -0.12791443,0.4128167 0,0 0.2305555,-0.1989673 0.31397555,-0.2907197 C 0.41437181,1.5297475 0.75588689,1.4466591 0.99013183,1.4412286 1.4490872,1.4306025 1.6284465,2.034358 1.6284465,1.999412 c 0,-0.4025913 0.077119,-1.09829265 -0.1615339,-1.41290383 z"
       opacity="1"
       fill="#27279a"
       id="path79473"
       style="stroke-width:0.0138181" /><path
       d="m -0.86152523,-1.6852753 c 0.42215769,-0.1977789 0.70594063,-0.2352675 1.01534238,0.1360118 0.0580776,0.069685 0.15465251,0.214112 0.15465251,0.214112 0,0 0.19618981,0.1930669 0.31409991,0.2412092 0.0391882,0.015988 0.20618032,0.029087 0.15857686,0.06109 -0.20724431,0.13925911 -0.45418811,0.0445082 -0.63903324,-0.052108 -0.11650065,-0.060883 -0.18386404,-0.1991054 -0.25783249,-0.2950447 -0.13497549,-0.1750757 -0.51820613,-0.3034185 -0.7299054,-0.3008621"
       fill-opacity="0.587983"
       fill="#27279a"
       opacity="1"
       id="path79476"
       style="stroke-width:0.0138181" /><path
       d="M 3.0128712,0.09020239 C 2.907425,0.20960486 3.1915396,-0.11257866 3.3113151,-0.2057405 c 0.3261079,-0.25363177 0.6372231,-0.0526885 0.907865,0.15549542 0.1047,0.08053206 0.2711255,0.21574247 0.4012647,0.24576926 0.041523,0.00959 -0.183187,0.1579965 -0.4765044,0.12539953 C 3.7976857,0.28245404 3.3344743,-0.2739606 3.0128712,0.09020239 Z"
       fill-opacity="0.587983"
       fill="#27279a"
       opacity="1"
       id="path79478"
       style="stroke-width:0.0138181" /><path
       d="m -0.84989312,-0.48631762 c 0.0337356,-0.0674739 0.12011409,-0.11890501 0.19060175,-0.13041552 0.28504868,-0.0465256 0.41118057,0.30716322 0.57586504,0.40412503 0.09756982,0.0574281 0.10895596,0.12792825 0.09756982,0.12411445 -0.22511116,-0.07536408 -0.40351703,-0.09499965 -0.63832299,-0.16208667 -0.0700165,-0.0200086 -0.3901618,0.0132516 -0.3912355,0.010032"
       fill-opacity="0.587983"
       fill="#27279a"
       opacity="1"
       id="path79480"
       style="stroke-width:0.0138181" /><path
       d="M 2.2352559,1.6136374 C 2.1871826,1.7655125 2.3165065,1.3558878 2.3883055,1.2221974 2.5837768,0.8582417 2.9496256,0.91600148 3.2813712,0.99676845 3.409714,1.0280112 3.6166405,1.084251 3.7477884,1.0590053 3.7896435,1.0509632 3.6442768,1.2776358 3.3628706,1.3666107 3.0306965,1.4716423 2.3818524,1.1504537 2.2352559,1.6136374 Z"
       fill-opacity="0.587983"
       fill="#27279a"
       opacity="1"
       id="path79482"
       style="stroke-width:0.0138181" />

    
</g>
<g id="t00010f"><polygon
         points="0,0 -1.5,-0.8660254037844386 -1,-1.7320508075688772 1,-1.7320508075688772 1.5,-0.8660254037844386 3,-1.7320508075688772 4.5,-0.8660254037844386 4,0 3,0 3,1.7320508075688772 1.5,2.598076211353316 1,1.7320508075688772 0,1.7320508075688772"
         stroke="rgb( 0 0 0)"
         stroke-width="0.09999999999999998"
         fill="rgb(220, 250, 255)"
         id="polygon3941"
         style="stroke:none" 
          />
          
    <path
       d="m 0.52075759,-1.7261355 c 0,-0.066134 0.15795504,0.029764 0.51678421,0.1535609 0.02689,0.00927 0.2510616,0.61678601 0.283935,0.69896243 0.067985,0.16999063 0.1462787,0.36883352 0.3193508,0.40728938 0.050298,0.0111789 0.4142261,0.16482265 0.4046086,0.14662418 -0.2429641,-0.45971537 0.01806,-0.80042899 0.4470304,-0.73443359 0.1677797,0.025812 0.2818622,0.36975932 0.2175388,0.50912898 -0.042933,0.0930237 -0.083752,0.16700592 -0.1718285,0.2110443 -0.00308,0.001548 -0.058423,0.0111236 -0.054968,0.0111236 0.4348289,0 1.2111729,-0.89973988 1.3409113,-0.85194298 0.04209,0.015518 0.3262876,0.32526496 0.3623529,0.36133028 0.012906,0.0129061 -0.262047,0.1532016 -0.3748997,0.22216789 -0.234812,0.14348745 -0.4941921,0.3389449 -0.703523,0.51838714 C 2.9544896,0.05872469 2.6250377,0.31156884 2.5572598,0.51491644 2.4695423,0.77805509 2.3904059,1.0707922 2.2656696,1.3202647 2.1980713,1.4554475 2.073791,1.6606052 1.950934,1.7506994 1.884814,1.7992014 1.7657987,1.9127032 1.7657987,1.9127032 c 0,0 0.00976,-0.2880942 -0.00463,-0.3887869 C 1.7257953,1.2763092 1.7227691,0.93997594 1.611768,0.7144226 1.3827049,0.24902798 1.4490872,0.46582062 1.2939096,0.22534371 c 0,0 -0.2328908,-0.3989156 -0.23401,-0.71449405 C 1.0595818,-0.57827728 0.9532236,-0.79645173 0.91417357,-0.86389803 0.86359921,-0.95124243 0.52075759,-1.7035843 0.52075759,-1.7261355 Z"
       opacity="1"
       fill="#27279a"
       id="path79468"
       style="stroke-width:0.0138181" /><path
       d="m 0.91417357,2.7180514 c -0.0435271,0.00543 -0.0282443,-0.00417 -0.0509198,0.018516"
       stroke="#2a2421"
       stroke-width="0.0276363"
       fill="#27279a"
       opacity="1"
       stroke-linejoin="round"
       id="path79470" /><path
       d="M 1.4669126,0.58650817 C 1.362641,0.44905923 0.88939766,-0.07879333 0.81569176,-0.16353993 0.53838952,-0.48246237 0.27085671,-0.82439199 -0.09134411,-1.0531511 c -0.15969613,-0.1008586 -0.32367588,-0.2128131 -0.50585825,-0.2674638 -0.0418827,-0.012561 -0.1279172,-0.029073 -0.1279172,-0.029073 0,0 0.42849331,0.44191761 0.53492054,0.60469518 0.10193635,0.15589614 0.6454034,1.42014449 0.6454034,1.55245309 0,0.0242785 -0.27492551,0.54103503 -0.38956072,0.77913523 -0.0624994,0.1297937 -0.12791443,0.4128167 -0.12791443,0.4128167 0,0 0.2305555,-0.1989673 0.31397555,-0.2907197 C 0.41437181,1.5297475 0.75588689,1.4466591 0.99013183,1.4412286 1.4490872,1.4306025 1.6284465,2.034358 1.6284465,1.999412 c 0,-0.4025913 0.077119,-1.09829265 -0.1615339,-1.41290383 z"
       opacity="1"
       fill="#27279a"
       id="path79473"
       style="stroke-width:0.0138181" /><path
       d="m -0.86152523,-1.6852753 c 0.42215769,-0.1977789 0.70594063,-0.2352675 1.01534238,0.1360118 0.0580776,0.069685 0.15465251,0.214112 0.15465251,0.214112 0,0 0.19618981,0.1930669 0.31409991,0.2412092 0.0391882,0.015988 0.20618032,0.029087 0.15857686,0.06109 -0.20724431,0.13925911 -0.45418811,0.0445082 -0.63903324,-0.052108 -0.11650065,-0.060883 -0.18386404,-0.1991054 -0.25783249,-0.2950447 -0.13497549,-0.1750757 -0.51820613,-0.3034185 -0.7299054,-0.3008621"
       fill-opacity="0.587983"
       fill="#27279a"
       opacity="1"
       id="path79476"
       style="stroke-width:0.0138181" /><path
       d="M 3.0128712,0.09020239 C 2.907425,0.20960486 3.1915396,-0.11257866 3.3113151,-0.2057405 c 0.3261079,-0.25363177 0.6372231,-0.0526885 0.907865,0.15549542 0.1047,0.08053206 0.2711255,0.21574247 0.4012647,0.24576926 0.041523,0.00959 -0.183187,0.1579965 -0.4765044,0.12539953 C 3.7976857,0.28245404 3.3344743,-0.2739606 3.0128712,0.09020239 Z"
       fill-opacity="0.587983"
       fill="#27279a"
       opacity="1"
       id="path79478"
       style="stroke-width:0.0138181" /><path
       d="m -0.84989312,-0.48631762 c 0.0337356,-0.0674739 0.12011409,-0.11890501 0.19060175,-0.13041552 0.28504868,-0.0465256 0.41118057,0.30716322 0.57586504,0.40412503 0.09756982,0.0574281 0.10895596,0.12792825 0.09756982,0.12411445 -0.22511116,-0.07536408 -0.40351703,-0.09499965 -0.63832299,-0.16208667 -0.0700165,-0.0200086 -0.3901618,0.0132516 -0.3912355,0.010032"
       fill-opacity="0.587983"
       fill="#27279a"
       opacity="1"
       id="path79480"
       style="stroke-width:0.0138181" /><path
       d="M 2.2352559,1.6136374 C 2.1871826,1.7655125 2.3165065,1.3558878 2.3883055,1.2221974 2.5837768,0.8582417 2.9496256,0.91600148 3.2813712,0.99676845 3.409714,1.0280112 3.6166405,1.084251 3.7477884,1.0590053 3.7896435,1.0509632 3.6442768,1.2776358 3.3628706,1.3666107 3.0306965,1.4716423 2.3818524,1.1504537 2.2352559,1.6136374 Z"
       fill-opacity="0.587983"
       fill="#27279a"
       opacity="1"
       id="path79482"
       style="stroke-width:0.0138181" />

    
</g><g id="t00002s">
    <use xlink:href="#t00003s" transform="matrix(-0.24999999999999997 -0.4330127018922194 0.4330127018922194 -0.24999999999999997 1 1.7320508075688774)"/>
    <use xlink:href="#t00003s" transform="matrix(-0.25 -0.4330127018922193 0.4330127018922193 -0.25 4 1.7320508075688772)"/>
    <use xlink:href="#t00003s" transform="matrix(-0.25000000000000006 0.43301270189221935 -0.43301270189221935 -0.25000000000000006 2.5 2.598076211353315)"/>
    <use xlink:href="#t00004s" transform="matrix(-0.25 0.4330127018922193 0.4330127018922193 0.25 2.5 0.8660254037844386)"/>
    <polygon points="0,0 4,0 4.5,0.8660254037844386 2.5,4.330127018922193 1.5,4.330127018922193 -0.5,0.8660254037844386" fill="none" stroke="rgb(0,0,0)" stroke-width="0.1"/>
  </g>
<g id="t00002f">
    <use xlink:href="#t00003f" transform="matrix(-0.24999999999999997 -0.4330127018922194 0.4330127018922194 -0.24999999999999997 1 1.7320508075688774)"/>
    <use xlink:href="#t00003f" transform="matrix(-0.25 -0.4330127018922193 0.4330127018922193 -0.25 4 1.7320508075688772)"/>
    <use xlink:href="#t00003f" transform="matrix(-0.25000000000000006 0.43301270189221935 -0.43301270189221935 -0.25000000000000006 2.5 2.598076211353315)"/>
    <use xlink:href="#t00004f" transform="matrix(-0.25 0.4330127018922193 0.4330127018922193 0.25 2.5 0.8660254037844386)"/>
  </g>
<g id="t00005s">
    <use xlink:href="#t00006s" transform="matrix(0.5 0 0 0.5 0.5 0.8660254037844386)"/>
    <polygon points="0,0 3,0 1.5,2.598076211353316" fill="none" stroke="rgb(0,0,0)" stroke-width="0.10000000000000007"/>
  </g>
<g id="t00005f">
    <use xlink:href="#t00006f" transform="matrix(0.5 0 0 0.5 0.5 0.8660254037844386)"/>
  </g>
<g id="t00007s">
    <use xlink:href="#t00008s" transform="matrix(0.5 0 0 0.5 1.5 0.8660254037844386)"/>
    <use xlink:href="#t00008s" transform="matrix(0.25 -0.4330127018922193 0.4330127018922193 0.25 0 1.7320508075688772)"/>
    <polygon points="0,0 4,0 3,1.7320508075688772 -1,1.7320508075688772" fill="none" stroke="rgb(0,0,0)" stroke-width="0.09999999999999998"/>
  </g>
<g id="t00007f">
    <use xlink:href="#t00008f" transform="matrix(0.5 0 0 0.5 1.5 0.8660254037844386)"/>
    <use xlink:href="#t00008f" transform="matrix(0.25 -0.4330127018922193 0.4330127018922193 0.25 0 1.7320508075688772)"/>
  </g>
<g id="t00009s">
    <use xlink:href="#t00010s" transform="matrix(0.5 0 0 0.5 1.5 0.8660254037844386)"/>
    <use xlink:href="#t00010s" transform="matrix(0.25 -0.4330127018922193 0.4330127018922193 0.25 0 1.7320508075688772)"/>
    <polygon points="0,0 3,0 3.5,0.8660254037844386 3,1.7320508075688772 -1,1.7320508075688772" fill="none" stroke="rgb(0,0,0)" stroke-width="0.1"/>
  </g>
<g id="t00009f">
    <use xlink:href="#t00010f" transform="matrix(0.5 0 0 0.5 1.5 0.8660254037844386)"/>
    <use xlink:href="#t00010f" transform="matrix(0.25 -0.4330127018922193 0.4330127018922193 0.25 0 1.7320508075688772)"/>
  </g>
<g id="t00001s">
    <use xlink:href="#t00002s" transform="matrix(1 0 0 1 -4.499999999999998 -2.5980762113533156)"/>
    <use xlink:href="#t00002s" transform="matrix(1 2.7755575615628914e-16 -2.7755575615628914e-16 1 1.7763568394002505e-15 -3.4641016151377553)"/>
    <use xlink:href="#t00002s" transform="matrix(-0.49999999999999994 -0.8660254037844388 0.8660254037844388 -0.49999999999999994 -3.552713678800501e-15 5.196152422706632)"/>
    <use xlink:href="#t00005s" transform="matrix(-0.9999999999999993 0 0 -0.9999999999999993 1.5000000000000009 0.866025403784437)"/>
    <use xlink:href="#t00007s" transform="matrix(-0.5 -0.8660254037844388 0.8660254037844388 -0.5 -2.0000000000000036 5.196152422706632)"/>
    <use xlink:href="#t00009s" transform="matrix(-0.5 -0.8660254037844386 0.8660254037844386 -0.5 -4.999999999999998 1.7320508075688772)"/>
    <use xlink:href="#t00007s" transform="matrix(1 0 0 1 -3.4999999999999982 -4.330127018922193)"/>
    <use xlink:href="#t00009s" transform="matrix(1 2.9605947323337506e-16 -2.9605947323337506e-16 1 1.0000000000000018 -5.196152422706632)"/>
    <use xlink:href="#t00007s" transform="matrix(0.5000000000000004 -0.8660254037844384 0.8660254037844384 0.5000000000000004 2.5 0.8660254037844379)"/>
    <use xlink:href="#t00009s" transform="matrix(-0.5000000000000001 0.8660254037844387 -0.8660254037844387 -0.5000000000000001 3.9999999999999964 3.464101615137754)"/>
    <polygon points="-5.280821917808215,-3.3336046364853096 4.500000000000002,-4.330127018922193 5.527397260273977,-2.906523615440919 1.4999999999999964,6.0621778264910695 -0.2465753424657624,6.240128251926228 -5.999999999999998,-1.7320508075688772" fill="none" stroke="rgb(0,0,0)" stroke-width="0.2"/>
  </g>
<g id="t00001f">
    <use xlink:href="#t00002f" transform="matrix(1 0 0 1 -4.499999999999998 -2.5980762113533156)"/>
    <use xlink:href="#t00002f" transform="matrix(1 2.7755575615628914e-16 -2.7755575615628914e-16 1 1.7763568394002505e-15 -3.4641016151377553)"/>
    <use xlink:href="#t00002f" transform="matrix(-0.49999999999999994 -0.8660254037844388 0.8660254037844388 -0.49999999999999994 -3.552713678800501e-15 5.196152422706632)"/>
    <use xlink:href="#t00005f" transform="matrix(-0.9999999999999993 0 0 -0.9999999999999993 1.5000000000000009 0.866025403784437)"/>
    <use xlink:href="#t00007f" transform="matrix(-0.5 -0.8660254037844388 0.8660254037844388 -0.5 -2.0000000000000036 5.196152422706632)"/>
    <use xlink:href="#t00009f" transform="matrix(-0.5 -0.8660254037844386 0.8660254037844386 -0.5 -4.999999999999998 1.7320508075688772)"/>
    <use xlink:href="#t00007f" transform="matrix(1 0 0 1 -3.4999999999999982 -4.330127018922193)"/>
    <use xlink:href="#t00009f" transform="matrix(1 2.9605947323337506e-16 -2.9605947323337506e-16 1 1.0000000000000018 -5.196152422706632)"/>
    <use xlink:href="#t00007f" transform="matrix(0.5000000000000004 -0.8660254037844384 0.8660254037844384 0.5000000000000004 2.5 0.8660254037844379)"/>
    <use xlink:href="#t00009f" transform="matrix(-0.5000000000000001 0.8660254037844387 -0.8660254037844387 -0.5000000000000001 3.9999999999999964 3.464101615137754)"/>
  </g>
<g id="t00011s">
    <use xlink:href="#t00002s" transform="matrix(0.5000000000000007 -0.8660254037844384 0.8660254037844384 0.5000000000000007 -2.500000000000001 0.866025403784441)"/>
    <polygon points="4.253424657534238,1.9100012330040377 -3.7808219178082174,2.728573190005757 -0.47260273972602285,-4.638574423009794" fill="none" stroke="rgb(0,0,0)" stroke-width="0.2"/>
  </g>
<g id="t00011f">
    <use xlink:href="#t00002f" transform="matrix(0.5000000000000007 -0.8660254037844384 0.8660254037844384 0.5000000000000007 -2.500000000000001 0.866025403784441)"/>
  </g>
<g id="t00012s">
    <use xlink:href="#t00009s" transform="matrix(0.5 -0.8660254037844387 0.8660254037844387 0.5 -6 0)"/>
    <use xlink:href="#t00002s" transform="matrix(0.5000000000000001 0.8660254037844387 -0.8660254037844387 0.5000000000000001 -2 -1.7320508075688776)"/>
    <use xlink:href="#t00007s" transform="matrix(0.5 0.8660254037844387 -0.8660254037844387 0.5 0 -1.7320508075688776)"/>
    <use xlink:href="#t00002s" transform="matrix(-0.5 0.8660254037844388 -0.8660254037844388 -0.5 5 -1.7320508075688776)"/>
    <use xlink:href="#t00009s" transform="matrix(-0.5 0.8660254037844388 -0.8660254037844388 -0.5 6 0)"/>
    <polygon points="-3.5,-2.598076211353317 6.2808219178082165,-3.5945985937902005 3.5,2.5980762113533165 -6.2808219178082165,3.5945985937901996" fill="none" stroke="rgb(0,0,0)" stroke-width="0.19999999999999982"/>
  </g>
<g id="t00012f">
    <use xlink:href="#t00009f" transform="matrix(0.5 -0.8660254037844387 0.8660254037844387 0.5 -6 0)"/>
    <use xlink:href="#t00002f" transform="matrix(0.5000000000000001 0.8660254037844387 -0.8660254037844387 0.5000000000000001 -2 -1.7320508075688776)"/>
    <use xlink:href="#t00007f" transform="matrix(0.5 0.8660254037844387 -0.8660254037844387 0.5 0 -1.7320508075688776)"/>
    <use xlink:href="#t00002f" transform="matrix(-0.5 0.8660254037844388 -0.8660254037844388 -0.5 5 -1.7320508075688776)"/>
    <use xlink:href="#t00009f" transform="matrix(-0.5 0.8660254037844388 -0.8660254037844388 -0.5 6 0)"/>
  </g>
<g id="t00013s">
    <use xlink:href="#t00009s" transform="matrix(0.5 -0.8660254037844386 0.8660254037844386 0.5 -6.943835616438356 -0.026099395730489583)"/>
    <use xlink:href="#t00002s" transform="matrix(0.49999999999999994 0.8660254037844388 -0.8660254037844388 0.49999999999999994 -2.9438356164383563 -1.7581502032993672)"/>
    <use xlink:href="#t00007s" transform="matrix(0.5 0.8660254037844388 -0.8660254037844388 0.5 -0.9438356164383563 -1.7581502032993672)"/>
    <use xlink:href="#t00002s" transform="matrix(-0.5000000000000002 0.8660254037844388 -0.8660254037844388 -0.5000000000000002 4.056164383561644 -1.7581502032993672)"/>
    <use xlink:href="#t00009s" transform="matrix(1 0 0 1 0.5561643835616437 -4.356226414652683)"/>
    <use xlink:href="#t00009s" transform="matrix(-0.5 0.8660254037844388 -0.8660254037844388 -0.5 5.056164383561644 -0.026099395730489583)"/>
    <polygon points="-4.443835616438356,-2.6241756070838047 4.056164383561644,-3.490201010868244 5.056164383561644,-0.026099395730489583 2.5561643835616437,2.5719768156228273 -7.224657534246573,3.5684991980597105" fill="none" stroke="rgb(0,0,0)" stroke-width="0.20000000000000007"/>
  </g>
<g id="t00013f">
    <use xlink:href="#t00009f" transform="matrix(0.5 -0.8660254037844386 0.8660254037844386 0.5 -6.943835616438356 -0.026099395730489583)"/>
    <use xlink:href="#t00002f" transform="matrix(0.49999999999999994 0.8660254037844388 -0.8660254037844388 0.49999999999999994 -2.9438356164383563 -1.7581502032993672)"/>
    <use xlink:href="#t00007f" transform="matrix(0.5 0.8660254037844388 -0.8660254037844388 0.5 -0.9438356164383563 -1.7581502032993672)"/>
    <use xlink:href="#t00002f" transform="matrix(-0.5000000000000002 0.8660254037844388 -0.8660254037844388 -0.5000000000000002 4.056164383561644 -1.7581502032993672)"/>
    <use xlink:href="#t00009f" transform="matrix(1 0 0 1 0.5561643835616437 -4.356226414652683)"/>
    <use xlink:href="#t00009f" transform="matrix(-0.5 0.8660254037844388 -0.8660254037844388 -0.5 5.056164383561644 -0.026099395730489583)"/>
  </g>
<g id="t00000s">
    <use xlink:href="#t00001s" transform="matrix(1 0 0 1 -5.999999999999997 -1.7320508075688739)"/>
    <use xlink:href="#t00001s" transform="matrix(0.9999999999999999 -4.3021142204224816e-16 4.3021142204224816e-16 0.9999999999999999 4.500000000000003 -4.330127018922191)"/>
    <use xlink:href="#t00001s" transform="matrix(-0.5000000000000002 -0.8660254037844397 0.8660254037844397 -0.5000000000000002 1.4999999999999956 6.0621778264910615)"/>
    <use xlink:href="#t00011s" transform="matrix(1 -5.551115123125783e-16 5.551115123125783e-16 1 4.440892098500626e-15 -2.220446049250313e-16)"/>
    <use xlink:href="#t00012s" transform="matrix(-0.5000000000000001 -0.8660254037844397 0.8660254037844397 -0.5000000000000001 -5.000000000000012 8.660254037844377)"/>
    <use xlink:href="#t00013s" transform="matrix(-0.4999999999999995 -0.8660254037844384 0.8660254037844384 -0.4999999999999995 -12.94931506849315 0.035590085087034096)"/>
    <use xlink:href="#t00012s" transform="matrix(1 -1.3877787807814457e-17 1.3877787807814457e-17 1 -4.9999999999999964 -8.660254037844382)"/>
    <use xlink:href="#t00013s" transform="matrix(1 -4.163336342344337e-16 4.163336342344337e-16 1 6.443835616438359 -11.232230853467211)"/>
    <use xlink:href="#t00012s" transform="matrix(0.5000000000000002 -0.8660254037844384 0.8660254037844384 0.5000000000000002 10 1.7763568394002505e-15)"/>
    <use xlink:href="#t00013s" transform="matrix(-0.5000000000000007 0.8660254037844386 -0.8660254037844386 -0.5000000000000007 6.505479452054794 11.19664076838018)"/>
    <polygon points="-13.763157894736839,-8.341192046976438 11.500000000000004,-11.258330249197703 14.105263157894747,-7.748648349650241 3.9999999999999956,15.588457268119894 -0.34210526315790357,16.089840396626677 -15.499999999999993,-4.33012701892219" fill="none" stroke="rgb(0,0,0)" stroke-width="0.4"/>
  </g>
<g id="t00000f">
    <use xlink:href="#t00001f" transform="matrix(1 0 0 1 -5.999999999999997 -1.7320508075688739)"/>
    <use xlink:href="#t00001f" transform="matrix(0.9999999999999999 -4.3021142204224816e-16 4.3021142204224816e-16 0.9999999999999999 4.500000000000003 -4.330127018922191)"/>
    <use xlink:href="#t00001f" transform="matrix(-0.5000000000000002 -0.8660254037844397 0.8660254037844397 -0.5000000000000002 1.4999999999999956 6.0621778264910615)"/>
    <use xlink:href="#t00011f" transform="matrix(1 -5.551115123125783e-16 5.551115123125783e-16 1 4.440892098500626e-15 -2.220446049250313e-16)"/>
    <use xlink:href="#t00012f" transform="matrix(-0.5000000000000001 -0.8660254037844397 0.8660254037844397 -0.5000000000000001 -5.000000000000012 8.660254037844377)"/>
    <use xlink:href="#t00013f" transform="matrix(-0.4999999999999995 -0.8660254037844384 0.8660254037844384 -0.4999999999999995 -12.94931506849315 0.035590085087034096)"/>
    <use xlink:href="#t00012f" transform="matrix(1 -1.3877787807814457e-17 1.3877787807814457e-17 1 -4.9999999999999964 -8.660254037844382)"/>
    <use xlink:href="#t00013f" transform="matrix(1 -4.163336342344337e-16 4.163336342344337e-16 1 6.443835616438359 -11.232230853467211)"/>
    <use xlink:href="#t00012f" transform="matrix(0.5000000000000002 -0.8660254037844384 0.8660254037844384 0.5000000000000002 10 1.7763568394002505e-15)"/>
    <use xlink:href="#t00013f" transform="matrix(-0.5000000000000007 0.8660254037844386 -0.8660254037844386 -0.5000000000000007 6.505479452054794 11.19664076838018)"/>
  </g>
<g id="t00014s">
    <use xlink:href="#t00001s" transform="matrix(0.5000000000000003 -0.8660254037844384 0.8660254037844384 0.5000000000000003 0 1.3322676295501878e-14)"/>
    <polygon points="11.157894736842092,4.831510147428979 -9.763157894736842,7.247265221143447 -1.394736842105253,-12.078775368572426" fill="none" stroke="rgb(0,0,0)" stroke-width="0.4"/>
  </g>
<g id="t00014f">
    <use xlink:href="#t00001f" transform="matrix(0.5000000000000003 -0.8660254037844384 0.8660254037844384 0.5000000000000003 0 1.3322676295501878e-14)"/>
  </g>
<g id="t00015s">
    <use xlink:href="#t00013s" transform="matrix(0.49999999999999967 -0.8660254037844385 0.8660254037844385 0.49999999999999967 -11.505479452054795 -2.536386730535792)"/>
    <use xlink:href="#t00001s" transform="matrix(0.5000000000000002 0.8660254037844383 -0.8660254037844383 0.5000000000000002 -6.499999999999999 2.598076211353316)"/>
    <use xlink:href="#t00012s" transform="matrix(0.5000000000000002 0.8660254037844384 -0.8660254037844384 0.5000000000000002 -1.7763568394002505e-15 0)"/>
    <use xlink:href="#t00001s" transform="matrix(-0.49999999999999917 0.866025403784439 -0.866025403784439 -0.49999999999999917 6.499999999999995 -2.5980762113533196)"/>
    <use xlink:href="#t00013s" transform="matrix(-0.4999999999999989 0.8660254037844388 -0.8660254037844388 -0.4999999999999989 11.505479452054793 2.536386730535787)"/>
    <polygon points="-9.000000000000002,-6.928203230275503 16.263157894736842,-9.84534143249677 9,6.928203230275503 -16.263157894736842,9.845341432496769" fill="none" stroke="rgb(0,0,0)" stroke-width="0.4"/>
  </g>
<g id="t00015f">
    <use xlink:href="#t00013f" transform="matrix(0.49999999999999967 -0.8660254037844385 0.8660254037844385 0.49999999999999967 -11.505479452054795 -2.536386730535792)"/>
    <use xlink:href="#t00001f" transform="matrix(0.5000000000000002 0.8660254037844383 -0.8660254037844383 0.5000000000000002 -6.499999999999999 2.598076211353316)"/>
    <use xlink:href="#t00012f" transform="matrix(0.5000000000000002 0.8660254037844384 -0.8660254037844384 0.5000000000000002 -1.7763568394002505e-15 0)"/>
    <use xlink:href="#t00001f" transform="matrix(-0.49999999999999917 0.866025403784439 -0.866025403784439 -0.49999999999999917 6.499999999999995 -2.5980762113533196)"/>
    <use xlink:href="#t00013f" transform="matrix(-0.4999999999999989 0.8660254037844388 -0.8660254037844388 -0.4999999999999989 11.505479452054793 2.536386730535787)"/>
  </g>
<g id="t00016s">
    <use xlink:href="#t00013s" transform="matrix(0.5 -0.8660254037844392 0.8660254037844392 0.5 -14.15284787310744 -2.60019912870937)"/>
    <use xlink:href="#t00001s" transform="matrix(0.500000000000001 0.866025403784439 -0.866025403784439 0.500000000000001 -9.14736842105264 2.5342638131797415)"/>
    <use xlink:href="#t00012s" transform="matrix(0.5000000000000009 0.8660254037844389 -0.8660254037844389 0.5000000000000009 -2.647368421052633 -0.06381239817358164)"/>
    <use xlink:href="#t00001s" transform="matrix(-0.4999999999999991 0.8660254037844392 -0.8660254037844392 -0.4999999999999991 3.852631578947367 -2.661888609526901)"/>
    <use xlink:href="#t00013s" transform="matrix(0.9999999999999996 -7.355227538141662e-16 7.355227538141662e-16 0.9999999999999996 5.796467195385716 -9.563992444071925)"/>
    <use xlink:href="#t00013s" transform="matrix(-0.49999999999999895 0.8660254037844393 -0.8660254037844393 -0.49999999999999895 8.858111031002167 2.4725743323622034)"/>
    <polygon points="-11.647368421052647,-6.992015628449085 10.85263157894736,-9.590091839802415 13.352631578947367,-0.06381239817359585 6.352631578947381,6.864390832101922 -18.91052631578946,9.781529034323187" fill="none" stroke="rgb(0,0,0)" stroke-width="0.4"/>
  </g>
<g id="t00016f">
    <use xlink:href="#t00013f" transform="matrix(0.5 -0.8660254037844392 0.8660254037844392 0.5 -14.15284787310744 -2.60019912870937)"/>
    <use xlink:href="#t00001f" transform="matrix(0.500000000000001 0.866025403784439 -0.866025403784439 0.500000000000001 -9.14736842105264 2.5342638131797415)"/>
    <use xlink:href="#t00012f" transform="matrix(0.5000000000000009 0.8660254037844389 -0.8660254037844389 0.5000000000000009 -2.647368421052633 -0.06381239817358164)"/>
    <use xlink:href="#t00001f" transform="matrix(-0.4999999999999991 0.8660254037844392 -0.8660254037844392 -0.4999999999999991 3.852631578947367 -2.661888609526901)"/>
    <use xlink:href="#t00013f" transform="matrix(0.9999999999999996 -7.355227538141662e-16 7.355227538141662e-16 0.9999999999999996 5.796467195385716 -9.563992444071925)"/>
    <use xlink:href="#t00013f" transform="matrix(-0.49999999999999895 0.8660254037844393 -0.8660254037844393 -0.49999999999999895 8.858111031002167 2.4725743323622034)"/>
  </g></defs>
<use xlink:href="#t00000f" transform="matrix(20 0 0 -20 640 324.5)"/>
</svg>
