<?xml version="1.0" encoding="UTF-8" standalone="no"?>
<!-- Created with Inkscape (http://www.inkscape.org/) -->

<svg
   width="297mm"
   height="210mm"
   viewBox="0 0 297 210"
   version="1.1"
   id="svg5"
   inkscape:version="1.2.2 (b0a8486, 2022-12-01)"
   sodipodi:docname="zz.svg"
   xml:space="preserve"
   xmlns:inkscape="http://www.inkscape.org/namespaces/inkscape"
   xmlns:sodipodi="http://sodipodi.sourceforge.net/DTD/sodipodi-0.dtd"
   xmlns="http://www.w3.org/2000/svg"
   xmlns:svg="http://www.w3.org/2000/svg"><sodipodi:namedview
     id="namedview7"
     pagecolor="#ffffff"
     bordercolor="#666666"
     borderopacity="1.0"
     inkscape:showpageshadow="2"
     inkscape:pageopacity="0.0"
     inkscape:pagecheckerboard="0"
     inkscape:deskcolor="#d1d1d1"
     inkscape:document-units="mm"
     showgrid="false"
     inkscape:zoom="17.254992"
     inkscape:cx="2.2602155"
     inkscape:cy="0.92726788"
     inkscape:window-width="1280"
     inkscape:window-height="683"
     inkscape:window-x="0"
     inkscape:window-y="0"
     inkscape:window-maximized="1"
     inkscape:current-layer="g53157" /><defs
     id="defs2" /><g
     inkscape:label="Layer 1"
     inkscape:groupmode="layer"
     id="layer1"
     sodipodi:insensitive="true"><g
       id="t00003f"><polygon
         points="-1.5,-0.8660254 -1,-1.7320508 1,-1.7320508 1.5,-0.8660254 3,-1.7320508 4.5,-0.8660254 4,0 3,0 3,1.7320508 1.5,2.5980762 1,1.7320508 0,1.7320508 0,0 "
         stroke="rgb(0,0,0)"
         stroke-width="0.1"
         fill="rgb(148 205 235)"
         id="polygon3941"
         style="fill:#ffff00;stroke:none" /></g></g><g
     inkscape:groupmode="layer"
     id="g53157"
     inkscape:label="cat layer"><path
       d="m 2.6608773,1.5723442 c 0,0.033897 -0.1134805,0.1024127 -0.1467122,0.1091638 C 2.1556218,1.7543687 2.3228562,1.2928184 2.2948753,1.2368566 2.2071395,1.0613709 2.4575239,0.68880181 2.3878194,0.61909725 2.3166287,0.5479066 2.2298696,0.77149901 2.1935524,0.79571516 c -0.054306,0.0362039 -0.1052857,0.0787343 -0.1550767,0.1036298 -0.12009,0.0600379 -0.2587631,0.0341234 -0.3278025,-3.9629e-4 -0.02215,-0.0110678 0.00415,0.0476539 0.00592,0.0723512 0.00969,0.13595573 -0.051461,0.49803733 0.00896,0.86055763 0.010643,0.063902 0.00502,0.3732343 -0.1315682,0.3277034 C 1.4992667,2.1279993 1.1519045,1.538235 0.92017397,1.4918832 0.78570432,1.4649922 0.60401957,1.4180884 0.47645668,1.4723801 0.24089066,1.5726556 0.07722294,1.6910048 0.03763641,1.4138708 -0.0254586,0.9722623 0.520827,0.83238612 0.1936614,0.01448627 0.16000506,-0.06965456 -0.7659687,-0.5471131 -0.89367312,-0.59500757 c -0.0508666,-0.0190644 -0.31298408,-0.0867592 -0.20966568,-0.31204997 0.063972,-0.13947986 0.68885092,0.003963 0.82794866,0.0657841 0.0829237,0.036855 0.44364652,0.12695429 0.53469412,0.15950668 0.23471684,0.0839285 0.13380445,-0.11339552 0.47953906,-0.17520259 0.34508356,-0.0616797 0.51663466,0.18757249 0.73230126,0.11568834 0.1571997,-0.0523952 0.287848,-0.16577655 0.3977618,-0.25951319 0.4123679,-0.3516224 1.4361262,-0.6375172 1.881774,-0.1918751 0.081759,0.081763 -0.1952251,0.1393242 -0.5534528,0.1393242 -0.00326,0 -0.00651,0 -0.00975,0 -0.010997,0 -0.061524,-0.00674 -0.068275,0 -0.010318,0.010332 0.101337,0.13523388 0.095194,0.14948617 -0.04989,0.11561757 -0.023452,0.36447346 0.0072,0.38199513 0.050753,0.0289999 0.1857326,0.0245983 0.2436051,-0.0101195 0.091518,-0.0549145 0.6591405,-0.6892047 0.7581068,-0.29333943 0.039512,0.15804889 -0.092019,0.24632247 -0.1894903,0.3194238 C 3.6600373,-0.2255663 3.286786,-0.19742972 2.9671924,0.0156327 2.8425026,0.0987545 2.8103748,0.34700181 2.8103748,0.46687949 2.8103748,0.7061112 2.6668896,0.77734431 2.625732,0.98311783 2.57219,1.2508399 2.660875,1.4377189 2.660875,1.5723442 Z"
       opacity="1"
       fill="#cddbe3"
       id="path53081"
       style="stroke-width:0.0141532" /><path
       stroke="#645956"
       stroke-opacity="0.186695"
       stroke-width="0.0283064"
       d="m 1.5941357,1.3730671 c 0,0.1794627 -0.013559,0.367757 0.029764,0.5409923 0.00563,0.022574 0.065034,0.170348 0.032453,0.192059 C 1.4791125,2.2242836 1.2736645,1.6446955 1.1640479,1.5570022 c -0.00921,-0.00736 -0.075111,-0.062854 -0.081155,-0.056811 -0.00214,0.00214 -0.00814,0.073016 -0.024343,0.056811 C 1.0344609,1.5329272 1.0703109,1.4709082 1.0314889,1.4515041 1.0062399,1.4388791 0.9660727,1.5267421 0.9476452,1.5083151 0.9291611,1.4898311 0.9436962,1.4495371 0.9151777,1.4352841 0.8816912,1.4185411 0.8471574,1.5160281 0.8367406,1.5056111 0.8197001,1.4885851 0.8247953,1.4395581 0.8069764,1.4217531 0.7763488,1.3911251 0.34052906,1.5250715 0.29303088,1.5461881 0.27961368,1.5521481 0.14886629,1.6315601 0.14425234,1.6246251 0.05238385,1.4868153 0.00601794,1.2118184 0.10908164,1.0701023 0.14985704,1.0140273 0.21081492,0.9748371 0.23892319,0.91862053 c 0.0146203,-0.0292405 -0.0722946,-0.0927035 -0.048687,-0.11631108 0.0105725,-0.0105866 0.0757621,-0.001812 0.0946708,-0.008124 0.0243577,-0.00811 -0.0707236,-0.0564147 -0.048687,-0.0784371 0.0117189,-0.011733 0.0586084,0.0117189 0.0703273,0 0.0361756,-0.0361756 -0.0949822,-0.11532036 -0.0919676,-0.11632523 0.0160639,-0.00535 0.12150531,0.0103884 0.1000915,-0.0324533 -0.0119736,-0.0239472 -0.0482766,-0.0526358 -0.037874,-0.0838578 0.004104,-0.0123275 0.0901984,-0.003043 0.10820129,-0.0270468 0.0258438,-0.0344772 0.0731296,-0.1371446 0.0811545,-0.181246"
       fill="none"
       opacity="1"
       stroke-linejoin="round"
       id="path53085" /><path
       d="m 1.2587188,0.79554532 c 0.044597,0.002788 0.056004,-0.0285187 0.086561,-0.060873 C 1.4915815,0.57976548 1.1403979,0.44242273 1.212735,0.70762558 c 0.010955,0.0401668 0.00192,0.0851457 0.045984,0.0879197 z"
       opacity="1"
       fill="#8c9096"
       id="path53087"
       style="stroke-width:0.0141532" /><path
       stroke="#645956"
       stroke-opacity="0.186695"
       stroke-width="0.0283064"
       d="m 1.3155156,0.58590797 c 0.009,-0.0360058 0.044526,-0.0645103 0.075748,-0.0811545 0.028688,-0.0152996 0.091967,-0.0649774 0.091967,-0.0324675"
       fill="none"
       opacity="1"
       stroke-linejoin="round"
       id="path53089" /><path
       stroke="#645956"
       stroke-opacity="0.186695"
       stroke-width="0.0283064"
       d="M 1.3019993,0.5723775 C 1.293479,0.54044786 1.2888226,0.51672708 1.2641253,0.49392626 1.2476226,0.47869741 1.1207674,0.42647206 1.1207674,0.46687947"
       fill="none"
       opacity="1"
       stroke-linejoin="round"
       id="path53091" /><path
       stroke="#645956"
       stroke-opacity="0.186695"
       stroke-width="0.0283064"
       d="M 0.97469214,0.5913145 C 0.85102139,0.53978266 0.65000335,0.52499256 0.51754345,0.54803398 c -0.0390487,0.006794 -0.0863629,0.0405773 -0.12443502,0.0405773"
       fill="none"
       opacity="1"
       stroke-linejoin="round"
       id="path53093" /><path
       stroke="#645956"
       stroke-opacity="0.186695"
       stroke-width="0.0283064"
       d="M 0.98280193,0.46687947 C 0.84956361,0.42880734 0.64930984,0.34708671 0.54999676,0.24777363"
       fill="none"
       opacity="1"
       stroke-linejoin="round"
       id="path53095" /><path
       stroke="#645956"
       stroke-opacity="0.186695"
       stroke-width="0.0283064"
       d="M 1.7537414,0.93485536 C 1.7036532,0.86808052 1.6384494,0.78371323 1.5562758,0.75631262 1.5403393,0.75100517 1.4020766,0.72172217 1.4020766,0.7130321"
       fill="none"
       opacity="1"
       stroke-linejoin="round"
       id="path53097" /><path
       stroke="#645956"
       stroke-opacity="0.186695"
       stroke-width="0.0283064"
       d="M 1.6563532,0.69681252 C 1.6192576,0.67362957 1.4379409,0.59873078 1.3966701,0.64000154"
       fill="none"
       opacity="1"
       stroke-linejoin="round"
       id="path53099" /><path
       stroke="#645956"
       stroke-opacity="0.186695"
       stroke-width="0.0283064"
       d="M 1.242485,0.99705872 C 1.2564967,0.89897698 1.385857,0.8075897 1.385857,0.71032884"
       fill="none"
       opacity="1"
       stroke-linejoin="round"
       id="path53101" /><path
       stroke="#645956"
       stroke-opacity="0.186695"
       stroke-width="0.0283064"
       d="m 1.0855967,0.88074764 c 0.00265,-0.0609154 0.015158,-0.11805192 0.02164,-0.17852859 7.926e-4,-0.007346 -6.935e-4,-0.0774464 0.00811,-0.0730306"
       fill="none"
       opacity="1"
       stroke-linejoin="round"
       id="path53103" /><path
       stroke="#645956"
       stroke-opacity="0.186695"
       stroke-width="0.0283064"
       d="m 1.5535584,0.38031844 c 0,-0.0518715 -0.1239255,-0.0233528 -0.1325448,-0.0405772 -0.0809,-0.1617995 -0.1480001,-0.002307 -0.1920449,-0.0243435 -0.079116,-0.0395582 -0.1008275,-0.10609246 -0.21912,-0.0567968"
       fill="none"
       opacity="1"
       stroke-linejoin="round"
       id="path53105" /><path
       stroke="#645956"
       stroke-opacity="0.186695"
       stroke-width="0.0283064"
       d="m 1.487562,1.3831441 c 0,0.1409519 0.046281,0.2642546 0.062614,0.3949595 6.511e-4,0.00512 0.010629,0.039955 0.00723,0.043351 C 1.5316776,1.8471854 1.4638129,1.7804389 1.449037,1.7684794 1.4031947,1.7313556 1.1865232,1.4797539 1.1865232,1.4216692"
       fill="none"
       opacity="1"
       stroke-linejoin="round"
       id="path53107" /><path
       stroke="#645956"
       stroke-opacity="0.186695"
       stroke-width="0.0283064"
       d="m 0.6374353,1.2193773 c -0.17654715,0 -0.56492538,0.416897 -0.43590472,-0.00241 0.0103318,-0.033586 0.0270892,-0.078579 0.0505694,-0.1059651 0.060137,-0.070172 0.16136075,-0.12541158 0.16136075,-0.22638058"
       fill="none"
       opacity="1"
       stroke-linejoin="round"
       id="path53109" /><path
       stroke="#645956"
       stroke-opacity="0.186695"
       stroke-width="0.0283064"
       d="m 1.5892811,1.0613143 c 0.00236,0.015455 -0.073625,0.00739 -0.089632,0.00739 -0.078168,0 -0.1422822,-0.0720399 -0.1737165,-0.13490843 -0.025009,-0.0500316 0.1978619,-0.0748139 0.2310087,-0.0610003 0.062416,0.0260136 0.025462,0.14341443 0.03234,0.18852073 z"
       fill="none"
       opacity="1"
       stroke-linejoin="round"
       id="path53111" /><path
       stroke="#645956"
       stroke-opacity="0.186695"
       stroke-width="0.0283064"
       d="m 0.94151701,0.87187358 c 0.002052,0.001217 -0.1137635,0.0176915 -0.12752042,0.0194041 -0.27191147,0.033996 -0.0695206,-0.35893956 0.0813102,-0.18295855 0.0314909,0.0367276 0.0204514,0.1483681 0.0462102,0.16355445 z"
       fill="none"
       opacity="1"
       stroke-linejoin="round"
       id="path53113" /><path
       stroke="#645956"
       stroke-opacity="0.186695"
       stroke-width="0.0283064"
       d="m 1.4571468,1.0382021 c 0.04011,-8.209e-4 0.024471,-0.00293 0.042502,-0.03418 0.077517,-0.13435642 -0.047541,-0.14246621 -0.053598,-0.009242 -9.907e-4,0.0219658 -0.00965,0.0438609 0.011096,0.043422 z"
       fill="#000000"
       opacity="1"
       stroke-linejoin="round"
       id="path53115" /><path
       stroke="#645956"
       stroke-opacity="0.186695"
       stroke-width="0.0283064"
       d="M 0.74930227,0.87464761 C 0.7664135,0.88752703 0.86499061,0.7606152 0.81954465,0.73788514 0.76243645,0.70933812 0.7177123,0.85085606 0.74930227,0.87464761 Z"
       fill="#000000"
       opacity="1"
       stroke-linejoin="round"
       id="path53117" /><path
       stroke="#645956"
       stroke-opacity="0.186695"
       stroke-width="0.0283064"
       d="M 2.6938967,1.5569597 C 2.1649346,2.0271435 2.3572626,1.0301348 2.375308,0.81356235 2.3770629,0.79241746 2.4164655,0.59438574 2.3890083,0.56691436 2.382059,0.55996514 2.2229203,0.74670259 2.2108618,0.75876112 2.0425235,0.9270994 1.8240687,0.96709638 1.6970012,0.75533605 1.5521997,0.51398136 1.6490501,0.14456842 1.6490501,-0.11824253 c 0,-0.0263674 0.023664,-0.2980383 0.058226,-0.2980383"
       fill="none"
       opacity="1"
       stroke-linejoin="round"
       id="path53121" /><path
       stroke="#645956"
       stroke-opacity="0.186695"
       stroke-width="0.0283064"
       d="m 2.6596459,0.53951375 c 0,-0.0672702 0.010785,-0.12425103 0.044526,-0.18499661 0.020338,-0.0366002 0.04696,-0.0660247 0.075366,-0.0959163 0.029127,-0.0306559 0.063137,-0.0665626 0.08908,-0.0925054 0.0443,-0.0442996 -0.1199626,-0.0213855 -0.1404565,-0.0137003 -0.02699,0.0101195 -0.059061,0.0737382 -0.071941,0.0479652 -0.021739,-0.0434787 0.1790522,-0.21246799 0.2089721,-0.24666215 0.00161,-0.0018399 0.033147,-0.03192964 0.030826,-0.03425076 -0.055509,-0.05550889 -0.1821377,0.03647282 -0.2226725,0.07194076 -8.49e-5,7.077e-5 -0.027698,0.02369248 -0.03084,0.02055046 -0.041525,-0.04152552 0.1461602,-0.23310337 0.1747214,-0.25349814 0.0092,-0.006581 0.034704,-0.0204089 0.023976,-0.0239897 -0.00541,-0.001797 -0.011422,0 -0.017125,0 -0.068063,0 -0.1423388,0.04563 -0.2158223,0.0548154 -0.069068,0.008633 -0.1861996,-0.0336563 -0.246648,-0.003425 -0.041186,0.0205929 -0.08983,0.12497285 -0.1438815,0.16100692 -0.069422,0.046281 -0.1070266,0.08941998 -0.1884217,0.12333107 -0.044568,0.01856901 -0.103375,0.03769 -0.1027806,0.03769 0.3997999,0 0.8457534,-0.94720358 0.5823905,-1.298373 -0.1020588,-0.1360689 -0.3871894,-0.051305 -0.483035,0.04454 -0.179406,0.17940602 -0.4011019,0.42775239 -0.6988572,0.3905436 -0.1829727,-0.0228716 -0.34976823,-0.15408599 -0.55497562,-0.10278061 -0.20992042,0.0524801 -0.40124351,0.16658328 -0.5960766,0.25008722"
       fill="none"
       opacity="1"
       stroke-linejoin="round"
       id="path53123" /><path
       stroke="#645956"
       stroke-opacity="0.186695"
       stroke-width="0.0283064"
       d="m 3.0261999,-0.11137823 c 0.3614022,0 0.7154689,-0.18250564 0.9831881,-0.41451921 0.082179,-0.071219 0.2442604,-0.14318803 0.2089708,-0.28433799 -0.018088,-0.0723512 -0.2651137,-0.13901283 -0.325446,-0.0959305 -0.1852613,0.13233252 -0.3319239,0.52540962 -0.6440404,0.42136937 -0.1659606,-0.0553107 -0.089066,-0.326925 -0.089066,-0.4453449 0,-0.0700867 -0.021159,-0.0862497 -0.068516,-0.13360624 -0.010176,-0.010176 -0.044936,-0.020551 -0.017139,-0.020551"
       fill="none"
       opacity="1"
       stroke-linejoin="round"
       id="path53125" /><path
       stroke="#645956"
       stroke-opacity="0.186695"
       stroke-width="0.0283064"
       d="m 3.1769316,-1.0329079 c 0.099978,-0.1499815 0.6062499,0.023494 0.5720997,-0.1301812 -0.052085,-0.2343772 -0.8726431,-0.1849966 -1.0619847,-0.1849966 -0.062232,0 -0.3016333,0.014408 -0.3185888,0.082216"
       fill="none"
       opacity="1"
       stroke-linejoin="round"
       id="path53127" /><path
       stroke="#645956"
       stroke-opacity="0.186695"
       stroke-width="0.0283064"
       d="m 2.865193,-0.72116928 c 0.021414,-0.0856835 0.075422,-0.14393814 0.1370172,-0.20554707 0.013148,-0.0131483 0.041115,-0.0376758 0.041115,-0.0376758 0,0 -0.072818,0.002576 -0.1027664,0.0205505 -0.00937,0.005619 -0.093822,0.091175 -0.099356,0.0856411 -0.013177,-0.0131766 0.1146835,-0.17759445 0.1130559,-0.17813235 -0.046904,-0.015639 -0.1102677,0.0719408 -0.164432,0.0719408 -0.00229,0 -0.00848,0.001613 -0.00686,0 0.054759,-0.0547446 0.1404564,-0.18499661 0.1404564,-0.18499661 0,0 -0.143556,0.1429899 -0.1507317,0.085641 -0.0033,-0.026452 0.053301,-0.1081872 0.02399,-0.1301813 -0.040266,-0.030189 -0.0717,0.023905 -0.1027806,0.034265 -0.037803,0.012596 -0.077857,-0.016319 -0.1164668,0.00685"
       fill="none"
       opacity="1"
       stroke-linejoin="round"
       id="path53129" /><path
       stroke="#645956"
       stroke-opacity="0.186695"
       stroke-width="0.0283064"
       d="m 2.7420176,1.5726556 c -0.1752592,0 -0.2437041,-0.033189 -0.3591235,-0.1486087"
       fill="none"
       opacity="1"
       stroke-linejoin="round"
       id="path53131" /><path
       stroke="#645956"
       stroke-opacity="0.186695"
       stroke-width="0.0283064"
       d="m 2.7568785,1.4958745 c -0.078451,0 -0.2427134,-0.038497 -0.2427134,-0.1461178"
       fill="none"
       opacity="1"
       stroke-linejoin="round"
       id="path53133" /><path
       stroke="#645956"
       stroke-opacity="0.186695"
       stroke-width="0.0283064"
       d="m 2.7494481,1.3844321 c -0.069549,0 -0.2030845,-0.036402 -0.2030845,-0.131271"
       fill="none"
       opacity="1"
       stroke-linejoin="round"
       id="path53135" /><path
       stroke="#645956"
       stroke-opacity="0.186695"
       stroke-width="0.0283064"
       d="m 4.1002856,-0.70302486 c 0.036586,-0.0823292 0.039878,-0.15633636 0.039878,-0.24459578"
       fill="none"
       opacity="1"
       stroke-linejoin="round"
       id="path53137" /><path
       stroke="#645956"
       stroke-opacity="0.186695"
       stroke-width="0.0283064"
       d="M 4.020528,-0.70037821 C 4.038716,-0.78676941 4.047113,-0.8700752 4.047113,-0.9582497"
       fill="none"
       opacity="1"
       stroke-linejoin="round"
       id="path53139" /><path
       stroke="#645956"
       stroke-opacity="0.186695"
       stroke-width="0.0283064"
       d="m 3.9008938,-0.68176674 c 0,-0.090623 0.056869,-0.24354844 -0.01861,-0.31902746"
       fill="none"
       opacity="1"
       stroke-linejoin="round"
       id="path53141" /><path
       stroke="#645956"
       stroke-opacity="0.186695"
       stroke-width="0.0283064"
       d="m 0.37964873,0.38255465 c 0,-0.43695205 -0.64081489,-0.76929773 -0.99229571,-0.90989572 -0.15681756,-0.062727 -0.31592795,-0.0881462 -0.45666752,-0.18198197 -0.1309738,-0.0873112 0.00716,-0.22168173 0.11331065,-0.23348551 0.24104332,-0.0267779 0.47608568,-0.002406 0.70044236,0.099582 0.26990171,0.12268002 0.51194991,0.28643266 0.82748158,0.21631766"
       fill="none"
       opacity="1"
       stroke-linejoin="round"
       id="path53143" /><path
       stroke="#645956"
       stroke-opacity="0.186695"
       stroke-width="0.0283064"
       d="m -0.7705968,-0.90847286 c -0.11853314,0 -0.19337531,-0.21630354 -0.2025749,-0.21630354"
       fill="none"
       opacity="1"
       stroke-linejoin="round"
       id="path53145" /><path
       stroke="#645956"
       stroke-opacity="0.186695"
       stroke-width="0.0283064"
       d="m -0.82210033,-0.79516226 c -0.0861506,0 -0.25751767,-0.12333107 -0.25751767,-0.22318194"
       fill="none"
       opacity="1"
       stroke-linejoin="round"
       id="path53147" /><path
       stroke="#645956"
       stroke-opacity="0.186695"
       stroke-width="0.0283064"
       d="m -0.95600385,-0.74365873 c -0.10372885,0 -0.25065335,-0.10807391 -0.25065335,-0.22660705"
       fill="none"
       opacity="1"
       stroke-linejoin="round"
       id="path53149" /><path
       stroke="#645956"
       stroke-opacity="0.186695"
       stroke-width="0.0283064"
       d="m 2.6176534,1.2833923 c 0,-0.085075 -0.023183,-0.1705179 -0.011478,-0.2563005 0.031236,-0.22905552 0.1989234,-0.40636693 0.1989234,-0.65031166"
       fill="none"
       opacity="1"
       stroke-linejoin="round"
       id="path53151" /></g></svg>
