<?xml version="1.0" encoding="UTF-8"?>
<!DOCTYPE svg PUBLIC "-//W3C//DTD SVG 1.1//EN"
  "http://www.w3.org/Graphics/SVG/1.1/DTD/svg11.dtd">
<!-- Created with Inkpad (http://www.taptrix.com/) --><svg xmlns:inkpad="http://taptrix.com/inkpad/svg_extensions" height="480px" xmlns:xlink="http://www.w3.org/1999/xlink" xmlns="http://www.w3.org/2000/svg" width="640px" version="1.1" viewBox="0,0,640,480">


<defs/>
##########

##########

<g id="Layer_3" inkpad:layer="">
<path d="M492.392+330.432C485.758+310.53+421.245+302.784+405.192+305.632C348.065+315.768+338.521+411.085+375.592+446.432C409.709+478.962+517.082+459.043+528.392+410.032C539.394+362.357+496.263+321.685+459.192+301.232" stroke="#d4a032" stroke-width="13.973" fill="#ffffeb" opacity="1" stroke-linejoin="round"/>
<path d="M137.465+343.261C129.555+314.258+85.6922+301.052+59.8651+313.261C8.12251+337.721+19.3458+443.064+87.8651+454.061C136.099+461.802+163.674+411.695+153.065+369.261C143.69+331.761+109.767+319.261+75.4651+319.261" stroke="#d4a032" stroke-width="13.973" fill="#ffffeb" opacity="1" stroke-linejoin="round"/>
<path stroke="#d4a032" stroke-opacity="0.530043" stroke-width="35.2878" d="M41.13+375.593C41.13+402.1+60.4182+426.35+84.5198+437.062C92.437+440.581+101.681+443.734+110.282+444.746" fill="none" opacity="1" stroke-linejoin="round"/>
<path stroke="#d4a032" stroke-opacity="0.530043" stroke-width="35.2878" d="M372.881+387.797C369.459+425.444+390.353+446.554+427.571+446.554" fill="none" opacity="1" stroke-linejoin="round"/>
<path stroke="#d4a032" stroke-opacity="0.530043" stroke-width="35.2878" d="M548.249+422.599C547.94+427.851+546.282+437.186+547.797+442.486C550.352+451.429+579.063+456.869+584.859+451.073" fill="none" opacity="1" stroke-linejoin="round"/>
<path d="M227.345+399.322C212.61+389.798+206.083+428.405+217.401+431.638C231.091+435.55+245.015+425.193+240.904+410.395C239.544+405.501+231.431+401.963+227.345+399.322Z" stroke="#d4a032" stroke-width="13.973" fill="#ffffeb" opacity="1" stroke-linejoin="round"/>
<path d="M311.864+413.559C250.257+408.359+314.721+480.674+318.644+431.638C319.328+423.09+317.065+413.998+311.864+413.559Z" stroke="#d4a032" stroke-width="13.973" fill="#ffffeb" opacity="1" stroke-linejoin="round"/>
<path d="M629.604+398.644C618.029+352.343+501.335+398.674+538.305+449.266C544.668+457.972+553.402+462.006+563.616+464.633C626.119+480.705+640.055+397.664+589.379+375.141" stroke="#d4a032" stroke-width="13.973" fill="#ffffeb" opacity="1" stroke-linejoin="round"/>
<path stroke="#d4a032" stroke-opacity="0.530043" stroke-width="35.2878" d="M32.5424+443.39C44.7721+446.884+61.0524+453.333+74.1243+453.333" fill="none" stroke-linecap="round" opacity="1" stroke-linejoin="round"/>
<path stroke="#d4a032" stroke-opacity="0.530043" stroke-width="35.2878" d="M349.379+432.09C353.799+446.456+365.361+461.921+381.921+461.921" fill="none" stroke-linecap="round" opacity="1" stroke-linejoin="round"/>
<path stroke="#d4a032" stroke-opacity="0.530043" stroke-width="35.2878" d="M518.418+454.237C524.326+464.871+536.45+460.066+543.277+466.893" fill="none" stroke-linecap="round" opacity="1" stroke-linejoin="round"/>
<path stroke="#3532ff" stroke-opacity="0.76824" stroke-width="14.3367" d="M277.062+441.13C280.57+445.417+289.844+452.23+291.977+456.497" fill="none" stroke-linecap="round" opacity="1" stroke-linejoin="round"/>
<path stroke="#d4a032" stroke-opacity="0.530043" stroke-width="15.6589" d="M200.226+430.282C203.014+438.647+207.354+438.767+212.429+443.842" fill="none" stroke-linecap="round" opacity="1" stroke-linejoin="round"/>
</g>
<g id="Layer_4" inkpad:layer="">
<path stroke="#3532ff" stroke-opacity="0.76824" stroke-width="14.3367" d="M626.441+192.09C601.679+197.917+571.236+203.125+545.989+197.514C519.928+191.723+498.866+176.741+475.932+164.068C435.017+141.457+383.684+117.99+336.723+112.994C319.703+111.184+296.529+109.892+279.774+113.898C231.669+125.402+166.545+187.439+114.802+172.655C107.759+170.643+72.3164+147.797+56.9492+106.215C51.1707+90.5789+52.4294+74.5978+52.4294+57.8531" fill="none" stroke-linecap="round" opacity="1" stroke-linejoin="round"/>
<path stroke="#3532ff" stroke-opacity="0.76824" stroke-width="14.3367" d="M606.554+160C583.418+160+527.533+122.072+504.859+110.734C442.795+79.7025+381.973+64.6328+312.768+64.6328C262.879+64.6328+208.927+101.702+164.52+121.13C146.718+128.918+113.536+140.655+97.1751+124.294C67.836+94.9546+77.3506+0.854661+125.198+20.791C138.892+26.4969+141.942+78.1921+112.994+78.1921" fill="none" stroke-linecap="round" opacity="1" stroke-linejoin="round"/>
<path stroke="#3532ff" stroke-opacity="0.76824" stroke-width="14.3367" d="M162.26+80C178.273+47.9739+219.603+35.6008+251.751+29.3785C343.377+11.6446+395.806+31.3657+479.548+66.8927C512.198+80.7442+559.377+107.834+595.706+90.3955C643.956+67.2355+589.508+23.6391+554.124+27.5706C542.175+28.8983+536.779+69.1525+564.972+69.1525" fill="none" stroke-linecap="round" opacity="1" stroke-linejoin="round"/>
<path stroke="#3532ff" stroke-opacity="0.76824" stroke-width="14.3367" d="M624.181+287.006C553.66+245.868+421.666+190.274+343.503+231.412C313.189+247.367+283.248+267.899+255.819+288.362C208.62+323.574+163.786+379.899+101.243+387.345C89.7194+388.716+72.145+391.458+60.565+388.701C30.9315+381.645+14.675+319.788+35.7062+298.757C50.0666+284.397+66.7374+313.768+57.4011+324.972" fill="none" stroke-linecap="round" opacity="1" stroke-linejoin="round"/>
<path stroke="#3532ff" stroke-opacity="0.76824" stroke-width="14.3367" d="M318.644+209.718C293.077+232.728+163.943+332.848+150.96+337.175C117.567+348.306+104.814+345.177+89.4915+313.672C85.5303+305.528+85.1766+286.465+89.0396+277.966C92.8183+269.653+123.304+246.241+129.718+252.655C130.781+253.719+118.573+268.318+117.514+269.831C111.723+278.104+111.895+286.819+110.282+296.497" fill="none" stroke-linecap="round" opacity="1" stroke-linejoin="round"/>
<path stroke="#3532ff" stroke-opacity="0.76824" stroke-width="14.3367" d="M125.65+251.299C114.295+251.299+101.557+250.552+91.2994+245.424" fill="none" stroke-linecap="round" opacity="1" stroke-linejoin="round"/>
</g>
</svg>
