<svg viewBox="0 0 1000 1000" xmlns="http://www.w3.org/2000/svg">
  <circle cx="400.00" cy="100.00" r="100.00" fill ="none" stroke = "#000000"/>
<circle cx="400.00" cy="100.00" r="100.00" fill ="none" stroke = "#000000"/>
<circle cx="440.00" cy="4.00" r="4.00" fill ="none" stroke = "#000000"/>
<circle cx="440.00" cy="4.00" r="4.00" fill ="none" stroke = "#000000"/>
<circle cx="450.00" cy="6.25" r="6.25" fill ="none" stroke = "#000000"/>
<circle cx="450.00" cy="6.25" r="6.25" fill ="none" stroke = "#000000"/>
<circle cx="457.14" cy="2.04" r="2.04" fill ="none" stroke = "#000000"/>
<circle cx="457.14" cy="2.04" r="2.04" fill ="none" stroke = "#000000"/>
<circle cx="466.67" cy="11.11" r="11.11" fill ="none" stroke = "#000000"/>
<circle cx="466.67" cy="11.11" r="11.11" fill ="none" stroke = "#000000"/>
<circle cx="475.00" cy="1.56" r="1.56" fill ="none" stroke = "#000000"/>
<circle cx="475.00" cy="1.56" r="1.56" fill ="none" stroke = "#000000"/>
<circle cx="480.00" cy="4.00" r="4.00" fill ="none" stroke = "#000000"/>
<circle cx="480.00" cy="4.00" r="4.00" fill ="none" stroke = "#000000"/>
<circle cx="485.71" cy="2.04" r="2.04" fill ="none" stroke = "#000000"/>
<circle cx="485.71" cy="2.04" r="2.04" fill ="none" stroke = "#000000"/>
<circle cx="500.00" cy="25.00" r="25.00" fill ="none" stroke = "#000000"/>
<circle cx="500.00" cy="25.00" r="25.00" fill ="none" stroke = "#000000"/>
<circle cx="514.29" cy="2.04" r="2.04" fill ="none" stroke = "#000000"/>
<circle cx="514.29" cy="2.04" r="2.04" fill ="none" stroke = "#000000"/>
<circle cx="520.00" cy="4.00" r="4.00" fill ="none" stroke = "#000000"/>
<circle cx="520.00" cy="4.00" r="4.00" fill ="none" stroke = "#000000"/>
<circle cx="525.00" cy="1.56" r="1.56" fill ="none" stroke = "#000000"/>
<circle cx="525.00" cy="1.56" r="1.56" fill ="none" stroke = "#000000"/>
<circle cx="533.33" cy="11.11" r="11.11" fill ="none" stroke = "#000000"/>
<circle cx="533.33" cy="11.11" r="11.11" fill ="none" stroke = "#000000"/>
<circle cx="542.86" cy="2.04" r="2.04" fill ="none" stroke = "#000000"/>
<circle cx="542.86" cy="2.04" r="2.04" fill ="none" stroke = "#000000"/>
<circle cx="550.00" cy="6.25" r="6.25" fill ="none" stroke = "#000000"/>
<circle cx="550.00" cy="6.25" r="6.25" fill ="none" stroke = "#000000"/>
<circle cx="560.00" cy="4.00" r="4.00" fill ="none" stroke = "#000000"/>
<circle cx="560.00" cy="4.00" r="4.00" fill ="none" stroke = "#000000"/>
<circle cx="600.00" cy="100.00" r="100.00" fill ="none" stroke = "#000000"/>
<circle cx="600.00" cy="100.00" r="100.00" fill ="none" stroke = "#000000"/>
</svg>