<svg viewBox="0 0 1000 1000" xmlns="http://www.w3.org/2000/svg">
  <circle cx="400.00" cy="141.42" r="141.42" fill ="none" stroke = "#000000"/>
<circle cx="400.00" cy="141.42" r="141.42" fill ="none" stroke = "#000000"/>
<circle cx="440.00" cy="2.83" r="2.83" fill ="none" stroke = "#FF0000"/>
<circle cx="440.00" cy="2.83" r="2.83" fill ="none" stroke = "#FF0000"/>
<circle cx="450.00" cy="4.42" r="4.42" fill ="none" stroke = "#FF0000"/>
<circle cx="450.00" cy="4.42" r="4.42" fill ="none" stroke = "#FF0000"/>
<circle cx="457.14" cy="2.89" r="2.89" fill ="none" stroke = "#000000"/>
<circle cx="457.14" cy="2.89" r="2.89" fill ="none" stroke = "#000000"/>
<circle cx="466.67" cy="7.86" r="7.86" fill ="none" stroke = "#FF0000"/>
<circle cx="466.67" cy="7.86" r="7.86" fill ="none" stroke = "#FF0000"/>
<circle cx="475.00" cy="1.10" r="1.10" fill ="none" stroke = "#FF0000"/>
<circle cx="475.00" cy="1.10" r="1.10" fill ="none" stroke = "#FF0000"/>
<circle cx="480.00" cy="5.66" r="5.66" fill ="none" stroke = "#000000"/>
<circle cx="480.00" cy="5.66" r="5.66" fill ="none" stroke = "#000000"/>
<circle cx="485.71" cy="1.44" r="1.44" fill ="none" stroke = "#FF0000"/>
<circle cx="485.71" cy="1.44" r="1.44" fill ="none" stroke = "#FF0000"/>
<circle cx="500.00" cy="17.68" r="17.68" fill ="none" stroke = "#FF0000"/>
<circle cx="500.00" cy="17.68" r="17.68" fill ="none" stroke = "#FF0000"/>
<circle cx="514.29" cy="2.89" r="2.89" fill ="none" stroke = "#000000"/>
<circle cx="514.29" cy="2.89" r="2.89" fill ="none" stroke = "#000000"/>
<circle cx="520.00" cy="2.83" r="2.83" fill ="none" stroke = "#FF0000"/>
<circle cx="520.00" cy="2.83" r="2.83" fill ="none" stroke = "#FF0000"/>
<circle cx="525.00" cy="1.10" r="1.10" fill ="none" stroke = "#FF0000"/>
<circle cx="525.00" cy="1.10" r="1.10" fill ="none" stroke = "#FF0000"/>
<circle cx="533.33" cy="15.71" r="15.71" fill ="none" stroke = "#000000"/>
<circle cx="533.33" cy="15.71" r="15.71" fill ="none" stroke = "#000000"/>
<circle cx="542.86" cy="1.44" r="1.44" fill ="none" stroke = "#FF0000"/>
<circle cx="542.86" cy="1.44" r="1.44" fill ="none" stroke = "#FF0000"/>
<circle cx="550.00" cy="4.42" r="4.42" fill ="none" stroke = "#FF0000"/>
<circle cx="550.00" cy="4.42" r="4.42" fill ="none" stroke = "#FF0000"/>
<circle cx="560.00" cy="5.66" r="5.66" fill ="none" stroke = "#000000"/>
<circle cx="560.00" cy="5.66" r="5.66" fill ="none" stroke = "#000000"/>
<circle cx="600.00" cy="70.71" r="70.71" fill ="none" stroke = "#FF0000"/>
<circle cx="600.00" cy="70.71" r="70.71" fill ="none" stroke = "#FF0000"/>
</svg>