<?xml version="1.0" encoding="UTF-8"?>
<!DOCTYPE svg PUBLIC "-//W3C//DTD SVG 1.1//EN"
  "http://www.w3.org/Graphics/SVG/1.1/DTD/svg11.dtd">
<!-- Created with Inkpad (http://www.taptrix.com/) --><svg xmlns:inkpad="http://taptrix.com/inkpad/svg_extensions" height="512pt" xmlns:xlink="http://www.w3.org/1999/xlink" xmlns="http://www.w3.org/2000/svg" width="512pt" version="1.1" viewBox="0,0,512,512">
<defs/>
<g id="Layer" inkpad:layerName="Layer 1">
<path stroke="#000000" stroke-opacity="0.680257" stroke-width="2" d="M189.469+202.486C187.174+184.127+179.391+166.691+183.322+147.525C190.09+114.532+228.457+90.2988+261.062+96.5424C304.346+104.831+298.495+152.149+314.938+176.814C316.335+178.91+320.47+167.429+321.808+165.605C326.359+159.399+336.882+151.333+344.588+158.011C355.505+167.473+370.318+257.75+361.22+266.847C344.238+283.83+336.631+222.142+338.079+214.418C340.48+201.615+344.226+229.628+344.226+231.412C344.226+238.644+344.226+245.876+344.226+253.107M184.407+211.164C179.333+185.794+154.709+201.753+161.989+232.859C166.47+252.007+183.887+272.836+197.062+286.011C197.934+286.883+198.147+272.98+198.147+272.271C198.147+263.627+191.993+255.63+186.576+249.13C186.46+248.99+181.924+244.646+181.876+244.791C179.32+252.458+196.848+262.375+198.87+270.463M211.525+214.418C219.378+213.109+252.692+207.526+242.983+228.158C241.352+231.623+236.171+233.22+232.859+233.22C219.713+233.22+235.028+207.703+235.028+229.243M304.09+184.768C299.237+186.588+294.135+188.38+289.989+191.638C286.635+194.273+283.521+197.22+280.588+200.316C258.147+224.003+307.514+224.242+300.113+205.74C297.098+198.204+286.943+214.154+286.373+215.864M258.169+271.186C281.764+275.119+300.836+270.606+300.836+242.983M254.915+308.068C279.607+322.883+317.744+310.978+322.531+279.864M215.503+301.198C220.576+319.8+228.363+335.492+235.028+353.266C238.434+362.347+238.329+371.845+241.175+380.384M349.65+278.056C349.65+303.035+346.395+327.594+346.395+352.542C346.395+359.969+347.919+366.545+352.542+372.429C353.189+373.252+360.116+380.384+359.412+380.384" fill="none" stroke-linecap="round" opacity="1" stroke-linejoin="round"/>
</g>
</svg>
