<?xml version="1.0" encoding="UTF-8"?>
<!DOCTYPE svg PUBLIC "-//W3C//DTD SVG 1.1//EN"
  "http://www.w3.org/Graphics/SVG/1.1/DTD/svg11.dtd">
<!-- Created with Inkpad (http://www.taptrix.com/) --><svg xmlns:inkpad="http://taptrix.com/inkpad/svg_extensions" height="480pt" xmlns:xlink="http://www.w3.org/1999/xlink" xmlns="http://www.w3.org/2000/svg" width="640pt" version="1.1" viewBox="0,0,640,480">
<metadata>
</metadata>
<metadata>
<inkpad:setting key="RulersVisible" value="0"/>
<inkpad:setting key="SnapToEdges" value="0"/>
<inkpad:setting key="Units" value="Pixels"/>
<inkpad:setting key="DynamicGuides" value="1"/>
<inkpad:setting key="SnapToPoints" value="0"/>
<inkpad:setting key="SnapToGrid" value="0"/>
<inkpad:setting key="ShowGrid" value="0"/>
<inkpad:setting key="GridSpacing" value="36"/>
</metadata>
<defs/>
<g id="Layer" inkpad:layerName="Layer 1">
<path id="path1" stroke="#000000" stroke-opacity="0.680257" stroke-width="2"
stroke-dashoffset="1689"
stroke-dasharray="1689 1689"
d="M99.689+139.069C48.485+104.933+2.72943+232.855+27.1584+268.684C41.0894+289.117+75.0443+275.301+85.5859+258.611C91.8606+248.676+92.3017+237.72+92.3017+226.375C92.3017+225.927+92.1601+224.607+92.3017+225.032C103.193+257.704+110.375+295.152+101.032+329.127C89.9601+369.389+73.1387+365.167+72.1543+362.706C59.4557+330.959+105.365+264.842+121.851+238.463C123.182+236.334+149.009+200.478+153.415+204.884C157.869+209.338+153.415+238.544+153.415+245.179C153.415+249.656+153.415+254.134+153.415+258.611C153.415+261.073+153.415+268.461+153.415+265.998C153.415+255.209+153.065+245.079+155.43+234.434C172.824+156.16+171.227+248.267+223.26+233.091C232.957+230.262+260.2+201.081+244.75+190.781C214.508+170.619+190.504+255.245+219.23+268.013C255.086+283.949+279.616+237.057+289.075+210.257C290.205+207.055+304.511+186.07+301.163+182.722C300.865+182.424+297.293+182.722+297.134+182.722C287.191+182.722+274.896+243.439+297.805+245.851C322.352+248.435+324.762+235.442+326.012+212.943C326.357+206.726+326.012+200.371+326.012+194.139C326.012+191.732+323.977+185.399+323.997+185.408C363.773+205.297+369.709+272.569+363.62+310.322C362.13+319.563+332.449+365.785+319.296+352.632C292.365+325.701+414.2+193.482+425.405+180.036" fill="none" stroke-linecap="round" opacity="1" stroke-linejoin="round">
<animate id="an0"
 attributeName="stroke-dashoffset"
 begin="0s"
 dur="5s"
 values="1689;0"
 fill="freeze" />
 </path>
<path id="path2" stroke="#000000" stroke-opacity="0.680257" stroke-width="2"
stroke-dashoffset="862"
stroke-dasharray="862 862"
d="M405.375+302.935C424.805+264.075+433.83+227.846+442.984+185.408C445.643+173.08+446.53+161.04+447.013+148.472C447.185+143.998+447.013+130.563+447.013+135.04C447.013+142.548+435.231+251.219+469.847+231.748C491.397+219.626+498.889+177.029+503.426+155.859C505.878+144.414+508.494+133.811+510.142+122.28C510.442+120.178+511.485+114.221+512.156+116.236C523.813+151.205+476.775+278.288+522.902+299.577C551.607+312.826+571.138+227.082+573.942+210.257C575.425+201.358+575.957+191.733+575.957+182.722C575.957+180.707+575.957+176.678+575.957+176.678C575.957+176.678+558.131+212.506+568.569+225.032C583.245+242.643+608.963+221.587+619.609+214.286" fill="none" stroke-linecap="round" opacity="1" stroke-linejoin="round">
<animate id="an1"
 attributeName="stroke-dashoffset"
 begin="an0.end"
 dur="5s"
 values="862;0"
 fill="freeze" />
 </path>
</g>
</svg>
