<?xml version="1.0" encoding="UTF-8" standalone="no"?>
<svg
   xmlns:ns63="http://www.iki.fi/pav/software/textext/"
   xmlns:dc="http://purl.org/dc/elements/1.1/"
   xmlns:cc="http://creativecommons.org/ns#"
   xmlns:rdf="http://www.w3.org/1999/02/22-rdf-syntax-ns#"
   xmlns:svg="http://www.w3.org/2000/svg"
   xmlns="http://www.w3.org/2000/svg"
   xmlns:sodipodi="http://sodipodi.sourceforge.net/DTD/sodipodi-0.dtd"
   xmlns:inkscape="http://www.inkscape.org/namespaces/inkscape"
   width="297mm"
   height="210mm"
   viewBox="0 0 297 210"
   version="1.1"
   id="svg8"
   sodipodi:docname="brocot.svg"
   inkscape:version="1.0.2 (e86c870879, 2021-01-15)">
  <defs
     id="defs2" />
  <sodipodi:namedview
     id="base"
     pagecolor="#ffffff"
     bordercolor="#666666"
     borderopacity="1.0"
     inkscape:pageopacity="0.0"
     inkscape:pageshadow="2"
     inkscape:zoom="0.7"
     inkscape:cx="363.125"
     inkscape:cy="538.70536"
     inkscape:document-units="mm"
     inkscape:current-layer="layer2"
     inkscape:document-rotation="0"
     showgrid="false"
     inkscape:window-width="1181"
     inkscape:window-height="627"
     inkscape:window-x="0"
     inkscape:window-y="0"
     inkscape:window-maximized="1" />
  <metadata
     id="metadata5">
    <rdf:RDF>
      <cc:Work
         rdf:about="">
        <dc:format>image/svg+xml</dc:format>
        <dc:type
           rdf:resource="http://purl.org/dc/dcmitype/StillImage" />
        <dc:title></dc:title>
      </cc:Work>
    </rdf:RDF>
  </metadata>
  <g
     inkscape:label="Layer 1"
     inkscape:groupmode="layer"
     id="layer1"
     sodipodi:insensitive="true">
    <g
       transform="matrix(0.5386072,0,0,0.5386072,22.500125,78.079202)"
       ns63:version="1.3.0"
       ns63:texconverter="pdflatex"
       ns63:pdfconverter="inkscape"
       ns63:text="$$\n\\begin{array}{ccccccccccccccccccccccccccccccccc}\n\\frac{0}{1}&amp; &amp; &amp; &amp; &amp; &amp; &amp; &amp; &amp; &amp; &amp; &amp; &amp; &amp; &amp; &amp; &amp; &amp; &amp; &amp; &amp; &amp; &amp; &amp; &amp; &amp; &amp; &amp; &amp; &amp; &amp; &amp;\\frac{1}{1}\\\\\n &amp; &amp; &amp; &amp; &amp; &amp; &amp; &amp; &amp; &amp; &amp; &amp; &amp; &amp; &amp; &amp;\\frac{1}{2}&amp; &amp; &amp; &amp; &amp; &amp; &amp; &amp; &amp; &amp; &amp; &amp; &amp; &amp; &amp; &amp; \\\\\n &amp; &amp; &amp; &amp; &amp; &amp; &amp; &amp;\\frac{1}{3}&amp; &amp; &amp; &amp; &amp; &amp; &amp; &amp; &amp; &amp; &amp; &amp; &amp; &amp; &amp; &amp;\\frac{2}{3}&amp; &amp; &amp; &amp; &amp; &amp; &amp; &amp; \\\\\n &amp; &amp; &amp; &amp;\\frac{1}{4}&amp; &amp; &amp; &amp; &amp; &amp; &amp; &amp;\\frac{2}{5}&amp; &amp; &amp; &amp; &amp; &amp; &amp; &amp;\\frac{3}{5}&amp; &amp; &amp; &amp; &amp; &amp; &amp; &amp;\\frac{3}{4}&amp; &amp; &amp; &amp; \\\\\n &amp; &amp;\\frac{1}{5}&amp; &amp; &amp; &amp;\\frac{2}{7}&amp; &amp; &amp; &amp;\\frac{3}{8}&amp; &amp; &amp; &amp;\\frac{3}{7}&amp; &amp; &amp; &amp;\\frac{4}{7}&amp; &amp; &amp; &amp;\\frac{5}{8}&amp; &amp; &amp; &amp;\\frac{5}{7}&amp; &amp; &amp; &amp;\\frac{4}{5}&amp; &amp; \\\\\n &amp;\\frac{1}{6}&amp; &amp;\\frac{2}{9}&amp; &amp;\\frac{3}{11}&amp; &amp;\\frac{3}{10}&amp; &amp;\\frac{4}{11}&amp; &amp;\\frac{5}{13}&amp; &amp;\\frac{5}{12}&amp; &amp;\\frac{4}{9}&amp; &amp;\\frac{5}{9}&amp; &amp;\\frac{7}{12}&amp; &amp;\\frac{8}{13}&amp; &amp;\\frac{7}{11}&amp; &amp;\\frac{7}{10}&amp; &amp;\\frac{8}{11}&amp; &amp;\\frac{7}{9}&amp; &amp;\\frac{5}{6}&amp; \n\\end{array}\n$$"
       ns63:preamble="/usr/share/inkscape/extensions/textext/default_packages.tex"
       ns63:scale="4.0"
       ns63:alignment="middle center"
       ns63:jacobian_sqrt="1.41111"
       id="g1131">
      <defs
         id="id-87066863-ddfc-48f6-b8d8-ba24e7038f43">
        <g
           id="id-4210ae7e-7864-4832-bee4-9f623221b3d3">
          <symbol
             overflow="visible"
             id="id-15d88882-8495-4944-90f8-80138ab6b152">
            <path
               style="stroke:none;stroke-width:0"
               d=""
               id="id-363f979d-2494-4c1c-8c22-4e9e772f3a46" />
          </symbol>
          <symbol
             overflow="visible"
             id="id-e5ebef3c-df18-4a16-a46e-a57368554ae5">
            <path
               style="stroke:none;stroke-width:0"
               d="M 3.59375,-2.21875 C 3.59375,-2.984375 3.5,-3.546875 3.1875,-4.03125 2.96875,-4.34375 2.53125,-4.625 1.984375,-4.625 c -1.625,0 -1.625,1.90625 -1.625,2.40625 0,0.5 0,2.359375 1.625,2.359375 1.609375,0 1.609375,-1.859375 1.609375,-2.359375 z M 1.984375,-0.0625 c -0.328125,0 -0.75,-0.1875 -0.890625,-0.75 C 1,-1.21875 1,-1.796875 1,-2.3125 1,-2.828125 1,-3.359375 1.09375,-3.734375 1.25,-4.28125 1.6875,-4.4375 1.984375,-4.4375 c 0.375,0 0.734375,0.234375 0.859375,0.640625 0.109375,0.375 0.125,0.875 0.125,1.484375 0,0.515625 0,1.03125 -0.09375,1.46875 -0.140625,0.640625 -0.609375,0.78125 -0.890625,0.78125 z m 0,0"
               id="id-7b000ffd-c24b-4a4e-91d6-5379a5a81385" />
          </symbol>
          <symbol
             overflow="visible"
             id="id-0ef85913-daa8-4e92-94a3-db01235bdd07">
            <path
               style="stroke:none;stroke-width:0"
               d="m 2.328125,-4.4375 c 0,-0.1875 0,-0.1875 -0.203125,-0.1875 -0.453125,0.4375 -1.078125,0.4375 -1.359375,0.4375 v 0.25 c 0.15625,0 0.625,0 1,-0.1875 v 3.546875 c 0,0.234375 0,0.328125 -0.6875,0.328125 H 0.8125 V 0 c 0.125,0 0.984375,-0.03125 1.234375,-0.03125 0.21875,0 1.09375,0.03125 1.25,0.03125 V -0.25 H 3.03125 c -0.703125,0 -0.703125,-0.09375 -0.703125,-0.328125 z m 0,0"
               id="id-1f3e73f4-5870-45a5-b069-8423c722bc4c" />
          </symbol>
          <symbol
             overflow="visible"
             id="id-2144cae9-69cc-4dca-a537-5f0421d3fdde">
            <path
               style="stroke:none;stroke-width:0"
               d="M 3.515625,-1.265625 H 3.28125 c -0.015625,0.15625 -0.09375,0.5625 -0.1875,0.625 C 3.046875,-0.59375 2.515625,-0.59375 2.40625,-0.59375 H 1.125 c 0.734375,-0.640625 0.984375,-0.84375 1.390625,-1.171875 0.515625,-0.40625 1,-0.84375 1,-1.5 0,-0.84375 -0.734375,-1.359375 -1.625,-1.359375 -0.859375,0 -1.453125,0.609375 -1.453125,1.25 0,0.34375 0.296875,0.390625 0.375,0.390625 0.15625,0 0.359375,-0.125 0.359375,-0.375 0,-0.125 -0.046875,-0.375 -0.40625,-0.375 C 0.984375,-4.21875 1.453125,-4.375 1.78125,-4.375 c 0.703125,0 1.0625,0.546875 1.0625,1.109375 0,0.609375 -0.4375,1.078125 -0.65625,1.328125 L 0.515625,-0.265625 C 0.4375,-0.203125 0.4375,-0.1875 0.4375,0 h 2.875 z m 0,0"
               id="id-1b58f64b-c359-43c8-b195-adbc40e1b121" />
          </symbol>
          <symbol
             overflow="visible"
             id="id-57aedb2f-2abd-4dd4-97ed-8fd2b91f7f74">
            <path
               style="stroke:none;stroke-width:0"
               d="m 1.90625,-2.328125 c 0.546875,0 0.9375,0.375 0.9375,1.125 0,0.859375 -0.515625,1.125 -0.90625,1.125 -0.28125,0 -0.90625,-0.078125 -1.1875,-0.5 0.328125,0 0.40625,-0.234375 0.40625,-0.390625 0,-0.21875 -0.171875,-0.375 -0.390625,-0.375 -0.1875,0 -0.390625,0.125 -0.390625,0.40625 0,0.65625 0.71875,1.078125 1.5625,1.078125 0.96875,0 1.640625,-0.65625 1.640625,-1.34375 0,-0.546875 -0.4375,-1.09375 -1.203125,-1.25 0.71875,-0.265625 0.984375,-0.78125 0.984375,-1.21875 0,-0.546875 -0.625,-0.953125 -1.40625,-0.953125 -0.765625,0 -1.359375,0.375 -1.359375,0.9375 0,0.234375 0.15625,0.359375 0.359375,0.359375 0.21875,0 0.359375,-0.15625 0.359375,-0.34375 0,-0.203125 -0.140625,-0.359375 -0.359375,-0.375 0.25,-0.296875 0.71875,-0.375 0.984375,-0.375 0.3125,0 0.75,0.15625 0.75,0.75 0,0.296875 -0.09375,0.625 -0.28125,0.828125 -0.21875,0.265625 -0.421875,0.28125 -0.765625,0.3125 -0.171875,0.015625 -0.1875,0.015625 -0.21875,0.015625 -0.015625,0 -0.078125,0.015625 -0.078125,0.09375 0,0.09375 0.0625,0.09375 0.1875,0.09375 z m 0,0"
               id="id-3d7f68fe-96ad-43a2-b1ae-39a1cc72c450" />
          </symbol>
          <symbol
             overflow="visible"
             id="id-e93fe3af-bf15-4cef-adf0-e65995e65e3a">
            <path
               style="stroke:none;stroke-width:0"
               d="m 3.6875,-1.140625 v -0.25 H 2.90625 V -4.5 c 0,-0.140625 0,-0.203125 -0.140625,-0.203125 -0.09375,0 -0.125,0 -0.1875,0.109375 l -2.3125,3.203125 v 0.25 h 2.0625 v 0.5625 c 0,0.25 0,0.328125 -0.578125,0.328125 H 1.5625 V 0 C 1.921875,-0.015625 2.359375,-0.03125 2.609375,-0.03125 2.875,-0.03125 3.3125,-0.015625 3.671875,0 v -0.25 h -0.1875 C 2.90625,-0.25 2.90625,-0.328125 2.90625,-0.578125 v -0.5625 z M 2.375,-3.9375 v 2.546875 H 0.53125 Z m 0,0"
               id="id-966bdc5d-e91d-4fa6-a8d6-44b5c7f6e01e" />
          </symbol>
          <symbol
             overflow="visible"
             id="id-6fea49a3-147f-4686-af82-22bf0f9a9162">
            <path
               style="stroke:none;stroke-width:0"
               d="m 1.078125,-3.890625 c 0.359375,0.09375 0.5625,0.09375 0.671875,0.09375 0.921875,0 1.46875,-0.625 1.46875,-0.734375 0,-0.078125 -0.046875,-0.09375 -0.078125,-0.09375 -0.015625,0 -0.03125,0 -0.0625,0.015625 -0.171875,0.0625 -0.53125,0.203125 -1.046875,0.203125 -0.203125,0 -0.5625,-0.015625 -1.015625,-0.1875 C 0.9375,-4.625 0.921875,-4.625 0.921875,-4.625 c -0.09375,0 -0.09375,0.078125 -0.09375,0.1875 v 2.046875 c 0,0.125 0,0.203125 0.109375,0.203125 0.0625,0 0.078125,0 0.140625,-0.09375 0.296875,-0.375 0.734375,-0.4375 0.96875,-0.4375 0.421875,0 0.609375,0.328125 0.640625,0.390625 0.125,0.234375 0.171875,0.5 0.171875,0.90625 0,0.203125 0,0.609375 -0.21875,0.921875 -0.171875,0.25 -0.46875,0.421875 -0.8125,0.421875 -0.453125,0 -0.921875,-0.25 -1.09375,-0.71875 0.265625,0.015625 0.40625,-0.15625 0.40625,-0.34375 0,-0.296875 -0.265625,-0.34375 -0.359375,-0.34375 0,0 -0.34375,0 -0.34375,0.375 0,0.625 0.578125,1.25 1.40625,1.25 0.890625,0 1.671875,-0.65625 1.671875,-1.546875 0,-0.78125 -0.59375,-1.5 -1.453125,-1.5 -0.3125,0 -0.671875,0.0625 -0.984375,0.328125 z m 0,0"
               id="id-c05dcaa7-ecec-45b0-84d3-a57f9621896e" />
          </symbol>
          <symbol
             overflow="visible"
             id="id-4ca49512-5666-472d-925c-ccf022945e70">
            <path
               style="stroke:none;stroke-width:0"
               d="m 3.734375,-4.203125 c 0.0625,-0.09375 0.0625,-0.109375 0.0625,-0.28125 H 1.96875 C 1.6875,-4.484375 1.609375,-4.5 1.359375,-4.515625 1,-4.546875 0.984375,-4.59375 0.96875,-4.703125 H 0.734375 l -0.25,1.484375 H 0.71875 c 0.015625,-0.109375 0.09375,-0.5625 0.203125,-0.640625 0.046875,-0.03125 0.625,-0.03125 0.71875,-0.03125 H 3.15625 c -0.21875,0.28125 -0.578125,0.71875 -0.71875,0.921875 -0.90625,1.1875 -1,2.296875 -1,2.703125 0,0.078125 0,0.40625 0.328125,0.40625 0.34375,0 0.34375,-0.3125 0.34375,-0.40625 v -0.28125 c 0,-1.34375 0.28125,-1.96875 0.578125,-2.34375 z m 0,0"
               id="id-41278e8e-c7f8-4760-b347-91ef70de657e" />
          </symbol>
          <symbol
             overflow="visible"
             id="id-a6194634-544a-4cba-80a3-62685c5d18fd">
            <path
               style="stroke:none;stroke-width:0"
               d="m 2.46875,-2.515625 c 0.546875,-0.265625 0.890625,-0.59375 0.890625,-1.078125 0,-0.671875 -0.703125,-1.03125 -1.375,-1.03125 -0.765625,0 -1.390625,0.5 -1.390625,1.15625 0,0.328125 0.15625,0.5625 0.28125,0.703125 0.125,0.15625 0.171875,0.1875 0.578125,0.421875 C 1.0625,-2.171875 0.375,-1.796875 0.375,-1.0625 c 0,0.765625 0.796875,1.203125 1.59375,1.203125 0.890625,0 1.609375,-0.5625 1.609375,-1.3125 0,-0.46875 -0.265625,-0.859375 -0.671875,-1.09375 -0.09375,-0.0625 -0.328125,-0.1875 -0.4375,-0.25 z m -1.125,-0.65625 c -0.1875,-0.109375 -0.375,-0.296875 -0.375,-0.5625 0,-0.4375 0.5,-0.6875 1,-0.6875 0.546875,0 1.03125,0.34375 1.03125,0.828125 0,0.625 -0.734375,0.9375 -0.734375,0.9375 -0.015625,0 -0.03125,0 -0.078125,-0.03125 z m 0.328125,0.96875 0.96875,0.546875 c 0.171875,0.109375 0.515625,0.3125 0.515625,0.71875 0,0.53125 -0.578125,0.859375 -1.171875,0.859375 -0.640625,0 -1.1875,-0.421875 -1.1875,-0.984375 0,-0.515625 0.375,-0.921875 0.875,-1.140625 z m 0,0"
               id="id-d3ba8812-0968-4591-9527-9107ea03f9f9" />
          </symbol>
          <symbol
             overflow="visible"
             id="id-e0113a26-b93a-4107-8df8-2dd0014ba293">
            <path
               style="stroke:none;stroke-width:0"
               d="m 1.046875,-2.28125 c 0,-0.5625 0.046875,-1.078125 0.3125,-1.515625 0.234375,-0.375 0.609375,-0.625 1.0625,-0.625 0.203125,0 0.484375,0.046875 0.625,0.234375 C 2.875,-4.171875 2.71875,-4.046875 2.71875,-3.84375 c 0,0.171875 0.125,0.328125 0.328125,0.328125 0.21875,0 0.34375,-0.140625 0.34375,-0.34375 0,-0.40625 -0.296875,-0.765625 -0.984375,-0.765625 -1,0 -2.03125,0.921875 -2.03125,2.421875 0,1.796875 0.84375,2.34375 1.625,2.34375 0.84375,0 1.578125,-0.65625 1.578125,-1.5625 0,-0.890625 -0.703125,-1.546875 -1.515625,-1.546875 -0.5625,0 -0.859375,0.375 -1.015625,0.6875 z M 2,-0.078125 c -0.359375,0 -0.625,-0.203125 -0.78125,-0.515625 C 1.125,-0.796875 1.0625,-1.15625 1.0625,-1.5625 c 0,-0.6875 0.40625,-1.203125 0.96875,-1.203125 0.3125,0 0.53125,0.125 0.703125,0.375 0.171875,0.265625 0.171875,0.5625 0.171875,0.96875 0,0.390625 0,0.6875 -0.1875,0.96875 -0.15625,0.234375 -0.390625,0.375 -0.71875,0.375 z m 0,0"
               id="id-a1f84603-b169-43df-b6bd-cf8ce0a72b1f" />
          </symbol>
          <symbol
             overflow="visible"
             id="id-60b432e5-778d-429d-b2ca-761fe65edd9d">
            <path
               style="stroke:none;stroke-width:0"
               d="m 2.90625,-2.078125 c 0,1.734375 -0.84375,2 -1.265625,2 -0.15625,0 -0.53125,-0.015625 -0.71875,-0.234375 0.296875,-0.03125 0.3125,-0.265625 0.3125,-0.328125 0,-0.171875 -0.125,-0.328125 -0.328125,-0.328125 -0.203125,0 -0.328125,0.140625 -0.328125,0.34375 0,0.46875 0.390625,0.765625 1.0625,0.765625 1,0 1.9375,-0.9375 1.9375,-2.4375 C 3.578125,-4.015625 2.8125,-4.625 2,-4.625 c -0.234375,0 -0.703125,0.03125 -1.109375,0.421875 -0.234375,0.234375 -0.515625,0.5 -0.515625,1.125 0,0.890625 0.703125,1.546875 1.515625,1.546875 0.5625,0 0.859375,-0.375 1.015625,-0.6875 z m -0.96875,0.34375 c -0.28125,0 -0.53125,-0.078125 -0.734375,-0.40625 -0.15625,-0.25 -0.15625,-0.546875 -0.15625,-0.9375 0,-0.40625 0,-0.671875 0.203125,-0.953125 0.171875,-0.25 0.390625,-0.390625 0.75,-0.390625 0.359375,0 0.578125,0.21875 0.6875,0.40625 0.1875,0.28125 0.203125,0.78125 0.203125,1.015625 0,0.90625 -0.515625,1.265625 -0.953125,1.265625 z m 0,0"
               id="id-81af1920-58e0-4ef1-8f42-24385e6a311e" />
          </symbol>
        </g>
      </defs>
      <g
         id="id-aa3188d1-3b2e-4aa7-84af-4b842a669d10"
         transform="translate(-139.945,-145.593)">
        <g
           style="fill:#000000;fill-opacity:1"
           id="id-5fbca533-9d28-4d75-991b-082c0dc95466">
          <g
             transform="translate(139.945,150.218)"
             id="g861">
            <path
               style="stroke:none;stroke-width:0"
               d="M 3.59375,-2.21875 C 3.59375,-2.984375 3.5,-3.546875 3.1875,-4.03125 2.96875,-4.34375 2.53125,-4.625 1.984375,-4.625 c -1.625,0 -1.625,1.90625 -1.625,2.40625 0,0.5 0,2.359375 1.625,2.359375 1.609375,0 1.609375,-1.859375 1.609375,-2.359375 z M 1.984375,-0.0625 c -0.328125,0 -0.75,-0.1875 -0.890625,-0.75 C 1,-1.21875 1,-1.796875 1,-2.3125 1,-2.828125 1,-3.359375 1.09375,-3.734375 1.25,-4.28125 1.6875,-4.4375 1.984375,-4.4375 c 0.375,0 0.734375,0.234375 0.859375,0.640625 0.109375,0.375 0.125,0.875 0.125,1.484375 0,0.515625 0,1.03125 -0.09375,1.46875 -0.140625,0.640625 -0.609375,0.78125 -0.890625,0.78125 z m 0,0"
               id="id-fd857fc2-eb2c-41f5-9dcd-d2c6917e21af" />
          </g>
        </g>
        <path
           style="fill:none;stroke:#000000;stroke-width:0.398;stroke-linecap:butt;stroke-linejoin:miter;stroke-miterlimit:10;stroke-opacity:1"
           d="M 3.125e-4,0.0015625 H 3.969063"
           transform="matrix(1,0,0,-1,139.945,151.65)"
           id="id-d6634849-7833-4cb4-9c6a-36aa934dedcb" />
        <g
           style="fill:#000000;fill-opacity:1"
           id="id-89a6a101-cef5-4a99-9115-5c22712ad86d">
          <g
             transform="translate(139.945,157.576)"
             id="g866">
            <path
               style="stroke:none;stroke-width:0"
               d="m 2.328125,-4.4375 c 0,-0.1875 0,-0.1875 -0.203125,-0.1875 -0.453125,0.4375 -1.078125,0.4375 -1.359375,0.4375 v 0.25 c 0.15625,0 0.625,0 1,-0.1875 v 3.546875 c 0,0.234375 0,0.328125 -0.6875,0.328125 H 0.8125 V 0 c 0.125,0 0.984375,-0.03125 1.234375,-0.03125 0.21875,0 1.09375,0.03125 1.25,0.03125 V -0.25 H 3.03125 c -0.703125,0 -0.703125,-0.09375 -0.703125,-0.328125 z m 0,0"
               id="id-2e9afe5b-35a5-4cca-bec3-9a35d4b3ed83" />
          </g>
        </g>
        <g
           style="fill:#000000;fill-opacity:1"
           id="id-0aecf98e-41e2-4753-8c23-0ec49519bc48">
          <g
             transform="translate(421,162.221)"
             id="g870">
            <path
               style="stroke:none;stroke-width:0"
               d="m 2.328125,-4.4375 c 0,-0.1875 0,-0.1875 -0.203125,-0.1875 -0.453125,0.4375 -1.078125,0.4375 -1.359375,0.4375 v 0.25 c 0.15625,0 0.625,0 1,-0.1875 v 3.546875 c 0,0.234375 0,0.328125 -0.6875,0.328125 H 0.8125 V 0 c 0.125,0 0.984375,-0.03125 1.234375,-0.03125 0.21875,0 1.09375,0.03125 1.25,0.03125 V -0.25 H 3.03125 c -0.703125,0 -0.703125,-0.09375 -0.703125,-0.328125 z m 0,0"
               id="id-2007a2ba-bdc1-4e4e-ba63-5e805d19f78b" />
          </g>
        </g>
        <path
           style="fill:none;stroke:#000000;stroke-width:0.398;stroke-linecap:butt;stroke-linejoin:miter;stroke-miterlimit:10;stroke-opacity:1"
           d="M 0,6.5625e-4 H 3.972656"
           transform="matrix(1,0,0,-1,421,163.653)"
           id="id-ef91d493-1742-403d-9998-1dce24ae4a01" />
        <g
           style="fill:#000000;fill-opacity:1"
           id="id-f4f34a17-32d2-47f4-9eda-e2639d6daa60">
          <g
             transform="translate(421,169.579)"
             id="g875">
            <path
               style="stroke:none;stroke-width:0"
               d="M 3.515625,-1.265625 H 3.28125 c -0.015625,0.15625 -0.09375,0.5625 -0.1875,0.625 C 3.046875,-0.59375 2.515625,-0.59375 2.40625,-0.59375 H 1.125 c 0.734375,-0.640625 0.984375,-0.84375 1.390625,-1.171875 0.515625,-0.40625 1,-0.84375 1,-1.5 0,-0.84375 -0.734375,-1.359375 -1.625,-1.359375 -0.859375,0 -1.453125,0.609375 -1.453125,1.25 0,0.34375 0.296875,0.390625 0.375,0.390625 0.15625,0 0.359375,-0.125 0.359375,-0.375 0,-0.125 -0.046875,-0.375 -0.40625,-0.375 C 0.984375,-4.21875 1.453125,-4.375 1.78125,-4.375 c 0.703125,0 1.0625,0.546875 1.0625,1.109375 0,0.609375 -0.4375,1.078125 -0.65625,1.328125 L 0.515625,-0.265625 C 0.4375,-0.203125 0.4375,-0.1875 0.4375,0 h 2.875 z m 0,0"
               id="id-61a5d23f-d9b2-4383-aaed-1d2ebd9bf2b9" />
          </g>
        </g>
        <g
           style="fill:#000000;fill-opacity:1"
           id="id-b045b516-5373-4c21-b8bc-a90b02728165">
          <g
             transform="translate(278.487,174.225)"
             id="g879">
            <path
               style="stroke:none;stroke-width:0"
               d="m 2.328125,-4.4375 c 0,-0.1875 0,-0.1875 -0.203125,-0.1875 -0.453125,0.4375 -1.078125,0.4375 -1.359375,0.4375 v 0.25 c 0.15625,0 0.625,0 1,-0.1875 v 3.546875 c 0,0.234375 0,0.328125 -0.6875,0.328125 H 0.8125 V 0 c 0.125,0 0.984375,-0.03125 1.234375,-0.03125 0.21875,0 1.09375,0.03125 1.25,0.03125 V -0.25 H 3.03125 c -0.703125,0 -0.703125,-0.09375 -0.703125,-0.328125 z m 0,0"
               id="id-9ff9b1d0-ba1a-4f2a-a3af-62e2e4f8d781" />
          </g>
        </g>
        <path
           style="fill:none;stroke:#000000;stroke-width:0.398;stroke-linecap:butt;stroke-linejoin:miter;stroke-miterlimit:10;stroke-opacity:1"
           d="M 0.00128125,7.5e-4 H 3.970031"
           transform="matrix(1,0,0,-1,278.487,175.657)"
           id="id-61c668a0-18ae-4017-b20d-22ba1b7c6ec6" />
        <g
           style="fill:#000000;fill-opacity:1"
           id="id-4fbef61e-e04e-4247-af43-6d0cd721250e">
          <g
             transform="translate(278.487,181.583)"
             id="g884">
            <path
               style="stroke:none;stroke-width:0"
               d="m 1.90625,-2.328125 c 0.546875,0 0.9375,0.375 0.9375,1.125 0,0.859375 -0.515625,1.125 -0.90625,1.125 -0.28125,0 -0.90625,-0.078125 -1.1875,-0.5 0.328125,0 0.40625,-0.234375 0.40625,-0.390625 0,-0.21875 -0.171875,-0.375 -0.390625,-0.375 -0.1875,0 -0.390625,0.125 -0.390625,0.40625 0,0.65625 0.71875,1.078125 1.5625,1.078125 0.96875,0 1.640625,-0.65625 1.640625,-1.34375 0,-0.546875 -0.4375,-1.09375 -1.203125,-1.25 0.71875,-0.265625 0.984375,-0.78125 0.984375,-1.21875 0,-0.546875 -0.625,-0.953125 -1.40625,-0.953125 -0.765625,0 -1.359375,0.375 -1.359375,0.9375 0,0.234375 0.15625,0.359375 0.359375,0.359375 0.21875,0 0.359375,-0.15625 0.359375,-0.34375 0,-0.203125 -0.140625,-0.359375 -0.359375,-0.375 0.25,-0.296875 0.71875,-0.375 0.984375,-0.375 0.3125,0 0.75,0.15625 0.75,0.75 0,0.296875 -0.09375,0.625 -0.28125,0.828125 -0.21875,0.265625 -0.421875,0.28125 -0.765625,0.3125 -0.171875,0.015625 -0.1875,0.015625 -0.21875,0.015625 -0.015625,0 -0.078125,0.015625 -0.078125,0.09375 0,0.09375 0.0625,0.09375 0.1875,0.09375 z m 0,0"
               id="id-22c1d7fa-bd7b-4c5c-bea8-13f01a45f8a3" />
          </g>
        </g>
        <g
           style="fill:#000000;fill-opacity:1"
           id="id-eaa70339-b2af-4215-bc1f-23fd5f8d9cc9">
          <g
             transform="translate(563.513,174.225)"
             id="g888">
            <path
               style="stroke:none;stroke-width:0"
               d="M 3.515625,-1.265625 H 3.28125 c -0.015625,0.15625 -0.09375,0.5625 -0.1875,0.625 C 3.046875,-0.59375 2.515625,-0.59375 2.40625,-0.59375 H 1.125 c 0.734375,-0.640625 0.984375,-0.84375 1.390625,-1.171875 0.515625,-0.40625 1,-0.84375 1,-1.5 0,-0.84375 -0.734375,-1.359375 -1.625,-1.359375 -0.859375,0 -1.453125,0.609375 -1.453125,1.25 0,0.34375 0.296875,0.390625 0.375,0.390625 0.15625,0 0.359375,-0.125 0.359375,-0.375 0,-0.125 -0.046875,-0.375 -0.40625,-0.375 C 0.984375,-4.21875 1.453125,-4.375 1.78125,-4.375 c 0.703125,0 1.0625,0.546875 1.0625,1.109375 0,0.609375 -0.4375,1.078125 -0.65625,1.328125 L 0.515625,-0.265625 C 0.4375,-0.203125 0.4375,-0.1875 0.4375,0 h 2.875 z m 0,0"
               id="id-9412c6c7-c997-4dd1-9365-10e95ae0dfd9" />
          </g>
        </g>
        <path
           style="fill:none;stroke:#000000;stroke-width:0.398;stroke-linecap:butt;stroke-linejoin:miter;stroke-miterlimit:10;stroke-opacity:1"
           d="M -0.00128125,7.5e-4 H 3.971375"
           transform="matrix(1,0,0,-1,563.513,175.657)"
           id="id-b7cb8f7b-3174-4101-ba43-0b64a5c02563" />
        <g
           style="fill:#000000;fill-opacity:1"
           id="id-0c88bcc3-260a-452e-83b7-0caa0f37ce9c">
          <g
             transform="translate(563.513,181.583)"
             id="g893">
            <path
               style="stroke:none;stroke-width:0"
               d="m 1.90625,-2.328125 c 0.546875,0 0.9375,0.375 0.9375,1.125 0,0.859375 -0.515625,1.125 -0.90625,1.125 -0.28125,0 -0.90625,-0.078125 -1.1875,-0.5 0.328125,0 0.40625,-0.234375 0.40625,-0.390625 0,-0.21875 -0.171875,-0.375 -0.390625,-0.375 -0.1875,0 -0.390625,0.125 -0.390625,0.40625 0,0.65625 0.71875,1.078125 1.5625,1.078125 0.96875,0 1.640625,-0.65625 1.640625,-1.34375 0,-0.546875 -0.4375,-1.09375 -1.203125,-1.25 0.71875,-0.265625 0.984375,-0.78125 0.984375,-1.21875 0,-0.546875 -0.625,-0.953125 -1.40625,-0.953125 -0.765625,0 -1.359375,0.375 -1.359375,0.9375 0,0.234375 0.15625,0.359375 0.359375,0.359375 0.21875,0 0.359375,-0.15625 0.359375,-0.34375 0,-0.203125 -0.140625,-0.359375 -0.359375,-0.375 0.25,-0.296875 0.71875,-0.375 0.984375,-0.375 0.3125,0 0.75,0.15625 0.75,0.75 0,0.296875 -0.09375,0.625 -0.28125,0.828125 -0.21875,0.265625 -0.421875,0.28125 -0.765625,0.3125 -0.171875,0.015625 -0.1875,0.015625 -0.21875,0.015625 -0.015625,0 -0.078125,0.015625 -0.078125,0.09375 0,0.09375 0.0625,0.09375 0.1875,0.09375 z m 0,0"
               id="id-91ad45c9-b197-47a8-818a-c908133bbf59" />
          </g>
        </g>
        <g
           style="fill:#000000;fill-opacity:1"
           id="id-76cb224d-0117-428c-8828-63bc95d3ec29">
          <g
             transform="translate(205.245,186.228)"
             id="g897">
            <path
               style="stroke:none;stroke-width:0"
               d="m 2.328125,-4.4375 c 0,-0.1875 0,-0.1875 -0.203125,-0.1875 -0.453125,0.4375 -1.078125,0.4375 -1.359375,0.4375 v 0.25 c 0.15625,0 0.625,0 1,-0.1875 v 3.546875 c 0,0.234375 0,0.328125 -0.6875,0.328125 H 0.8125 V 0 c 0.125,0 0.984375,-0.03125 1.234375,-0.03125 0.21875,0 1.09375,0.03125 1.25,0.03125 V -0.25 H 3.03125 c -0.703125,0 -0.703125,-0.09375 -0.703125,-0.328125 z m 0,0"
               id="id-7f12f966-add4-42a1-9b50-0cbf6dcbe2f4" />
          </g>
        </g>
        <path
           style="fill:none;stroke:#000000;stroke-width:0.398;stroke-linecap:butt;stroke-linejoin:miter;stroke-miterlimit:10;stroke-opacity:1"
           d="M 0.00109375,-1.5625e-4 H 3.969844"
           transform="matrix(1,0,0,-1,205.245,187.66)"
           id="id-43bba484-0369-485b-b04a-4bb971df6f6a" />
        <g
           style="fill:#000000;fill-opacity:1"
           id="id-b03e5a28-de3b-4d9e-83a0-6964e369fe63">
          <g
             transform="translate(205.245,193.586)"
             id="g902">
            <path
               style="stroke:none;stroke-width:0"
               d="m 3.6875,-1.140625 v -0.25 H 2.90625 V -4.5 c 0,-0.140625 0,-0.203125 -0.140625,-0.203125 -0.09375,0 -0.125,0 -0.1875,0.109375 l -2.3125,3.203125 v 0.25 h 2.0625 v 0.5625 c 0,0.25 0,0.328125 -0.578125,0.328125 H 1.5625 V 0 C 1.921875,-0.015625 2.359375,-0.03125 2.609375,-0.03125 2.875,-0.03125 3.3125,-0.015625 3.671875,0 v -0.25 h -0.1875 C 2.90625,-0.25 2.90625,-0.328125 2.90625,-0.578125 v -0.5625 z M 2.375,-3.9375 v 2.546875 H 0.53125 Z m 0,0"
               id="id-b2f7ebda-55cc-422c-b4ce-e1c100a59201" />
          </g>
        </g>
        <g
           style="fill:#000000;fill-opacity:1"
           id="id-70bcfd2d-2bda-470a-bac4-37d95979b3f9">
          <g
             transform="translate(351.729,186.228)"
             id="g906">
            <path
               style="stroke:none;stroke-width:0"
               d="M 3.515625,-1.265625 H 3.28125 c -0.015625,0.15625 -0.09375,0.5625 -0.1875,0.625 C 3.046875,-0.59375 2.515625,-0.59375 2.40625,-0.59375 H 1.125 c 0.734375,-0.640625 0.984375,-0.84375 1.390625,-1.171875 0.515625,-0.40625 1,-0.84375 1,-1.5 0,-0.84375 -0.734375,-1.359375 -1.625,-1.359375 -0.859375,0 -1.453125,0.609375 -1.453125,1.25 0,0.34375 0.296875,0.390625 0.375,0.390625 0.15625,0 0.359375,-0.125 0.359375,-0.375 0,-0.125 -0.046875,-0.375 -0.40625,-0.375 C 0.984375,-4.21875 1.453125,-4.375 1.78125,-4.375 c 0.703125,0 1.0625,0.546875 1.0625,1.109375 0,0.609375 -0.4375,1.078125 -0.65625,1.328125 L 0.515625,-0.265625 C 0.4375,-0.203125 0.4375,-0.1875 0.4375,0 h 2.875 z m 0,0"
               id="id-2ca83fcc-7dd8-4199-b45a-28282fda18f0" />
          </g>
        </g>
        <path
           style="fill:none;stroke:#000000;stroke-width:0.398;stroke-linecap:butt;stroke-linejoin:miter;stroke-miterlimit:10;stroke-opacity:1"
           d="M 0.00146875,-1.5625e-4 H 3.970219"
           transform="matrix(1,0,0,-1,351.729,187.66)"
           id="id-fa03f3b8-17da-438a-8741-27eca5ae52cf" />
        <g
           style="fill:#000000;fill-opacity:1"
           id="id-b51c8d00-8eca-49fe-b4fc-6979e7b4c6cb">
          <g
             transform="translate(351.729,193.586)"
             id="g911">
            <path
               style="stroke:none;stroke-width:0"
               d="m 1.078125,-3.890625 c 0.359375,0.09375 0.5625,0.09375 0.671875,0.09375 0.921875,0 1.46875,-0.625 1.46875,-0.734375 0,-0.078125 -0.046875,-0.09375 -0.078125,-0.09375 -0.015625,0 -0.03125,0 -0.0625,0.015625 -0.171875,0.0625 -0.53125,0.203125 -1.046875,0.203125 -0.203125,0 -0.5625,-0.015625 -1.015625,-0.1875 C 0.9375,-4.625 0.921875,-4.625 0.921875,-4.625 c -0.09375,0 -0.09375,0.078125 -0.09375,0.1875 v 2.046875 c 0,0.125 0,0.203125 0.109375,0.203125 0.0625,0 0.078125,0 0.140625,-0.09375 0.296875,-0.375 0.734375,-0.4375 0.96875,-0.4375 0.421875,0 0.609375,0.328125 0.640625,0.390625 0.125,0.234375 0.171875,0.5 0.171875,0.90625 0,0.203125 0,0.609375 -0.21875,0.921875 -0.171875,0.25 -0.46875,0.421875 -0.8125,0.421875 -0.453125,0 -0.921875,-0.25 -1.09375,-0.71875 0.265625,0.015625 0.40625,-0.15625 0.40625,-0.34375 0,-0.296875 -0.265625,-0.34375 -0.359375,-0.34375 0,0 -0.34375,0 -0.34375,0.375 0,0.625 0.578125,1.25 1.40625,1.25 0.890625,0 1.671875,-0.65625 1.671875,-1.546875 0,-0.78125 -0.59375,-1.5 -1.453125,-1.5 -0.3125,0 -0.671875,0.0625 -0.984375,0.328125 z m 0,0"
               id="id-402f5206-a195-4b3a-a521-718e0da5b9cb" />
          </g>
        </g>
        <g
           style="fill:#000000;fill-opacity:1"
           id="id-a1fd1de8-3913-443a-a498-7f57c93e2bc9">
          <g
             transform="translate(490.271,186.228)"
             id="g915">
            <path
               style="stroke:none;stroke-width:0"
               d="m 1.90625,-2.328125 c 0.546875,0 0.9375,0.375 0.9375,1.125 0,0.859375 -0.515625,1.125 -0.90625,1.125 -0.28125,0 -0.90625,-0.078125 -1.1875,-0.5 0.328125,0 0.40625,-0.234375 0.40625,-0.390625 0,-0.21875 -0.171875,-0.375 -0.390625,-0.375 -0.1875,0 -0.390625,0.125 -0.390625,0.40625 0,0.65625 0.71875,1.078125 1.5625,1.078125 0.96875,0 1.640625,-0.65625 1.640625,-1.34375 0,-0.546875 -0.4375,-1.09375 -1.203125,-1.25 0.71875,-0.265625 0.984375,-0.78125 0.984375,-1.21875 0,-0.546875 -0.625,-0.953125 -1.40625,-0.953125 -0.765625,0 -1.359375,0.375 -1.359375,0.9375 0,0.234375 0.15625,0.359375 0.359375,0.359375 0.21875,0 0.359375,-0.15625 0.359375,-0.34375 0,-0.203125 -0.140625,-0.359375 -0.359375,-0.375 0.25,-0.296875 0.71875,-0.375 0.984375,-0.375 0.3125,0 0.75,0.15625 0.75,0.75 0,0.296875 -0.09375,0.625 -0.28125,0.828125 -0.21875,0.265625 -0.421875,0.28125 -0.765625,0.3125 -0.171875,0.015625 -0.1875,0.015625 -0.21875,0.015625 -0.015625,0 -0.078125,0.015625 -0.078125,0.09375 0,0.09375 0.0625,0.09375 0.1875,0.09375 z m 0,0"
               id="id-65eeeecd-ebaa-4a33-a51a-cbc6bbd665dc" />
          </g>
        </g>
        <path
           style="fill:none;stroke:#000000;stroke-width:0.398;stroke-linecap:butt;stroke-linejoin:miter;stroke-miterlimit:10;stroke-opacity:1"
           d="M -0.00146875,-1.5625e-4 H 3.971188"
           transform="matrix(1,0,0,-1,490.271,187.66)"
           id="id-4edf1229-e9ff-4d85-b73b-1b032af30980" />
        <g
           style="fill:#000000;fill-opacity:1"
           id="id-75dde649-c6bc-4bd6-8302-a88069ec848d">
          <g
             transform="translate(490.271,193.586)"
             id="g920">
            <path
               style="stroke:none;stroke-width:0"
               d="m 1.078125,-3.890625 c 0.359375,0.09375 0.5625,0.09375 0.671875,0.09375 0.921875,0 1.46875,-0.625 1.46875,-0.734375 0,-0.078125 -0.046875,-0.09375 -0.078125,-0.09375 -0.015625,0 -0.03125,0 -0.0625,0.015625 -0.171875,0.0625 -0.53125,0.203125 -1.046875,0.203125 -0.203125,0 -0.5625,-0.015625 -1.015625,-0.1875 C 0.9375,-4.625 0.921875,-4.625 0.921875,-4.625 c -0.09375,0 -0.09375,0.078125 -0.09375,0.1875 v 2.046875 c 0,0.125 0,0.203125 0.109375,0.203125 0.0625,0 0.078125,0 0.140625,-0.09375 0.296875,-0.375 0.734375,-0.4375 0.96875,-0.4375 0.421875,0 0.609375,0.328125 0.640625,0.390625 0.125,0.234375 0.171875,0.5 0.171875,0.90625 0,0.203125 0,0.609375 -0.21875,0.921875 -0.171875,0.25 -0.46875,0.421875 -0.8125,0.421875 -0.453125,0 -0.921875,-0.25 -1.09375,-0.71875 0.265625,0.015625 0.40625,-0.15625 0.40625,-0.34375 0,-0.296875 -0.265625,-0.34375 -0.359375,-0.34375 0,0 -0.34375,0 -0.34375,0.375 0,0.625 0.578125,1.25 1.40625,1.25 0.890625,0 1.671875,-0.65625 1.671875,-1.546875 0,-0.78125 -0.59375,-1.5 -1.453125,-1.5 -0.3125,0 -0.671875,0.0625 -0.984375,0.328125 z m 0,0"
               id="id-d2ba476f-aeea-4cbd-849d-b50f4bcac140" />
          </g>
        </g>
        <g
           style="fill:#000000;fill-opacity:1"
           id="id-dd44feec-024b-4cc0-a7ff-df457175107f">
          <g
             transform="translate(172.595,198.232)"
             id="g924">
            <path
               style="stroke:none;stroke-width:0"
               d="m 2.328125,-4.4375 c 0,-0.1875 0,-0.1875 -0.203125,-0.1875 -0.453125,0.4375 -1.078125,0.4375 -1.359375,0.4375 v 0.25 c 0.15625,0 0.625,0 1,-0.1875 v 3.546875 c 0,0.234375 0,0.328125 -0.6875,0.328125 H 0.8125 V 0 c 0.125,0 0.984375,-0.03125 1.234375,-0.03125 0.21875,0 1.09375,0.03125 1.25,0.03125 V -0.25 H 3.03125 c -0.703125,0 -0.703125,-0.09375 -0.703125,-0.328125 z m 0,0"
               id="id-34d3ca08-0ed5-44b3-ad4f-ee1569cad66a" />
          </g>
        </g>
        <path
           style="fill:none;stroke:#000000;stroke-width:0.398;stroke-linecap:butt;stroke-linejoin:miter;stroke-miterlimit:10;stroke-opacity:1"
           d="M -0.00125,-6.25e-5 H 3.971406"
           transform="matrix(1,0,0,-1,172.595,199.664)"
           id="id-77af96c0-02e9-4eb6-b58f-def7ee00bd11" />
        <g
           style="fill:#000000;fill-opacity:1"
           id="id-3f35a131-2cfc-4023-9e61-f8d276fd2d3f">
          <g
             transform="translate(172.595,205.59)"
             id="g929">
            <path
               style="stroke:none;stroke-width:0"
               d="m 1.078125,-3.890625 c 0.359375,0.09375 0.5625,0.09375 0.671875,0.09375 0.921875,0 1.46875,-0.625 1.46875,-0.734375 0,-0.078125 -0.046875,-0.09375 -0.078125,-0.09375 -0.015625,0 -0.03125,0 -0.0625,0.015625 -0.171875,0.0625 -0.53125,0.203125 -1.046875,0.203125 -0.203125,0 -0.5625,-0.015625 -1.015625,-0.1875 C 0.9375,-4.625 0.921875,-4.625 0.921875,-4.625 c -0.09375,0 -0.09375,0.078125 -0.09375,0.1875 v 2.046875 c 0,0.125 0,0.203125 0.109375,0.203125 0.0625,0 0.078125,0 0.140625,-0.09375 0.296875,-0.375 0.734375,-0.4375 0.96875,-0.4375 0.421875,0 0.609375,0.328125 0.640625,0.390625 0.125,0.234375 0.171875,0.5 0.171875,0.90625 0,0.203125 0,0.609375 -0.21875,0.921875 -0.171875,0.25 -0.46875,0.421875 -0.8125,0.421875 -0.453125,0 -0.921875,-0.25 -1.09375,-0.71875 0.265625,0.015625 0.40625,-0.15625 0.40625,-0.34375 0,-0.296875 -0.265625,-0.34375 -0.359375,-0.34375 0,0 -0.34375,0 -0.34375,0.375 0,0.625 0.578125,1.25 1.40625,1.25 0.890625,0 1.671875,-0.65625 1.671875,-1.546875 0,-0.78125 -0.59375,-1.5 -1.453125,-1.5 -0.3125,0 -0.671875,0.0625 -0.984375,0.328125 z m 0,0"
               id="id-25842ea0-a95c-4c69-888e-1aee779af122" />
          </g>
        </g>
        <g
           style="fill:#000000;fill-opacity:1"
           id="id-54a5334a-a6ac-4b8e-acc0-8222bc962856">
          <g
             transform="translate(241.866,198.232)"
             id="g933">
            <path
               style="stroke:none;stroke-width:0"
               d="M 3.515625,-1.265625 H 3.28125 c -0.015625,0.15625 -0.09375,0.5625 -0.1875,0.625 C 3.046875,-0.59375 2.515625,-0.59375 2.40625,-0.59375 H 1.125 c 0.734375,-0.640625 0.984375,-0.84375 1.390625,-1.171875 0.515625,-0.40625 1,-0.84375 1,-1.5 0,-0.84375 -0.734375,-1.359375 -1.625,-1.359375 -0.859375,0 -1.453125,0.609375 -1.453125,1.25 0,0.34375 0.296875,0.390625 0.375,0.390625 0.15625,0 0.359375,-0.125 0.359375,-0.375 0,-0.125 -0.046875,-0.375 -0.40625,-0.375 C 0.984375,-4.21875 1.453125,-4.375 1.78125,-4.375 c 0.703125,0 1.0625,0.546875 1.0625,1.109375 0,0.609375 -0.4375,1.078125 -0.65625,1.328125 L 0.515625,-0.265625 C 0.4375,-0.203125 0.4375,-0.1875 0.4375,0 h 2.875 z m 0,0"
               id="id-1ac67601-5127-4cd0-b5b9-36fcd7fae9e7" />
          </g>
        </g>
        <path
           style="fill:none;stroke:#000000;stroke-width:0.398;stroke-linecap:butt;stroke-linejoin:miter;stroke-miterlimit:10;stroke-opacity:1"
           d="M 0.0011875,-6.25e-5 H 3.969937"
           transform="matrix(1,0,0,-1,241.866,199.664)"
           id="id-68262808-03bc-4d9c-9795-b48f444cf7e8" />
        <g
           style="fill:#000000;fill-opacity:1"
           id="id-bc33b9b9-896a-4f22-90ba-de36fb4b22a7">
          <g
             transform="translate(241.866,205.59)"
             id="g938">
            <path
               style="stroke:none;stroke-width:0"
               d="m 3.734375,-4.203125 c 0.0625,-0.09375 0.0625,-0.109375 0.0625,-0.28125 H 1.96875 C 1.6875,-4.484375 1.609375,-4.5 1.359375,-4.515625 1,-4.546875 0.984375,-4.59375 0.96875,-4.703125 H 0.734375 l -0.25,1.484375 H 0.71875 c 0.015625,-0.109375 0.09375,-0.5625 0.203125,-0.640625 0.046875,-0.03125 0.625,-0.03125 0.71875,-0.03125 H 3.15625 c -0.21875,0.28125 -0.578125,0.71875 -0.71875,0.921875 -0.90625,1.1875 -1,2.296875 -1,2.703125 0,0.078125 0,0.40625 0.328125,0.40625 0.34375,0 0.34375,-0.3125 0.34375,-0.40625 v -0.28125 c 0,-1.34375 0.28125,-1.96875 0.578125,-2.34375 z m 0,0"
               id="id-2bb760c2-5ce2-4ad0-92eb-afd8203f080e" />
          </g>
        </g>
        <g
           style="fill:#000000;fill-opacity:1"
           id="id-caeab35d-7244-458b-94e5-09685433a071">
          <g
             transform="translate(315.108,198.232)"
             id="g942">
            <path
               style="stroke:none;stroke-width:0"
               d="m 1.90625,-2.328125 c 0.546875,0 0.9375,0.375 0.9375,1.125 0,0.859375 -0.515625,1.125 -0.90625,1.125 -0.28125,0 -0.90625,-0.078125 -1.1875,-0.5 0.328125,0 0.40625,-0.234375 0.40625,-0.390625 0,-0.21875 -0.171875,-0.375 -0.390625,-0.375 -0.1875,0 -0.390625,0.125 -0.390625,0.40625 0,0.65625 0.71875,1.078125 1.5625,1.078125 0.96875,0 1.640625,-0.65625 1.640625,-1.34375 0,-0.546875 -0.4375,-1.09375 -1.203125,-1.25 0.71875,-0.265625 0.984375,-0.78125 0.984375,-1.21875 0,-0.546875 -0.625,-0.953125 -1.40625,-0.953125 -0.765625,0 -1.359375,0.375 -1.359375,0.9375 0,0.234375 0.15625,0.359375 0.359375,0.359375 0.21875,0 0.359375,-0.15625 0.359375,-0.34375 0,-0.203125 -0.140625,-0.359375 -0.359375,-0.375 0.25,-0.296875 0.71875,-0.375 0.984375,-0.375 0.3125,0 0.75,0.15625 0.75,0.75 0,0.296875 -0.09375,0.625 -0.28125,0.828125 -0.21875,0.265625 -0.421875,0.28125 -0.765625,0.3125 -0.171875,0.015625 -0.1875,0.015625 -0.21875,0.015625 -0.015625,0 -0.078125,0.015625 -0.078125,0.09375 0,0.09375 0.0625,0.09375 0.1875,0.09375 z m 0,0"
               id="id-10442b6f-7a21-476b-b066-5983dbe201f6" />
          </g>
        </g>
        <path
           style="fill:none;stroke:#000000;stroke-width:0.398;stroke-linecap:butt;stroke-linejoin:miter;stroke-miterlimit:10;stroke-opacity:1"
           d="m 0.001375,-6.25e-5 h 3.96875"
           transform="matrix(1,0,0,-1,315.108,199.664)"
           id="id-fdad77bc-50e2-4d6b-8b0d-3529b8f48ffa" />
        <g
           style="fill:#000000;fill-opacity:1"
           id="id-67ea8942-7a09-4c9c-b83e-651eec691ad5">
          <g
             transform="translate(315.108,205.59)"
             id="g947">
            <path
               style="stroke:none;stroke-width:0"
               d="m 2.46875,-2.515625 c 0.546875,-0.265625 0.890625,-0.59375 0.890625,-1.078125 0,-0.671875 -0.703125,-1.03125 -1.375,-1.03125 -0.765625,0 -1.390625,0.5 -1.390625,1.15625 0,0.328125 0.15625,0.5625 0.28125,0.703125 0.125,0.15625 0.171875,0.1875 0.578125,0.421875 C 1.0625,-2.171875 0.375,-1.796875 0.375,-1.0625 c 0,0.765625 0.796875,1.203125 1.59375,1.203125 0.890625,0 1.609375,-0.5625 1.609375,-1.3125 0,-0.46875 -0.265625,-0.859375 -0.671875,-1.09375 -0.09375,-0.0625 -0.328125,-0.1875 -0.4375,-0.25 z m -1.125,-0.65625 c -0.1875,-0.109375 -0.375,-0.296875 -0.375,-0.5625 0,-0.4375 0.5,-0.6875 1,-0.6875 0.546875,0 1.03125,0.34375 1.03125,0.828125 0,0.625 -0.734375,0.9375 -0.734375,0.9375 -0.015625,0 -0.03125,0 -0.078125,-0.03125 z m 0.328125,0.96875 0.96875,0.546875 c 0.171875,0.109375 0.515625,0.3125 0.515625,0.71875 0,0.53125 -0.578125,0.859375 -1.171875,0.859375 -0.640625,0 -1.1875,-0.421875 -1.1875,-0.984375 0,-0.515625 0.375,-0.921875 0.875,-1.140625 z m 0,0"
               id="id-6eb28f65-4da0-4761-bb01-4ac6b9f5a519" />
          </g>
        </g>
        <g
           style="fill:#000000;fill-opacity:1"
           id="id-564a4de4-eb8d-417a-9b42-1c0c012c8ada">
          <g
             transform="translate(388.35,198.232)"
             id="g951">
            <path
               style="stroke:none;stroke-width:0"
               d="m 1.90625,-2.328125 c 0.546875,0 0.9375,0.375 0.9375,1.125 0,0.859375 -0.515625,1.125 -0.90625,1.125 -0.28125,0 -0.90625,-0.078125 -1.1875,-0.5 0.328125,0 0.40625,-0.234375 0.40625,-0.390625 0,-0.21875 -0.171875,-0.375 -0.390625,-0.375 -0.1875,0 -0.390625,0.125 -0.390625,0.40625 0,0.65625 0.71875,1.078125 1.5625,1.078125 0.96875,0 1.640625,-0.65625 1.640625,-1.34375 0,-0.546875 -0.4375,-1.09375 -1.203125,-1.25 0.71875,-0.265625 0.984375,-0.78125 0.984375,-1.21875 0,-0.546875 -0.625,-0.953125 -1.40625,-0.953125 -0.765625,0 -1.359375,0.375 -1.359375,0.9375 0,0.234375 0.15625,0.359375 0.359375,0.359375 0.21875,0 0.359375,-0.15625 0.359375,-0.34375 0,-0.203125 -0.140625,-0.359375 -0.359375,-0.375 0.25,-0.296875 0.71875,-0.375 0.984375,-0.375 0.3125,0 0.75,0.15625 0.75,0.75 0,0.296875 -0.09375,0.625 -0.28125,0.828125 -0.21875,0.265625 -0.421875,0.28125 -0.765625,0.3125 -0.171875,0.015625 -0.1875,0.015625 -0.21875,0.015625 -0.015625,0 -0.078125,0.015625 -0.078125,0.09375 0,0.09375 0.0625,0.09375 0.1875,0.09375 z m 0,0"
               id="id-0060cccc-c6f7-46e0-a8ad-777262ab978b" />
          </g>
        </g>
        <path
           style="fill:none;stroke:#000000;stroke-width:0.398;stroke-linecap:butt;stroke-linejoin:miter;stroke-miterlimit:10;stroke-opacity:1"
           d="M 0.0015625,-6.25e-5 H 3.970312"
           transform="matrix(1,0,0,-1,388.35,199.664)"
           id="id-504bd944-9262-4420-a690-22b400cf7d45" />
        <g
           style="fill:#000000;fill-opacity:1"
           id="id-8c9fcd90-8dd1-4688-a00e-88cbad59ab2a">
          <g
             transform="translate(388.35,205.59)"
             id="g956">
            <path
               style="stroke:none;stroke-width:0"
               d="m 3.734375,-4.203125 c 0.0625,-0.09375 0.0625,-0.109375 0.0625,-0.28125 H 1.96875 C 1.6875,-4.484375 1.609375,-4.5 1.359375,-4.515625 1,-4.546875 0.984375,-4.59375 0.96875,-4.703125 H 0.734375 l -0.25,1.484375 H 0.71875 c 0.015625,-0.109375 0.09375,-0.5625 0.203125,-0.640625 0.046875,-0.03125 0.625,-0.03125 0.71875,-0.03125 H 3.15625 c -0.21875,0.28125 -0.578125,0.71875 -0.71875,0.921875 -0.90625,1.1875 -1,2.296875 -1,2.703125 0,0.078125 0,0.40625 0.328125,0.40625 0.34375,0 0.34375,-0.3125 0.34375,-0.40625 v -0.28125 c 0,-1.34375 0.28125,-1.96875 0.578125,-2.34375 z m 0,0"
               id="id-26223c79-9a49-4dbe-8acd-0b401d8478a8" />
          </g>
        </g>
        <g
           style="fill:#000000;fill-opacity:1"
           id="id-aa79da14-c8cf-4081-88b6-6b2e63399843">
          <g
             transform="translate(453.65,198.232)"
             id="g960">
            <path
               style="stroke:none;stroke-width:0"
               d="m 3.6875,-1.140625 v -0.25 H 2.90625 V -4.5 c 0,-0.140625 0,-0.203125 -0.140625,-0.203125 -0.09375,0 -0.125,0 -0.1875,0.109375 l -2.3125,3.203125 v 0.25 h 2.0625 v 0.5625 c 0,0.25 0,0.328125 -0.578125,0.328125 H 1.5625 V 0 C 1.921875,-0.015625 2.359375,-0.03125 2.609375,-0.03125 2.875,-0.03125 3.3125,-0.015625 3.671875,0 v -0.25 h -0.1875 C 2.90625,-0.25 2.90625,-0.328125 2.90625,-0.578125 v -0.5625 z M 2.375,-3.9375 v 2.546875 H 0.53125 Z m 0,0"
               id="id-7a397a77-96bb-4382-825e-a067ba6299ab" />
          </g>
        </g>
        <path
           style="fill:none;stroke:#000000;stroke-width:0.398;stroke-linecap:butt;stroke-linejoin:miter;stroke-miterlimit:10;stroke-opacity:1"
           d="M -0.0015625,-6.25e-5 H 3.971094"
           transform="matrix(1,0,0,-1,453.65,199.664)"
           id="id-f0e36699-5fc0-4546-af4f-3e8eee72723d" />
        <g
           style="fill:#000000;fill-opacity:1"
           id="id-983f4498-45fd-4246-9210-55a71e3cdbd2">
          <g
             transform="translate(453.65,205.59)"
             id="g965">
            <path
               style="stroke:none;stroke-width:0"
               d="m 3.734375,-4.203125 c 0.0625,-0.09375 0.0625,-0.109375 0.0625,-0.28125 H 1.96875 C 1.6875,-4.484375 1.609375,-4.5 1.359375,-4.515625 1,-4.546875 0.984375,-4.59375 0.96875,-4.703125 H 0.734375 l -0.25,1.484375 H 0.71875 c 0.015625,-0.109375 0.09375,-0.5625 0.203125,-0.640625 0.046875,-0.03125 0.625,-0.03125 0.71875,-0.03125 H 3.15625 c -0.21875,0.28125 -0.578125,0.71875 -0.71875,0.921875 -0.90625,1.1875 -1,2.296875 -1,2.703125 0,0.078125 0,0.40625 0.328125,0.40625 0.34375,0 0.34375,-0.3125 0.34375,-0.40625 v -0.28125 c 0,-1.34375 0.28125,-1.96875 0.578125,-2.34375 z m 0,0"
               id="id-7f4c6420-5787-441c-a2e0-732593ab01e1" />
          </g>
        </g>
        <g
           style="fill:#000000;fill-opacity:1"
           id="id-b098be87-ee0b-43af-9a58-712055865194">
          <g
             transform="translate(526.892,198.232)"
             id="g969">
            <path
               style="stroke:none;stroke-width:0"
               d="m 1.078125,-3.890625 c 0.359375,0.09375 0.5625,0.09375 0.671875,0.09375 0.921875,0 1.46875,-0.625 1.46875,-0.734375 0,-0.078125 -0.046875,-0.09375 -0.078125,-0.09375 -0.015625,0 -0.03125,0 -0.0625,0.015625 -0.171875,0.0625 -0.53125,0.203125 -1.046875,0.203125 -0.203125,0 -0.5625,-0.015625 -1.015625,-0.1875 C 0.9375,-4.625 0.921875,-4.625 0.921875,-4.625 c -0.09375,0 -0.09375,0.078125 -0.09375,0.1875 v 2.046875 c 0,0.125 0,0.203125 0.109375,0.203125 0.0625,0 0.078125,0 0.140625,-0.09375 0.296875,-0.375 0.734375,-0.4375 0.96875,-0.4375 0.421875,0 0.609375,0.328125 0.640625,0.390625 0.125,0.234375 0.171875,0.5 0.171875,0.90625 0,0.203125 0,0.609375 -0.21875,0.921875 -0.171875,0.25 -0.46875,0.421875 -0.8125,0.421875 -0.453125,0 -0.921875,-0.25 -1.09375,-0.71875 0.265625,0.015625 0.40625,-0.15625 0.40625,-0.34375 0,-0.296875 -0.265625,-0.34375 -0.359375,-0.34375 0,0 -0.34375,0 -0.34375,0.375 0,0.625 0.578125,1.25 1.40625,1.25 0.890625,0 1.671875,-0.65625 1.671875,-1.546875 0,-0.78125 -0.59375,-1.5 -1.453125,-1.5 -0.3125,0 -0.671875,0.0625 -0.984375,0.328125 z m 0,0"
               id="id-508d983a-abd2-42ca-88a2-3cacaba1e258" />
          </g>
        </g>
        <path
           style="fill:none;stroke:#000000;stroke-width:0.398;stroke-linecap:butt;stroke-linejoin:miter;stroke-miterlimit:10;stroke-opacity:1"
           d="M -0.001375,-6.25e-5 H 3.971281"
           transform="matrix(1,0,0,-1,526.892,199.664)"
           id="id-74b48683-ece6-4094-a06e-451776595fae" />
        <g
           style="fill:#000000;fill-opacity:1"
           id="id-0d444988-d128-465e-b78f-0b61fc78995f">
          <g
             transform="translate(526.892,205.59)"
             id="g974">
            <path
               style="stroke:none;stroke-width:0"
               d="m 2.46875,-2.515625 c 0.546875,-0.265625 0.890625,-0.59375 0.890625,-1.078125 0,-0.671875 -0.703125,-1.03125 -1.375,-1.03125 -0.765625,0 -1.390625,0.5 -1.390625,1.15625 0,0.328125 0.15625,0.5625 0.28125,0.703125 0.125,0.15625 0.171875,0.1875 0.578125,0.421875 C 1.0625,-2.171875 0.375,-1.796875 0.375,-1.0625 c 0,0.765625 0.796875,1.203125 1.59375,1.203125 0.890625,0 1.609375,-0.5625 1.609375,-1.3125 0,-0.46875 -0.265625,-0.859375 -0.671875,-1.09375 -0.09375,-0.0625 -0.328125,-0.1875 -0.4375,-0.25 z m -1.125,-0.65625 c -0.1875,-0.109375 -0.375,-0.296875 -0.375,-0.5625 0,-0.4375 0.5,-0.6875 1,-0.6875 0.546875,0 1.03125,0.34375 1.03125,0.828125 0,0.625 -0.734375,0.9375 -0.734375,0.9375 -0.015625,0 -0.03125,0 -0.078125,-0.03125 z m 0.328125,0.96875 0.96875,0.546875 c 0.171875,0.109375 0.515625,0.3125 0.515625,0.71875 0,0.53125 -0.578125,0.859375 -1.171875,0.859375 -0.640625,0 -1.1875,-0.421875 -1.1875,-0.984375 0,-0.515625 0.375,-0.921875 0.875,-1.140625 z m 0,0"
               id="id-e0cae7a8-f3fa-48de-b71d-476d789caf1e" />
          </g>
        </g>
        <g
           style="fill:#000000;fill-opacity:1"
           id="id-e063f80b-cb9f-4da6-9d2a-1262c95f9899">
          <g
             transform="translate(600.134,198.232)"
             id="g978">
            <path
               style="stroke:none;stroke-width:0"
               d="m 1.078125,-3.890625 c 0.359375,0.09375 0.5625,0.09375 0.671875,0.09375 0.921875,0 1.46875,-0.625 1.46875,-0.734375 0,-0.078125 -0.046875,-0.09375 -0.078125,-0.09375 -0.015625,0 -0.03125,0 -0.0625,0.015625 -0.171875,0.0625 -0.53125,0.203125 -1.046875,0.203125 -0.203125,0 -0.5625,-0.015625 -1.015625,-0.1875 C 0.9375,-4.625 0.921875,-4.625 0.921875,-4.625 c -0.09375,0 -0.09375,0.078125 -0.09375,0.1875 v 2.046875 c 0,0.125 0,0.203125 0.109375,0.203125 0.0625,0 0.078125,0 0.140625,-0.09375 0.296875,-0.375 0.734375,-0.4375 0.96875,-0.4375 0.421875,0 0.609375,0.328125 0.640625,0.390625 0.125,0.234375 0.171875,0.5 0.171875,0.90625 0,0.203125 0,0.609375 -0.21875,0.921875 -0.171875,0.25 -0.46875,0.421875 -0.8125,0.421875 -0.453125,0 -0.921875,-0.25 -1.09375,-0.71875 0.265625,0.015625 0.40625,-0.15625 0.40625,-0.34375 0,-0.296875 -0.265625,-0.34375 -0.359375,-0.34375 0,0 -0.34375,0 -0.34375,0.375 0,0.625 0.578125,1.25 1.40625,1.25 0.890625,0 1.671875,-0.65625 1.671875,-1.546875 0,-0.78125 -0.59375,-1.5 -1.453125,-1.5 -0.3125,0 -0.671875,0.0625 -0.984375,0.328125 z m 0,0"
               id="id-34d37741-2795-44f4-a25c-359f61f0300d" />
          </g>
        </g>
        <path
           style="fill:none;stroke:#000000;stroke-width:0.398;stroke-linecap:butt;stroke-linejoin:miter;stroke-miterlimit:10;stroke-opacity:1"
           d="M -0.0011875,-6.25e-5 H 3.971469"
           transform="matrix(1,0,0,-1,600.134,199.664)"
           id="id-22c44b39-9b0c-4dba-8d4a-8576c65744be" />
        <g
           style="fill:#000000;fill-opacity:1"
           id="id-c69ac99b-0944-4404-95e9-62ea2c8ca781">
          <g
             transform="translate(600.134,205.59)"
             id="g983">
            <path
               style="stroke:none;stroke-width:0"
               d="m 3.734375,-4.203125 c 0.0625,-0.09375 0.0625,-0.109375 0.0625,-0.28125 H 1.96875 C 1.6875,-4.484375 1.609375,-4.5 1.359375,-4.515625 1,-4.546875 0.984375,-4.59375 0.96875,-4.703125 H 0.734375 l -0.25,1.484375 H 0.71875 c 0.015625,-0.109375 0.09375,-0.5625 0.203125,-0.640625 0.046875,-0.03125 0.625,-0.03125 0.71875,-0.03125 H 3.15625 c -0.21875,0.28125 -0.578125,0.71875 -0.71875,0.921875 -0.90625,1.1875 -1,2.296875 -1,2.703125 0,0.078125 0,0.40625 0.328125,0.40625 0.34375,0 0.34375,-0.3125 0.34375,-0.40625 v -0.28125 c 0,-1.34375 0.28125,-1.96875 0.578125,-2.34375 z m 0,0"
               id="id-51df8a46-eb75-4d38-818b-c58cb919dd25" />
          </g>
        </g>
        <g
           style="fill:#000000;fill-opacity:1"
           id="id-27295ed2-afe8-4176-b064-355abb9aed7a">
          <g
             transform="translate(156.27,210.235)"
             id="g987">
            <path
               style="stroke:none;stroke-width:0"
               d="m 2.328125,-4.4375 c 0,-0.1875 0,-0.1875 -0.203125,-0.1875 -0.453125,0.4375 -1.078125,0.4375 -1.359375,0.4375 v 0.25 c 0.15625,0 0.625,0 1,-0.1875 v 3.546875 c 0,0.234375 0,0.328125 -0.6875,0.328125 H 0.8125 V 0 c 0.125,0 0.984375,-0.03125 1.234375,-0.03125 0.21875,0 1.09375,0.03125 1.25,0.03125 V -0.25 H 3.03125 c -0.703125,0 -0.703125,-0.09375 -0.703125,-0.328125 z m 0,0"
               id="id-880dc47c-3cb1-4786-a367-0611da89ccdd" />
          </g>
        </g>
        <path
           style="fill:none;stroke:#000000;stroke-width:0.398;stroke-linecap:butt;stroke-linejoin:miter;stroke-miterlimit:10;stroke-opacity:1"
           d="M -4.6875e-4,-9.6875e-4 H 3.972188"
           transform="matrix(1,0,0,-1,156.27,211.667)"
           id="id-586036d9-47f5-4292-8069-157dac9d5eab" />
        <g
           style="fill:#000000;fill-opacity:1"
           id="id-a6cf7a1f-619e-4f9c-882f-a49dd6639d3c">
          <g
             transform="translate(156.27,217.593)"
             id="g992">
            <path
               style="stroke:none;stroke-width:0"
               d="m 1.046875,-2.28125 c 0,-0.5625 0.046875,-1.078125 0.3125,-1.515625 0.234375,-0.375 0.609375,-0.625 1.0625,-0.625 0.203125,0 0.484375,0.046875 0.625,0.234375 C 2.875,-4.171875 2.71875,-4.046875 2.71875,-3.84375 c 0,0.171875 0.125,0.328125 0.328125,0.328125 0.21875,0 0.34375,-0.140625 0.34375,-0.34375 0,-0.40625 -0.296875,-0.765625 -0.984375,-0.765625 -1,0 -2.03125,0.921875 -2.03125,2.421875 0,1.796875 0.84375,2.34375 1.625,2.34375 0.84375,0 1.578125,-0.65625 1.578125,-1.5625 0,-0.890625 -0.703125,-1.546875 -1.515625,-1.546875 -0.5625,0 -0.859375,0.375 -1.015625,0.6875 z M 2,-0.078125 c -0.359375,0 -0.625,-0.203125 -0.78125,-0.515625 C 1.125,-0.796875 1.0625,-1.15625 1.0625,-1.5625 c 0,-0.6875 0.40625,-1.203125 0.96875,-1.203125 0.3125,0 0.53125,0.125 0.703125,0.375 0.171875,0.265625 0.171875,0.5625 0.171875,0.96875 0,0.390625 0,0.6875 -0.1875,0.96875 -0.15625,0.234375 -0.390625,0.375 -0.71875,0.375 z m 0,0"
               id="id-a1cc85c2-b197-4945-a8d9-9f09e086f684" />
          </g>
        </g>
        <g
           style="fill:#000000;fill-opacity:1"
           id="id-fb3fb54c-fb2f-4a4d-8f48-2f6eb4acf5b8">
          <g
             transform="translate(188.92,210.235)"
             id="g996">
            <path
               style="stroke:none;stroke-width:0"
               d="M 3.515625,-1.265625 H 3.28125 c -0.015625,0.15625 -0.09375,0.5625 -0.1875,0.625 C 3.046875,-0.59375 2.515625,-0.59375 2.40625,-0.59375 H 1.125 c 0.734375,-0.640625 0.984375,-0.84375 1.390625,-1.171875 0.515625,-0.40625 1,-0.84375 1,-1.5 0,-0.84375 -0.734375,-1.359375 -1.625,-1.359375 -0.859375,0 -1.453125,0.609375 -1.453125,1.25 0,0.34375 0.296875,0.390625 0.375,0.390625 0.15625,0 0.359375,-0.125 0.359375,-0.375 0,-0.125 -0.046875,-0.375 -0.40625,-0.375 C 0.984375,-4.21875 1.453125,-4.375 1.78125,-4.375 c 0.703125,0 1.0625,0.546875 1.0625,1.109375 0,0.609375 -0.4375,1.078125 -0.65625,1.328125 L 0.515625,-0.265625 C 0.4375,-0.203125 0.4375,-0.1875 0.4375,0 h 2.875 z m 0,0"
               id="id-eb1838ea-1beb-4f73-8d62-632f265af658" />
          </g>
        </g>
        <path
           style="fill:none;stroke:#000000;stroke-width:0.398;stroke-linecap:butt;stroke-linejoin:miter;stroke-miterlimit:10;stroke-opacity:1"
           d="m 0.001875,-9.6875e-4 h 3.96875"
           transform="matrix(1,0,0,-1,188.92,211.667)"
           id="id-529cc4e3-1302-491e-8feb-92f7fc231ada" />
        <g
           style="fill:#000000;fill-opacity:1"
           id="id-c1152aec-c788-45a4-84e4-7218e00df4d7">
          <g
             transform="translate(188.92,217.593)"
             id="g1001">
            <path
               style="stroke:none;stroke-width:0"
               d="m 2.90625,-2.078125 c 0,1.734375 -0.84375,2 -1.265625,2 -0.15625,0 -0.53125,-0.015625 -0.71875,-0.234375 0.296875,-0.03125 0.3125,-0.265625 0.3125,-0.328125 0,-0.171875 -0.125,-0.328125 -0.328125,-0.328125 -0.203125,0 -0.328125,0.140625 -0.328125,0.34375 0,0.46875 0.390625,0.765625 1.0625,0.765625 1,0 1.9375,-0.9375 1.9375,-2.4375 C 3.578125,-4.015625 2.8125,-4.625 2,-4.625 c -0.234375,0 -0.703125,0.03125 -1.109375,0.421875 -0.234375,0.234375 -0.515625,0.5 -0.515625,1.125 0,0.890625 0.703125,1.546875 1.515625,1.546875 0.5625,0 0.859375,-0.375 1.015625,-0.6875 z m -0.96875,0.34375 c -0.28125,0 -0.53125,-0.078125 -0.734375,-0.40625 -0.15625,-0.25 -0.15625,-0.546875 -0.15625,-0.9375 0,-0.40625 0,-0.671875 0.203125,-0.953125 0.171875,-0.25 0.390625,-0.390625 0.75,-0.390625 0.359375,0 0.578125,0.21875 0.6875,0.40625 0.1875,0.28125 0.203125,0.78125 0.203125,1.015625 0,0.90625 -0.515625,1.265625 -0.953125,1.265625 z m 0,0"
               id="id-73cf19d8-f8cf-4234-b442-f07ff7bb800a" />
          </g>
        </g>
        <g
           style="fill:#000000;fill-opacity:1"
           id="id-43e37752-25ee-49fb-82bc-75b132ab1975">
          <g
             transform="translate(223.555,210.235)"
             id="g1005">
            <path
               style="stroke:none;stroke-width:0"
               d="m 1.90625,-2.328125 c 0.546875,0 0.9375,0.375 0.9375,1.125 0,0.859375 -0.515625,1.125 -0.90625,1.125 -0.28125,0 -0.90625,-0.078125 -1.1875,-0.5 0.328125,0 0.40625,-0.234375 0.40625,-0.390625 0,-0.21875 -0.171875,-0.375 -0.390625,-0.375 -0.1875,0 -0.390625,0.125 -0.390625,0.40625 0,0.65625 0.71875,1.078125 1.5625,1.078125 0.96875,0 1.640625,-0.65625 1.640625,-1.34375 0,-0.546875 -0.4375,-1.09375 -1.203125,-1.25 0.71875,-0.265625 0.984375,-0.78125 0.984375,-1.21875 0,-0.546875 -0.625,-0.953125 -1.40625,-0.953125 -0.765625,0 -1.359375,0.375 -1.359375,0.9375 0,0.234375 0.15625,0.359375 0.359375,0.359375 0.21875,0 0.359375,-0.15625 0.359375,-0.34375 0,-0.203125 -0.140625,-0.359375 -0.359375,-0.375 0.25,-0.296875 0.71875,-0.375 0.984375,-0.375 0.3125,0 0.75,0.15625 0.75,0.75 0,0.296875 -0.09375,0.625 -0.28125,0.828125 -0.21875,0.265625 -0.421875,0.28125 -0.765625,0.3125 -0.171875,0.015625 -0.1875,0.015625 -0.21875,0.015625 -0.015625,0 -0.078125,0.015625 -0.078125,0.09375 0,0.09375 0.0625,0.09375 0.1875,0.09375 z m 0,0"
               id="id-4dd48366-d556-4a83-8c4b-cad7d395ba8e" />
          </g>
        </g>
        <path
           style="fill:none;stroke:#000000;stroke-width:0.398;stroke-linecap:butt;stroke-linejoin:miter;stroke-miterlimit:10;stroke-opacity:1"
           d="M 3.125e-4,-9.6875e-4 H 7.941719"
           transform="matrix(1,0,0,-1,221.57,211.667)"
           id="id-e5e3b1f7-3f66-40ce-b908-2891301dbc52" />
        <g
           style="fill:#000000;fill-opacity:1"
           id="id-55a83ab4-d045-40e2-97c2-0a857ed87fbb">
          <g
             transform="translate(221.57,217.593)"
             id="g1010">
            <path
               style="stroke:none;stroke-width:0"
               d="m 2.328125,-4.4375 c 0,-0.1875 0,-0.1875 -0.203125,-0.1875 -0.453125,0.4375 -1.078125,0.4375 -1.359375,0.4375 v 0.25 c 0.15625,0 0.625,0 1,-0.1875 v 3.546875 c 0,0.234375 0,0.328125 -0.6875,0.328125 H 0.8125 V 0 c 0.125,0 0.984375,-0.03125 1.234375,-0.03125 0.21875,0 1.09375,0.03125 1.25,0.03125 V -0.25 H 3.03125 c -0.703125,0 -0.703125,-0.09375 -0.703125,-0.328125 z m 0,0"
               id="id-7be74ea9-2263-499f-a6bb-d39a4d61aced" />
          </g>
          <g
             transform="translate(225.542,217.593)"
             id="g1013">
            <path
               style="stroke:none;stroke-width:0"
               d="m 2.328125,-4.4375 c 0,-0.1875 0,-0.1875 -0.203125,-0.1875 -0.453125,0.4375 -1.078125,0.4375 -1.359375,0.4375 v 0.25 c 0.15625,0 0.625,0 1,-0.1875 v 3.546875 c 0,0.234375 0,0.328125 -0.6875,0.328125 H 0.8125 V 0 c 0.125,0 0.984375,-0.03125 1.234375,-0.03125 0.21875,0 1.09375,0.03125 1.25,0.03125 V -0.25 H 3.03125 c -0.703125,0 -0.703125,-0.09375 -0.703125,-0.328125 z m 0,0"
               id="id-3ddf75f2-b45a-422f-8af5-fcad71ec3d07" />
          </g>
        </g>
        <g
           style="fill:#000000;fill-opacity:1"
           id="id-9860affe-3930-4dc0-ba9f-09189e4dae18">
          <g
             transform="translate(260.176,210.235)"
             id="g1017">
            <path
               style="stroke:none;stroke-width:0"
               d="m 1.90625,-2.328125 c 0.546875,0 0.9375,0.375 0.9375,1.125 0,0.859375 -0.515625,1.125 -0.90625,1.125 -0.28125,0 -0.90625,-0.078125 -1.1875,-0.5 0.328125,0 0.40625,-0.234375 0.40625,-0.390625 0,-0.21875 -0.171875,-0.375 -0.390625,-0.375 -0.1875,0 -0.390625,0.125 -0.390625,0.40625 0,0.65625 0.71875,1.078125 1.5625,1.078125 0.96875,0 1.640625,-0.65625 1.640625,-1.34375 0,-0.546875 -0.4375,-1.09375 -1.203125,-1.25 0.71875,-0.265625 0.984375,-0.78125 0.984375,-1.21875 0,-0.546875 -0.625,-0.953125 -1.40625,-0.953125 -0.765625,0 -1.359375,0.375 -1.359375,0.9375 0,0.234375 0.15625,0.359375 0.359375,0.359375 0.21875,0 0.359375,-0.15625 0.359375,-0.34375 0,-0.203125 -0.140625,-0.359375 -0.359375,-0.375 0.25,-0.296875 0.71875,-0.375 0.984375,-0.375 0.3125,0 0.75,0.15625 0.75,0.75 0,0.296875 -0.09375,0.625 -0.28125,0.828125 -0.21875,0.265625 -0.421875,0.28125 -0.765625,0.3125 -0.171875,0.015625 -0.1875,0.015625 -0.21875,0.015625 -0.015625,0 -0.078125,0.015625 -0.078125,0.09375 0,0.09375 0.0625,0.09375 0.1875,0.09375 z m 0,0"
               id="id-aaf19ede-0718-47ab-9d9f-530417c53d7b" />
          </g>
        </g>
        <path
           style="fill:none;stroke:#000000;stroke-width:0.398;stroke-linecap:butt;stroke-linejoin:miter;stroke-miterlimit:10;stroke-opacity:1"
           d="M 4.0625e-4,-9.6875e-4 H 7.941813"
           transform="matrix(1,0,0,-1,258.191,211.667)"
           id="id-ddfe25c7-d4cf-452b-9add-09d47648384b" />
        <g
           style="fill:#000000;fill-opacity:1"
           id="id-9aa0f153-f599-470e-bfb5-4614e4a2fd00">
          <g
             transform="translate(258.191,217.593)"
             id="g1022">
            <path
               style="stroke:none;stroke-width:0"
               d="m 2.328125,-4.4375 c 0,-0.1875 0,-0.1875 -0.203125,-0.1875 -0.453125,0.4375 -1.078125,0.4375 -1.359375,0.4375 v 0.25 c 0.15625,0 0.625,0 1,-0.1875 v 3.546875 c 0,0.234375 0,0.328125 -0.6875,0.328125 H 0.8125 V 0 c 0.125,0 0.984375,-0.03125 1.234375,-0.03125 0.21875,0 1.09375,0.03125 1.25,0.03125 V -0.25 H 3.03125 c -0.703125,0 -0.703125,-0.09375 -0.703125,-0.328125 z m 0,0"
               id="id-aab70435-9645-4dd3-852b-d5809b3df725" />
          </g>
          <g
             transform="translate(262.163,217.593)"
             id="g1025">
            <path
               style="stroke:none;stroke-width:0"
               d="M 3.59375,-2.21875 C 3.59375,-2.984375 3.5,-3.546875 3.1875,-4.03125 2.96875,-4.34375 2.53125,-4.625 1.984375,-4.625 c -1.625,0 -1.625,1.90625 -1.625,2.40625 0,0.5 0,2.359375 1.625,2.359375 1.609375,0 1.609375,-1.859375 1.609375,-2.359375 z M 1.984375,-0.0625 c -0.328125,0 -0.75,-0.1875 -0.890625,-0.75 C 1,-1.21875 1,-1.796875 1,-2.3125 1,-2.828125 1,-3.359375 1.09375,-3.734375 1.25,-4.28125 1.6875,-4.4375 1.984375,-4.4375 c 0.375,0 0.734375,0.234375 0.859375,0.640625 0.109375,0.375 0.125,0.875 0.125,1.484375 0,0.515625 0,1.03125 -0.09375,1.46875 -0.140625,0.640625 -0.609375,0.78125 -0.890625,0.78125 z m 0,0"
               id="id-2d086ccf-0383-4121-929f-4193cb5dfcef" />
          </g>
        </g>
        <g
           style="fill:#000000;fill-opacity:1"
           id="id-f0df7a03-30b4-483f-a819-e287c4e8c4e0">
          <g
             transform="translate(296.797,210.235)"
             id="g1029">
            <path
               style="stroke:none;stroke-width:0"
               d="m 3.6875,-1.140625 v -0.25 H 2.90625 V -4.5 c 0,-0.140625 0,-0.203125 -0.140625,-0.203125 -0.09375,0 -0.125,0 -0.1875,0.109375 l -2.3125,3.203125 v 0.25 h 2.0625 v 0.5625 c 0,0.25 0,0.328125 -0.578125,0.328125 H 1.5625 V 0 C 1.921875,-0.015625 2.359375,-0.03125 2.609375,-0.03125 2.875,-0.03125 3.3125,-0.015625 3.671875,0 v -0.25 h -0.1875 C 2.90625,-0.25 2.90625,-0.328125 2.90625,-0.578125 v -0.5625 z M 2.375,-3.9375 v 2.546875 H 0.53125 Z m 0,0"
               id="id-f0c04f48-dbaf-4692-8cfb-150dd888df94" />
          </g>
        </g>
        <path
           style="fill:none;stroke:#000000;stroke-width:0.398;stroke-linecap:butt;stroke-linejoin:miter;stroke-miterlimit:10;stroke-opacity:1"
           d="M 5e-4,-9.6875e-4 H 7.941906"
           transform="matrix(1,0,0,-1,294.812,211.667)"
           id="id-d454ffc3-98e5-45f9-8174-434a35081945" />
        <g
           style="fill:#000000;fill-opacity:1"
           id="id-703f6fdd-c0e5-4799-9090-a5474eb56f4b">
          <g
             transform="translate(294.812,217.593)"
             id="g1034">
            <path
               style="stroke:none;stroke-width:0"
               d="m 2.328125,-4.4375 c 0,-0.1875 0,-0.1875 -0.203125,-0.1875 -0.453125,0.4375 -1.078125,0.4375 -1.359375,0.4375 v 0.25 c 0.15625,0 0.625,0 1,-0.1875 v 3.546875 c 0,0.234375 0,0.328125 -0.6875,0.328125 H 0.8125 V 0 c 0.125,0 0.984375,-0.03125 1.234375,-0.03125 0.21875,0 1.09375,0.03125 1.25,0.03125 V -0.25 H 3.03125 c -0.703125,0 -0.703125,-0.09375 -0.703125,-0.328125 z m 0,0"
               id="id-b7f88117-42d3-4f83-abc7-8dd6b331dd73" />
          </g>
          <g
             transform="translate(298.784,217.593)"
             id="g1037">
            <path
               style="stroke:none;stroke-width:0"
               d="m 2.328125,-4.4375 c 0,-0.1875 0,-0.1875 -0.203125,-0.1875 -0.453125,0.4375 -1.078125,0.4375 -1.359375,0.4375 v 0.25 c 0.15625,0 0.625,0 1,-0.1875 v 3.546875 c 0,0.234375 0,0.328125 -0.6875,0.328125 H 0.8125 V 0 c 0.125,0 0.984375,-0.03125 1.234375,-0.03125 0.21875,0 1.09375,0.03125 1.25,0.03125 V -0.25 H 3.03125 c -0.703125,0 -0.703125,-0.09375 -0.703125,-0.328125 z m 0,0"
               id="id-910e1de5-cb75-48a2-9042-6e03e0a75531" />
          </g>
        </g>
        <g
           style="fill:#000000;fill-opacity:1"
           id="id-63a47559-f401-4de1-8de0-49335c9dfe2c">
          <g
             transform="translate(333.418,210.235)"
             id="g1041">
            <path
               style="stroke:none;stroke-width:0"
               d="m 1.078125,-3.890625 c 0.359375,0.09375 0.5625,0.09375 0.671875,0.09375 0.921875,0 1.46875,-0.625 1.46875,-0.734375 0,-0.078125 -0.046875,-0.09375 -0.078125,-0.09375 -0.015625,0 -0.03125,0 -0.0625,0.015625 -0.171875,0.0625 -0.53125,0.203125 -1.046875,0.203125 -0.203125,0 -0.5625,-0.015625 -1.015625,-0.1875 C 0.9375,-4.625 0.921875,-4.625 0.921875,-4.625 c -0.09375,0 -0.09375,0.078125 -0.09375,0.1875 v 2.046875 c 0,0.125 0,0.203125 0.109375,0.203125 0.0625,0 0.078125,0 0.140625,-0.09375 0.296875,-0.375 0.734375,-0.4375 0.96875,-0.4375 0.421875,0 0.609375,0.328125 0.640625,0.390625 0.125,0.234375 0.171875,0.5 0.171875,0.90625 0,0.203125 0,0.609375 -0.21875,0.921875 -0.171875,0.25 -0.46875,0.421875 -0.8125,0.421875 -0.453125,0 -0.921875,-0.25 -1.09375,-0.71875 0.265625,0.015625 0.40625,-0.15625 0.40625,-0.34375 0,-0.296875 -0.265625,-0.34375 -0.359375,-0.34375 0,0 -0.34375,0 -0.34375,0.375 0,0.625 0.578125,1.25 1.40625,1.25 0.890625,0 1.671875,-0.65625 1.671875,-1.546875 0,-0.78125 -0.59375,-1.5 -1.453125,-1.5 -0.3125,0 -0.671875,0.0625 -0.984375,0.328125 z m 0,0"
               id="id-d0f2da71-a593-4eff-a2ed-12870504833b" />
          </g>
        </g>
        <path
           style="fill:none;stroke:#000000;stroke-width:0.398;stroke-linecap:butt;stroke-linejoin:miter;stroke-miterlimit:10;stroke-opacity:1"
           d="M 5.9375e-4,-9.6875e-4 H 7.942"
           transform="matrix(1,0,0,-1,331.433,211.667)"
           id="id-22f6cd99-fbb2-41d6-9dfa-c294df76895b" />
        <g
           style="fill:#000000;fill-opacity:1"
           id="id-e611edc1-0d90-435a-ab15-fa2e1150bb24">
          <g
             transform="translate(331.433,217.593)"
             id="g1046">
            <path
               style="stroke:none;stroke-width:0"
               d="m 2.328125,-4.4375 c 0,-0.1875 0,-0.1875 -0.203125,-0.1875 -0.453125,0.4375 -1.078125,0.4375 -1.359375,0.4375 v 0.25 c 0.15625,0 0.625,0 1,-0.1875 v 3.546875 c 0,0.234375 0,0.328125 -0.6875,0.328125 H 0.8125 V 0 c 0.125,0 0.984375,-0.03125 1.234375,-0.03125 0.21875,0 1.09375,0.03125 1.25,0.03125 V -0.25 H 3.03125 c -0.703125,0 -0.703125,-0.09375 -0.703125,-0.328125 z m 0,0"
               id="id-b9802c89-88bd-4739-9655-fa5a1397bc1b" />
          </g>
          <g
             transform="translate(335.405,217.593)"
             id="g1049">
            <path
               style="stroke:none;stroke-width:0"
               d="m 1.90625,-2.328125 c 0.546875,0 0.9375,0.375 0.9375,1.125 0,0.859375 -0.515625,1.125 -0.90625,1.125 -0.28125,0 -0.90625,-0.078125 -1.1875,-0.5 0.328125,0 0.40625,-0.234375 0.40625,-0.390625 0,-0.21875 -0.171875,-0.375 -0.390625,-0.375 -0.1875,0 -0.390625,0.125 -0.390625,0.40625 0,0.65625 0.71875,1.078125 1.5625,1.078125 0.96875,0 1.640625,-0.65625 1.640625,-1.34375 0,-0.546875 -0.4375,-1.09375 -1.203125,-1.25 0.71875,-0.265625 0.984375,-0.78125 0.984375,-1.21875 0,-0.546875 -0.625,-0.953125 -1.40625,-0.953125 -0.765625,0 -1.359375,0.375 -1.359375,0.9375 0,0.234375 0.15625,0.359375 0.359375,0.359375 0.21875,0 0.359375,-0.15625 0.359375,-0.34375 0,-0.203125 -0.140625,-0.359375 -0.359375,-0.375 0.25,-0.296875 0.71875,-0.375 0.984375,-0.375 0.3125,0 0.75,0.15625 0.75,0.75 0,0.296875 -0.09375,0.625 -0.28125,0.828125 -0.21875,0.265625 -0.421875,0.28125 -0.765625,0.3125 -0.171875,0.015625 -0.1875,0.015625 -0.21875,0.015625 -0.015625,0 -0.078125,0.015625 -0.078125,0.09375 0,0.09375 0.0625,0.09375 0.1875,0.09375 z m 0,0"
               id="id-8eda546f-a395-4277-b2bd-a8c516bfd89e" />
          </g>
        </g>
        <g
           style="fill:#000000;fill-opacity:1"
           id="id-a6460f14-2ee9-46fe-9e06-0c8d19f361ae">
          <g
             transform="translate(370.04,210.235)"
             id="g1053">
            <path
               style="stroke:none;stroke-width:0"
               d="m 1.078125,-3.890625 c 0.359375,0.09375 0.5625,0.09375 0.671875,0.09375 0.921875,0 1.46875,-0.625 1.46875,-0.734375 0,-0.078125 -0.046875,-0.09375 -0.078125,-0.09375 -0.015625,0 -0.03125,0 -0.0625,0.015625 -0.171875,0.0625 -0.53125,0.203125 -1.046875,0.203125 -0.203125,0 -0.5625,-0.015625 -1.015625,-0.1875 C 0.9375,-4.625 0.921875,-4.625 0.921875,-4.625 c -0.09375,0 -0.09375,0.078125 -0.09375,0.1875 v 2.046875 c 0,0.125 0,0.203125 0.109375,0.203125 0.0625,0 0.078125,0 0.140625,-0.09375 0.296875,-0.375 0.734375,-0.4375 0.96875,-0.4375 0.421875,0 0.609375,0.328125 0.640625,0.390625 0.125,0.234375 0.171875,0.5 0.171875,0.90625 0,0.203125 0,0.609375 -0.21875,0.921875 -0.171875,0.25 -0.46875,0.421875 -0.8125,0.421875 -0.453125,0 -0.921875,-0.25 -1.09375,-0.71875 0.265625,0.015625 0.40625,-0.15625 0.40625,-0.34375 0,-0.296875 -0.265625,-0.34375 -0.359375,-0.34375 0,0 -0.34375,0 -0.34375,0.375 0,0.625 0.578125,1.25 1.40625,1.25 0.890625,0 1.671875,-0.65625 1.671875,-1.546875 0,-0.78125 -0.59375,-1.5 -1.453125,-1.5 -0.3125,0 -0.671875,0.0625 -0.984375,0.328125 z m 0,0"
               id="id-6e0262c8-90b8-413a-839d-7297f537e0fe" />
          </g>
        </g>
        <path
           style="fill:none;stroke:#000000;stroke-width:0.398;stroke-linecap:butt;stroke-linejoin:miter;stroke-miterlimit:10;stroke-opacity:1"
           d="M 6.875e-4,-9.6875e-4 H 7.942094"
           transform="matrix(1,0,0,-1,368.054,211.667)"
           id="id-f9ceff4a-e48f-4904-8dad-dc1f6f003678" />
        <g
           style="fill:#000000;fill-opacity:1"
           id="id-5efb6e95-ec52-4b9a-8c59-39d59aaf5723">
          <g
             transform="translate(368.054,217.593)"
             id="g1058">
            <path
               style="stroke:none;stroke-width:0"
               d="m 2.328125,-4.4375 c 0,-0.1875 0,-0.1875 -0.203125,-0.1875 -0.453125,0.4375 -1.078125,0.4375 -1.359375,0.4375 v 0.25 c 0.15625,0 0.625,0 1,-0.1875 v 3.546875 c 0,0.234375 0,0.328125 -0.6875,0.328125 H 0.8125 V 0 c 0.125,0 0.984375,-0.03125 1.234375,-0.03125 0.21875,0 1.09375,0.03125 1.25,0.03125 V -0.25 H 3.03125 c -0.703125,0 -0.703125,-0.09375 -0.703125,-0.328125 z m 0,0"
               id="id-9d576b2f-32c1-41e3-bd91-d0d7c64ba6b9" />
          </g>
          <g
             transform="translate(372.026,217.593)"
             id="g1061">
            <path
               style="stroke:none;stroke-width:0"
               d="M 3.515625,-1.265625 H 3.28125 c -0.015625,0.15625 -0.09375,0.5625 -0.1875,0.625 C 3.046875,-0.59375 2.515625,-0.59375 2.40625,-0.59375 H 1.125 c 0.734375,-0.640625 0.984375,-0.84375 1.390625,-1.171875 0.515625,-0.40625 1,-0.84375 1,-1.5 0,-0.84375 -0.734375,-1.359375 -1.625,-1.359375 -0.859375,0 -1.453125,0.609375 -1.453125,1.25 0,0.34375 0.296875,0.390625 0.375,0.390625 0.15625,0 0.359375,-0.125 0.359375,-0.375 0,-0.125 -0.046875,-0.375 -0.40625,-0.375 C 0.984375,-4.21875 1.453125,-4.375 1.78125,-4.375 c 0.703125,0 1.0625,0.546875 1.0625,1.109375 0,0.609375 -0.4375,1.078125 -0.65625,1.328125 L 0.515625,-0.265625 C 0.4375,-0.203125 0.4375,-0.1875 0.4375,0 h 2.875 z m 0,0"
               id="id-a357b6a3-f89d-477d-a31a-82b79a90c656" />
          </g>
        </g>
        <g
           style="fill:#000000;fill-opacity:1"
           id="id-a223f098-ad70-43bc-bdef-cf3e600d007c">
          <g
             transform="translate(404.675,210.235)"
             id="g1065">
            <path
               style="stroke:none;stroke-width:0"
               d="m 3.6875,-1.140625 v -0.25 H 2.90625 V -4.5 c 0,-0.140625 0,-0.203125 -0.140625,-0.203125 -0.09375,0 -0.125,0 -0.1875,0.109375 l -2.3125,3.203125 v 0.25 h 2.0625 v 0.5625 c 0,0.25 0,0.328125 -0.578125,0.328125 H 1.5625 V 0 C 1.921875,-0.015625 2.359375,-0.03125 2.609375,-0.03125 2.875,-0.03125 3.3125,-0.015625 3.671875,0 v -0.25 h -0.1875 C 2.90625,-0.25 2.90625,-0.328125 2.90625,-0.578125 v -0.5625 z M 2.375,-3.9375 v 2.546875 H 0.53125 Z m 0,0"
               id="id-f0f39ad0-7eb3-486d-a30a-95b67da4291e" />
          </g>
        </g>
        <path
           style="fill:none;stroke:#000000;stroke-width:0.398;stroke-linecap:butt;stroke-linejoin:miter;stroke-miterlimit:10;stroke-opacity:1"
           d="M 7.8125e-4,-9.6875e-4 H 3.969531"
           transform="matrix(1,0,0,-1,404.675,211.667)"
           id="id-f6557357-e667-4af1-a6cd-73e5a9d5df68" />
        <g
           style="fill:#000000;fill-opacity:1"
           id="id-9475773b-dd1d-42c7-808e-21fa74602e7c">
          <g
             transform="translate(404.675,217.593)"
             id="g1070">
            <path
               style="stroke:none;stroke-width:0"
               d="m 2.90625,-2.078125 c 0,1.734375 -0.84375,2 -1.265625,2 -0.15625,0 -0.53125,-0.015625 -0.71875,-0.234375 0.296875,-0.03125 0.3125,-0.265625 0.3125,-0.328125 0,-0.171875 -0.125,-0.328125 -0.328125,-0.328125 -0.203125,0 -0.328125,0.140625 -0.328125,0.34375 0,0.46875 0.390625,0.765625 1.0625,0.765625 1,0 1.9375,-0.9375 1.9375,-2.4375 C 3.578125,-4.015625 2.8125,-4.625 2,-4.625 c -0.234375,0 -0.703125,0.03125 -1.109375,0.421875 -0.234375,0.234375 -0.515625,0.5 -0.515625,1.125 0,0.890625 0.703125,1.546875 1.515625,1.546875 0.5625,0 0.859375,-0.375 1.015625,-0.6875 z m -0.96875,0.34375 c -0.28125,0 -0.53125,-0.078125 -0.734375,-0.40625 -0.15625,-0.25 -0.15625,-0.546875 -0.15625,-0.9375 0,-0.40625 0,-0.671875 0.203125,-0.953125 0.171875,-0.25 0.390625,-0.390625 0.75,-0.390625 0.359375,0 0.578125,0.21875 0.6875,0.40625 0.1875,0.28125 0.203125,0.78125 0.203125,1.015625 0,0.90625 -0.515625,1.265625 -0.953125,1.265625 z m 0,0"
               id="id-62b64a7f-4e60-4d8c-9196-d2d7c1ce42f3" />
          </g>
        </g>
        <g
           style="fill:#000000;fill-opacity:1"
           id="id-b768b6dc-e197-4275-be62-ca23c2cbeec9">
          <g
             transform="translate(437.325,210.235)"
             id="g1074">
            <path
               style="stroke:none;stroke-width:0"
               d="m 1.078125,-3.890625 c 0.359375,0.09375 0.5625,0.09375 0.671875,0.09375 0.921875,0 1.46875,-0.625 1.46875,-0.734375 0,-0.078125 -0.046875,-0.09375 -0.078125,-0.09375 -0.015625,0 -0.03125,0 -0.0625,0.015625 -0.171875,0.0625 -0.53125,0.203125 -1.046875,0.203125 -0.203125,0 -0.5625,-0.015625 -1.015625,-0.1875 C 0.9375,-4.625 0.921875,-4.625 0.921875,-4.625 c -0.09375,0 -0.09375,0.078125 -0.09375,0.1875 v 2.046875 c 0,0.125 0,0.203125 0.109375,0.203125 0.0625,0 0.078125,0 0.140625,-0.09375 0.296875,-0.375 0.734375,-0.4375 0.96875,-0.4375 0.421875,0 0.609375,0.328125 0.640625,0.390625 0.125,0.234375 0.171875,0.5 0.171875,0.90625 0,0.203125 0,0.609375 -0.21875,0.921875 -0.171875,0.25 -0.46875,0.421875 -0.8125,0.421875 -0.453125,0 -0.921875,-0.25 -1.09375,-0.71875 0.265625,0.015625 0.40625,-0.15625 0.40625,-0.34375 0,-0.296875 -0.265625,-0.34375 -0.359375,-0.34375 0,0 -0.34375,0 -0.34375,0.375 0,0.625 0.578125,1.25 1.40625,1.25 0.890625,0 1.671875,-0.65625 1.671875,-1.546875 0,-0.78125 -0.59375,-1.5 -1.453125,-1.5 -0.3125,0 -0.671875,0.0625 -0.984375,0.328125 z m 0,0"
               id="id-c3037e03-310d-4350-b5c7-8229605c4932" />
          </g>
        </g>
        <path
           style="fill:none;stroke:#000000;stroke-width:0.398;stroke-linecap:butt;stroke-linejoin:miter;stroke-miterlimit:10;stroke-opacity:1"
           d="M -7.8125e-4,-9.6875e-4 H 3.971875"
           transform="matrix(1,0,0,-1,437.325,211.667)"
           id="id-2e72fa0a-7ca6-4b54-8b1c-61eb72c6446a" />
        <g
           style="fill:#000000;fill-opacity:1"
           id="id-f46d0923-9141-4eca-9afb-8d4f025e3694">
          <g
             transform="translate(437.325,217.593)"
             id="g1079">
            <path
               style="stroke:none;stroke-width:0"
               d="m 2.90625,-2.078125 c 0,1.734375 -0.84375,2 -1.265625,2 -0.15625,0 -0.53125,-0.015625 -0.71875,-0.234375 0.296875,-0.03125 0.3125,-0.265625 0.3125,-0.328125 0,-0.171875 -0.125,-0.328125 -0.328125,-0.328125 -0.203125,0 -0.328125,0.140625 -0.328125,0.34375 0,0.46875 0.390625,0.765625 1.0625,0.765625 1,0 1.9375,-0.9375 1.9375,-2.4375 C 3.578125,-4.015625 2.8125,-4.625 2,-4.625 c -0.234375,0 -0.703125,0.03125 -1.109375,0.421875 -0.234375,0.234375 -0.515625,0.5 -0.515625,1.125 0,0.890625 0.703125,1.546875 1.515625,1.546875 0.5625,0 0.859375,-0.375 1.015625,-0.6875 z m -0.96875,0.34375 c -0.28125,0 -0.53125,-0.078125 -0.734375,-0.40625 -0.15625,-0.25 -0.15625,-0.546875 -0.15625,-0.9375 0,-0.40625 0,-0.671875 0.203125,-0.953125 0.171875,-0.25 0.390625,-0.390625 0.75,-0.390625 0.359375,0 0.578125,0.21875 0.6875,0.40625 0.1875,0.28125 0.203125,0.78125 0.203125,1.015625 0,0.90625 -0.515625,1.265625 -0.953125,1.265625 z m 0,0"
               id="id-ae74e414-b259-49e5-a2a1-f0dce88eef83" />
          </g>
        </g>
        <g
           style="fill:#000000;fill-opacity:1"
           id="id-df5ac18c-6b00-4173-ba2c-2ed4abb1f2d4">
          <g
             transform="translate(471.96,210.235)"
             id="g1083">
            <path
               style="stroke:none;stroke-width:0"
               d="m 3.734375,-4.203125 c 0.0625,-0.09375 0.0625,-0.109375 0.0625,-0.28125 H 1.96875 C 1.6875,-4.484375 1.609375,-4.5 1.359375,-4.515625 1,-4.546875 0.984375,-4.59375 0.96875,-4.703125 H 0.734375 l -0.25,1.484375 H 0.71875 c 0.015625,-0.109375 0.09375,-0.5625 0.203125,-0.640625 0.046875,-0.03125 0.625,-0.03125 0.71875,-0.03125 H 3.15625 c -0.21875,0.28125 -0.578125,0.71875 -0.71875,0.921875 -0.90625,1.1875 -1,2.296875 -1,2.703125 0,0.078125 0,0.40625 0.328125,0.40625 0.34375,0 0.34375,-0.3125 0.34375,-0.40625 v -0.28125 c 0,-1.34375 0.28125,-1.96875 0.578125,-2.34375 z m 0,0"
               id="id-2725d757-971a-4c2e-b5e8-7beb38173b0a" />
          </g>
        </g>
        <path
           style="fill:none;stroke:#000000;stroke-width:0.398;stroke-linecap:butt;stroke-linejoin:miter;stroke-miterlimit:10;stroke-opacity:1"
           d="M 0.0015625,-9.6875e-4 H 7.942969"
           transform="matrix(1,0,0,-1,469.975,211.667)"
           id="id-c627b15b-ceec-437e-90c1-308039a94af4" />
        <g
           style="fill:#000000;fill-opacity:1"
           id="id-022e5337-2033-4fc7-ae75-26d9b94d3b07">
          <g
             transform="translate(469.975,217.593)"
             id="g1088">
            <path
               style="stroke:none;stroke-width:0"
               d="m 2.328125,-4.4375 c 0,-0.1875 0,-0.1875 -0.203125,-0.1875 -0.453125,0.4375 -1.078125,0.4375 -1.359375,0.4375 v 0.25 c 0.15625,0 0.625,0 1,-0.1875 v 3.546875 c 0,0.234375 0,0.328125 -0.6875,0.328125 H 0.8125 V 0 c 0.125,0 0.984375,-0.03125 1.234375,-0.03125 0.21875,0 1.09375,0.03125 1.25,0.03125 V -0.25 H 3.03125 c -0.703125,0 -0.703125,-0.09375 -0.703125,-0.328125 z m 0,0"
               id="id-934d7763-bfbd-4d80-b77f-151f449197e9" />
          </g>
          <g
             transform="translate(473.947,217.593)"
             id="g1091">
            <path
               style="stroke:none;stroke-width:0"
               d="M 3.515625,-1.265625 H 3.28125 c -0.015625,0.15625 -0.09375,0.5625 -0.1875,0.625 C 3.046875,-0.59375 2.515625,-0.59375 2.40625,-0.59375 H 1.125 c 0.734375,-0.640625 0.984375,-0.84375 1.390625,-1.171875 0.515625,-0.40625 1,-0.84375 1,-1.5 0,-0.84375 -0.734375,-1.359375 -1.625,-1.359375 -0.859375,0 -1.453125,0.609375 -1.453125,1.25 0,0.34375 0.296875,0.390625 0.375,0.390625 0.15625,0 0.359375,-0.125 0.359375,-0.375 0,-0.125 -0.046875,-0.375 -0.40625,-0.375 C 0.984375,-4.21875 1.453125,-4.375 1.78125,-4.375 c 0.703125,0 1.0625,0.546875 1.0625,1.109375 0,0.609375 -0.4375,1.078125 -0.65625,1.328125 L 0.515625,-0.265625 C 0.4375,-0.203125 0.4375,-0.1875 0.4375,0 h 2.875 z m 0,0"
               id="id-6dddda1f-9933-4ce6-83e0-32bc243a4e25" />
          </g>
        </g>
        <g
           style="fill:#000000;fill-opacity:1"
           id="id-009bfbd4-f26a-4a3d-ba21-d50e2ba6dcd9">
          <g
             transform="translate(508.581,210.235)"
             id="g1095">
            <path
               style="stroke:none;stroke-width:0"
               d="m 2.46875,-2.515625 c 0.546875,-0.265625 0.890625,-0.59375 0.890625,-1.078125 0,-0.671875 -0.703125,-1.03125 -1.375,-1.03125 -0.765625,0 -1.390625,0.5 -1.390625,1.15625 0,0.328125 0.15625,0.5625 0.28125,0.703125 0.125,0.15625 0.171875,0.1875 0.578125,0.421875 C 1.0625,-2.171875 0.375,-1.796875 0.375,-1.0625 c 0,0.765625 0.796875,1.203125 1.59375,1.203125 0.890625,0 1.609375,-0.5625 1.609375,-1.3125 0,-0.46875 -0.265625,-0.859375 -0.671875,-1.09375 -0.09375,-0.0625 -0.328125,-0.1875 -0.4375,-0.25 z m -1.125,-0.65625 c -0.1875,-0.109375 -0.375,-0.296875 -0.375,-0.5625 0,-0.4375 0.5,-0.6875 1,-0.6875 0.546875,0 1.03125,0.34375 1.03125,0.828125 0,0.625 -0.734375,0.9375 -0.734375,0.9375 -0.015625,0 -0.03125,0 -0.078125,-0.03125 z m 0.328125,0.96875 0.96875,0.546875 c 0.171875,0.109375 0.515625,0.3125 0.515625,0.71875 0,0.53125 -0.578125,0.859375 -1.171875,0.859375 -0.640625,0 -1.1875,-0.421875 -1.1875,-0.984375 0,-0.515625 0.375,-0.921875 0.875,-1.140625 z m 0,0"
               id="id-4ecf9eaf-97e0-4d4f-a950-79b9260d255f" />
          </g>
        </g>
        <path
           style="fill:none;stroke:#000000;stroke-width:0.398;stroke-linecap:butt;stroke-linejoin:miter;stroke-miterlimit:10;stroke-opacity:1"
           d="M 0.00165625,-9.6875e-4 H 7.943063"
           transform="matrix(1,0,0,-1,506.596,211.667)"
           id="id-d322c68a-e542-4939-8063-0695747262b8" />
        <g
           style="fill:#000000;fill-opacity:1"
           id="id-b9b3a40d-d731-4c73-933b-44cd12485371">
          <g
             transform="translate(506.596,217.593)"
             id="g1100">
            <path
               style="stroke:none;stroke-width:0"
               d="m 2.328125,-4.4375 c 0,-0.1875 0,-0.1875 -0.203125,-0.1875 -0.453125,0.4375 -1.078125,0.4375 -1.359375,0.4375 v 0.25 c 0.15625,0 0.625,0 1,-0.1875 v 3.546875 c 0,0.234375 0,0.328125 -0.6875,0.328125 H 0.8125 V 0 c 0.125,0 0.984375,-0.03125 1.234375,-0.03125 0.21875,0 1.09375,0.03125 1.25,0.03125 V -0.25 H 3.03125 c -0.703125,0 -0.703125,-0.09375 -0.703125,-0.328125 z m 0,0"
               id="id-1b48f84e-40ef-4e73-940b-f08a1590e0a9" />
          </g>
          <g
             transform="translate(510.568,217.593)"
             id="g1103">
            <path
               style="stroke:none;stroke-width:0"
               d="m 1.90625,-2.328125 c 0.546875,0 0.9375,0.375 0.9375,1.125 0,0.859375 -0.515625,1.125 -0.90625,1.125 -0.28125,0 -0.90625,-0.078125 -1.1875,-0.5 0.328125,0 0.40625,-0.234375 0.40625,-0.390625 0,-0.21875 -0.171875,-0.375 -0.390625,-0.375 -0.1875,0 -0.390625,0.125 -0.390625,0.40625 0,0.65625 0.71875,1.078125 1.5625,1.078125 0.96875,0 1.640625,-0.65625 1.640625,-1.34375 0,-0.546875 -0.4375,-1.09375 -1.203125,-1.25 0.71875,-0.265625 0.984375,-0.78125 0.984375,-1.21875 0,-0.546875 -0.625,-0.953125 -1.40625,-0.953125 -0.765625,0 -1.359375,0.375 -1.359375,0.9375 0,0.234375 0.15625,0.359375 0.359375,0.359375 0.21875,0 0.359375,-0.15625 0.359375,-0.34375 0,-0.203125 -0.140625,-0.359375 -0.359375,-0.375 0.25,-0.296875 0.71875,-0.375 0.984375,-0.375 0.3125,0 0.75,0.15625 0.75,0.75 0,0.296875 -0.09375,0.625 -0.28125,0.828125 -0.21875,0.265625 -0.421875,0.28125 -0.765625,0.3125 -0.171875,0.015625 -0.1875,0.015625 -0.21875,0.015625 -0.015625,0 -0.078125,0.015625 -0.078125,0.09375 0,0.09375 0.0625,0.09375 0.1875,0.09375 z m 0,0"
               id="id-26f21bb7-82e4-493b-9aaf-91c8bc246dda" />
          </g>
        </g>
        <g
           style="fill:#000000;fill-opacity:1"
           id="id-af581401-389a-4863-ba24-bd66850f1f29">
          <g
             transform="translate(545.202,210.235)"
             id="g1107">
            <path
               style="stroke:none;stroke-width:0"
               d="m 3.734375,-4.203125 c 0.0625,-0.09375 0.0625,-0.109375 0.0625,-0.28125 H 1.96875 C 1.6875,-4.484375 1.609375,-4.5 1.359375,-4.515625 1,-4.546875 0.984375,-4.59375 0.96875,-4.703125 H 0.734375 l -0.25,1.484375 H 0.71875 c 0.015625,-0.109375 0.09375,-0.5625 0.203125,-0.640625 0.046875,-0.03125 0.625,-0.03125 0.71875,-0.03125 H 3.15625 c -0.21875,0.28125 -0.578125,0.71875 -0.71875,0.921875 -0.90625,1.1875 -1,2.296875 -1,2.703125 0,0.078125 0,0.40625 0.328125,0.40625 0.34375,0 0.34375,-0.3125 0.34375,-0.40625 v -0.28125 c 0,-1.34375 0.28125,-1.96875 0.578125,-2.34375 z m 0,0"
               id="id-e9e5bd5a-45ab-494f-a53f-3eb94443dd1a" />
          </g>
        </g>
        <path
           style="fill:none;stroke:#000000;stroke-width:0.398;stroke-linecap:butt;stroke-linejoin:miter;stroke-miterlimit:10;stroke-opacity:1"
           d="M 0.00175,-9.6875e-4 H 7.943156"
           transform="matrix(1,0,0,-1,543.217,211.667)"
           id="id-a0478664-aec6-44e6-a5d5-afaa44f80e20" />
        <g
           style="fill:#000000;fill-opacity:1"
           id="id-f326cebc-3996-4004-bb74-13cbdbc47d9a">
          <g
             transform="translate(543.217,217.593)"
             id="g1112">
            <path
               style="stroke:none;stroke-width:0"
               d="m 2.328125,-4.4375 c 0,-0.1875 0,-0.1875 -0.203125,-0.1875 -0.453125,0.4375 -1.078125,0.4375 -1.359375,0.4375 v 0.25 c 0.15625,0 0.625,0 1,-0.1875 v 3.546875 c 0,0.234375 0,0.328125 -0.6875,0.328125 H 0.8125 V 0 c 0.125,0 0.984375,-0.03125 1.234375,-0.03125 0.21875,0 1.09375,0.03125 1.25,0.03125 V -0.25 H 3.03125 c -0.703125,0 -0.703125,-0.09375 -0.703125,-0.328125 z m 0,0"
               id="id-98392bc6-9803-4002-befc-7dfa658ea548" />
          </g>
          <g
             transform="translate(547.189,217.593)"
             id="g1115">
            <path
               style="stroke:none;stroke-width:0"
               d="m 2.328125,-4.4375 c 0,-0.1875 0,-0.1875 -0.203125,-0.1875 -0.453125,0.4375 -1.078125,0.4375 -1.359375,0.4375 v 0.25 c 0.15625,0 0.625,0 1,-0.1875 v 3.546875 c 0,0.234375 0,0.328125 -0.6875,0.328125 H 0.8125 V 0 c 0.125,0 0.984375,-0.03125 1.234375,-0.03125 0.21875,0 1.09375,0.03125 1.25,0.03125 V -0.25 H 3.03125 c -0.703125,0 -0.703125,-0.09375 -0.703125,-0.328125 z m 0,0"
               id="id-165e2175-eedd-4b50-bcfe-b17b97f122d0" />
          </g>
        </g>
        <g
           style="fill:#000000;fill-opacity:1"
           id="id-a8ca9453-7671-496a-b94b-aad798b53394">
          <g
             transform="translate(581.823,210.235)"
             id="g1119">
            <path
               style="stroke:none;stroke-width:0"
               d="m 3.734375,-4.203125 c 0.0625,-0.09375 0.0625,-0.109375 0.0625,-0.28125 H 1.96875 C 1.6875,-4.484375 1.609375,-4.5 1.359375,-4.515625 1,-4.546875 0.984375,-4.59375 0.96875,-4.703125 H 0.734375 l -0.25,1.484375 H 0.71875 c 0.015625,-0.109375 0.09375,-0.5625 0.203125,-0.640625 0.046875,-0.03125 0.625,-0.03125 0.71875,-0.03125 H 3.15625 c -0.21875,0.28125 -0.578125,0.71875 -0.71875,0.921875 -0.90625,1.1875 -1,2.296875 -1,2.703125 0,0.078125 0,0.40625 0.328125,0.40625 0.34375,0 0.34375,-0.3125 0.34375,-0.40625 v -0.28125 c 0,-1.34375 0.28125,-1.96875 0.578125,-2.34375 z m 0,0"
               id="id-ec60b871-3348-4b6b-9641-1c210997b915" />
          </g>
        </g>
        <path
           style="fill:none;stroke:#000000;stroke-width:0.398;stroke-linecap:butt;stroke-linejoin:miter;stroke-miterlimit:10;stroke-opacity:1"
           d="M 0.00184375,-9.6875e-4 H 7.94325"
           transform="matrix(1,0,0,-1,579.838,211.667)"
           id="id-9fef14c2-c855-4963-946c-aad8bf949b51" />
        <g
           style="fill:#000000;fill-opacity:1"
           id="id-c5534d2c-2c47-4190-90ac-be7ef472987f">
          <g
             transform="translate(579.838,217.593)"
             id="g1124">
            <path
               style="stroke:none;stroke-width:0"
               d="m 2.328125,-4.4375 c 0,-0.1875 0,-0.1875 -0.203125,-0.1875 -0.453125,0.4375 -1.078125,0.4375 -1.359375,0.4375 v 0.25 c 0.15625,0 0.625,0 1,-0.1875 v 3.546875 c 0,0.234375 0,0.328125 -0.6875,0.328125 H 0.8125 V 0 c 0.125,0 0.984375,-0.03125 1.234375,-0.03125 0.21875,0 1.09375,0.03125 1.25,0.03125 V -0.25 H 3.03125 c -0.703125,0 -0.703125,-0.09375 -0.703125,-0.328125 z m 0,0"
               id="id-df685364-aadb-44fe-864e-d6a1f0ca6a7b" />
          </g>
          <g
             transform="translate(583.81,217.593)"
             id="g1127">
            <path
               style="stroke:none;stroke-width:0"
               d="M 3.59375,-2.21875 C 3.59375,-2.984375 3.5,-3.546875 3.1875,-4.03125 2.96875,-4.34375 2.53125,-4.625 1.984375,-4.625 c -1.625,0 -1.625,1.90625 -1.625,2.40625 0,0.5 0,2.359375 1.625,2.359375 1.609375,0 1.609375,-1.859375 1.609375,-2.359375 z M 1.984375,-0.0625 c -0.328125,0 -0.75,-0.1875 -0.890625,-0.75 C 1,-1.21875 1,-1.796875 1,-2.3125 1,-2.828125 1,-3.359375 1.09375,-3.734375 1.25,-4.28125 1.6875,-4.4375 1.984375,-4.4375 c 0.375,0 0.734375,0.234375 0.859375,0.640625 0.109375,0.375 0.125,0.875 0.125,1.484375 0,0.515625 0,1.03125 -0.09375,1.46875 -0.140625,0.640625 -0.609375,0.78125 -0.890625,0.78125 z m 0,0"
               id="id-9f4dd91f-eba4-488b-bc44-6cd0ecd4baf6" />
          </g>
        </g>
      </g>
    </g>
  </g>
  <g
     inkscape:groupmode="layer"
     id="layer2"
     inkscape:label="edges">
    <path
       style="fill:none;stroke:#000000;stroke-width:0.264583px;stroke-linecap:butt;stroke-linejoin:miter;stroke-opacity:1"
       d="m 24.275845,84.39868 35.17105,15.566823 -9.962549,12.610547"
       id="path1402" />
    <path
       style="fill:none;stroke:#000000;stroke-width:0.264583px;stroke-linecap:butt;stroke-linejoin:miter;stroke-opacity:1"
       d="m 59.446895,99.965503 18.226333,6.322377"
       id="path1404" />
    <path
       style="fill:none;stroke:#000000;stroke-width:0.264583px;stroke-linecap:butt;stroke-linejoin:miter;stroke-opacity:1"
       d="m 78.001441,106.11115 9.440775,8.3577"
       id="path1406" />
    <path
       style="fill:none;stroke:#000000;stroke-width:0.264583px;stroke-linecap:butt;stroke-linejoin:miter;stroke-opacity:1"
       d="m 24.275845,84.39868 7.580895,31.23154"
       id="path1408" />
    <path
       style="fill:none;stroke:#000000;stroke-width:0.264583px;stroke-linecap:butt;stroke-linejoin:miter;stroke-opacity:1"
       d="m 174.29074,84.779743 -37.1163,14.865964 -30.00789,14.823143"
       id="path1410" />
    <path
       style="fill:none;stroke:#000000;stroke-width:0.264583px;stroke-linecap:butt;stroke-linejoin:miter;stroke-opacity:1"
       d="m 24.637891,83.986535 149.652849,0.92786 v 0 l 18.45235,19.395785"
       id="path1412"
       sodipodi:nodetypes="cccc" />
    <path
       style="fill:none;stroke:#000000;stroke-width:0.264583px;stroke-linecap:butt;stroke-linejoin:miter;stroke-opacity:1"
       d="m 138.7069,100.73687 8.11959,11.72978"
       id="path1414" />
    <path
       style="fill:none;stroke:#000000;stroke-width:0.264583px;stroke-linecap:butt;stroke-linejoin:miter;stroke-opacity:1"
       d="M 174.82935,84.813406 166.3648,110.77508"
       id="path1416" />
    <path
       style="fill:none;stroke:#000000;stroke-width:0.264583px;stroke-linecap:butt;stroke-linejoin:miter;stroke-opacity:1"
       d="m 192.74309,105.68195 8.96982,5.48025"
       id="path1418" />
  </g>
</svg>
