<?xml version="1.0" ?>
<svg xmlns="http://www.w3.org/2000/svg" width="785" height="353">
	<text x="121" y="35" fill="black" font_size="14">91</text>
	<text x="138" y="35" fill="black" font_size="14">60</text>
	<text x="156" y="35" fill="black" font_size="14">109</text>
	<text x="236" y="35" fill="black" font_size="14">187</text>
	<text x="302" y="35" fill="black" font_size="14">209</text>
	<text x="327" y="35" fill="black" font_size="14">120241</text>
	<text x="416" y="35" fill="black" font_size="14">299</text>
	<text x="440" y="35" fill="black" font_size="14">180</text>
	<text x="461" y="35" fill="black" font_size="14">349</text>
	<text x="489" y="35" fill="black" font_size="14">165</text>
	<text x="509" y="35" fill="black" font_size="14">52</text>
	<text x="528" y="35" fill="black" font_size="14">173</text>
	<text x="356" y="71" fill="black" font_size="14">35</text>
	<text x="382" y="71" fill="black" font_size="14">12</text>
	<text x="405" y="71" fill="black" font_size="14">37</text>
	<text x="542" y="71" fill="black" font_size="14">77</text>
	<text x="567" y="71" fill="black" font_size="14">36</text>
	<text x="591" y="71" fill="black" font_size="14">85</text>
	<text x="179" y="72" fill="black" font_size="14">45</text>
	<text x="204" y="72" fill="black" font_size="14">28</text>
	<text x="228" y="72" fill="black" font_size="14">53</text>
	<line x1="138" y1="35" x2="288" y2="35" stroke="black"/>
	<line x1="288" y1="35" x2="439" y2="35" stroke="black"/>
	<line x1="439" y1="35" x2="508" y2="35" stroke="black"/>
	<line x1="508" y1="35" x2="381" y2="71" stroke="black"/>
	<line x1="381" y1="71" x2="566" y2="71" stroke="black"/>
	<line x1="566" y1="71" x2="203" y2="72" stroke="black"/>
</svg>
