<?xml version="1.0" encoding="UTF-8"?>
<!DOCTYPE svg PUBLIC "-//W3C//DTD SVG 1.1//EN"
  "http://www.w3.org/Graphics/SVG/1.1/DTD/svg11.dtd">
<!-- Created with Inkpad (http://www.taptrix.com/) --><svg xmlns:inkpad="http://taptrix.com/inkpad/svg_extensions" height="480pt" xmlns:xlink="http://www.w3.org/1999/xlink" xmlns="http://www.w3.org/2000/svg" width="640pt" version="1.1" viewBox="0,0,640,480">
<metadata>
</metadata>
<metadata>
<inkpad:setting key="RulersVisible" value="0"/>
<inkpad:setting key="GridSpacing" value="36"/>
<inkpad:setting key="Units" value="Pixels"/>
<inkpad:setting key="DynamicGuides" value="1"/>
<inkpad:setting key="SnapToPoints" value="0"/>
<inkpad:setting key="SnapToGrid" value="0"/>
<inkpad:setting key="ShowGrid" value="0"/>
<inkpad:setting key="SnapToEdges" value="0"/>
</metadata>
<defs/>
<g id="Layer" inkpad:layerName="Layer 3">
<path d="M318.4+243.6C311.766+223.697+247.252+215.952+231.2+218.8C174.073+228.935+164.529+324.253+201.6+359.6C235.716+392.13+343.09+372.211+354.4+323.2C365.402+275.525+322.27+234.852+285.2+214.4" stroke="#d4a032" stroke-width="13.973" fill="none" opacity="1" stroke-linejoin="round"/>
<path d="M131.6+285.2C123.69+256.198+79.8272+242.991+54+255.2C2.25744+279.66+13.4808+385.003+82+396C130.234+403.741+157.808+353.634+147.2+311.2C137.825+273.701+103.902+261.2+69.6+261.2" stroke="#d4a032" stroke-width="13.973" fill="none" opacity="1" stroke-linejoin="round"/>
</g>
<g id="Layer_2" inkpad:layerName="fixed">
<path d="M114+133.2C158.174+162.009+140.505+253.822+127.2+294.8C125.495+300.052+110.727+340+108+340" stroke="#d44532" stroke-width="13.973" fill="none" opacity="1" stroke-linejoin="round"/>
<path d="M112.8+145.2C136.521+145.2+159.364+153.219+184+151.2C207.512+149.273+231.052+139.608+251.6+128.4C254.617+126.754+270.015+113.2+272.8+113.2C273.42+113.2+267.722+132.258+267.6+132.8C265.213+143.409+263.984+154.382+263.2+165.2C262.516+174.646+262.13+184.13+262+193.6C261.802+208.047+261.013+223.189+262+237.6C263.53+259.932+272.088+283.267+282.8+302.8C286.823+310.135+291.394+316.926+296.4+323.6C297.888+325.584+303.018+328.491+300.8+329.6C289.59+335.205+241.69+324.344+228.8+323.6C188.907+321.298+146.54+323.988+109.2+339.2" stroke="#d44532" stroke-width="13.973" fill="none" opacity="1" stroke-linejoin="round"/>
<path d="M357.2+125.6C376.957+118.8+400.177+135.784+421.2+132C443.002+128.076+463.579+105.41+452.8+110.8C448.548+112.926+451.2+137.787+451.2+140.4C451.2+176.264+455.51+209.333+466+243.6C469.362+254.582+481.662+281.138+479.6+283.2C478.805+283.995+473.626+283.007+472.8+282.8C455.212+278.403+438.647+275.467+420+276C410.127+276.282+398.932+279.054+391.6+286C387.688+289.706+383.641+294.078+380.4+298.4C379.755+299.26+378.8+302.275+378.8+301.2C378.8+264.601+378.155+206.274+370.8+171.6C367.885+157.856+344.736+129.89+357.2+125.6Z" stroke="#d44532" stroke-width="13.973" fill="none" opacity="1" stroke-linejoin="round"/>
<path d="M511.8+153.8C510.701+153.601+520.444+169.297+522+173.6C524.114+179.446+527.016+216.908+528.4+217.6C528.8+217.8+533.129+208.279+540.4+205.6C546.541+203.338+576.816+199.584+579.6+196.8C581.416+194.984+568.662+156.441+563.2+152.8C549.246+143.497+526.209+156.406+511.8+153.8Z" stroke="#d44532" stroke-width="13.973" fill="none" opacity="1" stroke-linejoin="round"/>
<path d="M521.6+60.8C519.39+65.5191+522.911+71.5175+525.6+76C527.534+79.2238+538.94+76.739+541.2+76.4C546.183+75.6526+554.164+77.8543+558.8+76C571.585+70.8859+560.979+50.5669+538+54.8C531.695+55.9615+524.245+55.152+521.6+60.8Z" stroke="#d44532" stroke-width="13.973" fill="none" opacity="1" stroke-linejoin="round"/>
<path d="M554+253.6C538.427+244.693+547.013+285.4+559.2+293.2C571.064+300.793+586.659+296.48+582.8+280.4C579.724+267.583+564.24+259.457+554+253.6Z" stroke="#d44532" stroke-width="13.973" fill="none" opacity="1" stroke-linejoin="round"/>
</g>
<g id="Layer_3" inkpad:layerName="Layer 2">
<path d="M156.8+61.6C172.832+48.7745+192.644+45.5042+212.8+44C278.388+39.1054+299.127+74.232+351.2+100.8C372.001+111.413+396.899+114.438+420+112.4C435.864+111+441.898+96.4+441.2+96.4" stroke="#5a7cff" stroke-width="13.973" fill="none" opacity="1" stroke-linejoin="round"/>
<path d="M427.2+71.6C449.594+78.3182+466.296+83.3923+466.4+83.6C466.407+83.6142+452.469+93.8728+451.6+94.8C445.221+101.605+440.457+109.495+436+117.6" stroke="#5a7cff" stroke-width="13.973" fill="none" opacity="1" stroke-linejoin="round"/>
<path d="M186+376C231.603+424.137+296.056+440.047+351.2+394.8C370.661+378.832+387.384+348.956+414.4+344.8C455.645+338.455+480.643+366+498.4+366" stroke="#5a7cff" stroke-width="13.973" fill="none" opacity="1" stroke-linejoin="round"/>
<path d="M494.4+342C498.937+348.049+518.118+352.87+519.6+358.8C521.023+364.492+505.849+368.136+502.4+370C494.756+374.132+495.148+373.978+487.6+378.8C482.676+381.946+477.724+384.676+473.6+388.8" stroke="#5a7cff" stroke-width="13.973" fill="none" opacity="1" stroke-linejoin="round"/>
<path d="M588+406C586.231+384.777+573.527+362.995+563.2+344.8C490.56+216.815+355.427+253.612+234.4+232C186.635+223.471+94+170.272+94+110.8" stroke="#5a7cff" stroke-width="13.973" fill="none" opacity="1" stroke-linejoin="round"/>
<path d="M75.2+146.4C79.0641+138.672+77.8487+141.546+82+128.4C83.1312+124.818+86.9334+92.3274+92+102C99.9755+117.226+107.378+131.2+126+131.2" stroke="#5a7cff" stroke-width="13.973" fill="none" opacity="1" stroke-linejoin="round"/>
<path d="M413.2+194C340.515+194+231.893+145.262+172.4+105.6C156.023+94.682+112.4+60.5197+112.4+38.8" stroke="#5a7cff" stroke-width="13.973" fill="none" opacity="1" stroke-linejoin="round"/>
<path d="M109.2+31.6C110.964+38.6567+111.287+38.7809+112+45.2C112.499+49.6911+113.349+54.2891+113.6+58.8C113.741+61.3294+113.6+68.9333+113.6+66.4C113.6+56.8918+110.978+48.6224+108.4+39.6C108.289+39.2112+106.705+31.2991+107.2+31.2C118.089+29.0223+130.27+40.9592+139.6+45.2" stroke="#5a7cff" stroke-width="13.973" fill="none" opacity="1" stroke-linejoin="round"/>
</g>
</svg>
