<?xml version="1.0" encoding="UTF-8"?>
<!DOCTYPE svg PUBLIC "-//W3C//DTD SVG 1.1//EN"
  "http://www.w3.org/Graphics/SVG/1.1/DTD/svg11.dtd">
<!-- Created with Inkpad (http://www.taptrix.com/) --><svg xmlns:inkpad="http://taptrix.com/inkpad/svg_extensions" height="480pt" xmlns:xlink="http://www.w3.org/1999/xlink" xmlns="http://www.w3.org/2000/svg" width="640pt" version="1.1" viewBox="0,0,640,480">
<metadata>
</metadata>
<metadata>
<inkpad:setting key="RulersVisible" value="0"/>
<inkpad:setting key="SnapToEdges" value="0"/>
<inkpad:setting key="Units" value="Pixels"/>
<inkpad:setting key="DynamicGuides" value="1"/>
<inkpad:setting key="SnapToPoints" value="0"/>
<inkpad:setting key="SnapToGrid" value="0"/>
<inkpad:setting key="ShowGrid" value="0"/>
<inkpad:setting key="GridSpacing" value="36"/>
</metadata>
<defs/>
<g id="Layer" inkpad:layerName="Layer 5">
<path stroke="#000000" stroke-opacity="0.118026" stroke-width="26.88" d="M138.53+309.754C141.158+330.782+179.081+341.585+197.511+341.585" fill="none" stroke-linecap="round" opacity="1" stroke-linejoin="round"/>
<path stroke="#000000" stroke-opacity="0.118026" stroke-width="26.88" d="M376.638+298.106C388.485+298.106+401.685+296.383+413.15+299.51C420.554+301.53+473.966+312.149+480.4+312.149" fill="none" stroke-linecap="round" opacity="1" stroke-linejoin="round"/>
</g>
<g id="Layer_2" inkpad:layerName="Layer 1">
<path stroke="#000000" stroke-opacity="0.626609" stroke-width="1.64038" d="M348+175.85C289.245+195.559+214.234+149.087+170.4+177.45C101.09+222.298+129.071+325.784+207.6+340.25C268.528+351.474+283.354+288.432+344.8+281.45C363.482+279.327+385.316+279.562+403.6+284.25C433.403+291.892+466.495+310.535+498.4+301.05C569.32+279.965+554.873+185.823+498.8+155.45C425.29+115.632+408.997+155.389+348+175.85Z" fill="none" stroke-linecap="round" opacity="1" stroke-linejoin="round"/>
<path stroke="#000000" stroke-opacity="0.626609" stroke-width="1.64038" d="M186.8+229.05C186.8+263.273+226.497+264.904+236.8+249.45C245.682+236.127+217.307+231.13+209.6+233.85C201.161+236.828+196.519+246.793+192+253.05" fill="none" stroke-linecap="round" opacity="1" stroke-linejoin="round"/>
<path stroke="#000000" stroke-opacity="0.626609" stroke-width="1.64038" d="M424+207.05C424+242.393+467.415+240.066+470+231.45C476.387+210.161+443.477+210.385+436.4+234.65" fill="none" stroke-linecap="round" opacity="1" stroke-linejoin="round"/>
</g>
<g id="Layer_3" inkpad:layerName="Layer 2">
<path stroke="#000000" stroke-opacity="0.311159" stroke-width="11.2743" d="M145.2+260.8C145.2+301.383+163.023+318.8+201.6+331.2C219.213+336.861+250.4+334.981+250.4+332" fill="none" stroke-linecap="round" opacity="1" stroke-linejoin="round"/>
<path stroke="#000000" stroke-opacity="0.311159" stroke-width="11.2743" d="M189.6+239.6C211.02+214.61+222.011+220.011+241.6+239.6" fill="none" stroke-linecap="round" opacity="1" stroke-linejoin="round"/>
<path stroke="#000000" stroke-opacity="0.311159" stroke-width="11.2743" d="M430.8+224.8C435.508+201.261+480.4+194.389+480.4+224" fill="none" stroke-linecap="round" opacity="1" stroke-linejoin="round"/>
<path stroke="#000000" stroke-opacity="0.311159" stroke-width="11.2743" d="M159.2+281.2C159.2+318.078+237.835+338.847+256+311.6" fill="none" stroke-linecap="round" opacity="1" stroke-linejoin="round"/>
<path stroke="#000000" stroke-opacity="0.311159" stroke-width="11.2743" d="M256.8+325.2C289.876+289.117+324.854+273.828+374.8+273.828C394.591+273.828+431.6+287.259+431.6+289.6" fill="none" stroke-linecap="round" opacity="1" stroke-linejoin="round"/>
<path stroke="#000000" stroke-opacity="0.311159" stroke-width="11.2743" d="M450.8+281.6C463.528+291.648+482.406+299.11+499.2+296C502.738+295.345+506.844+293.322+510+291.6C514.604+289.088+543.051+265.7+526.4+276.8" fill="none" stroke-linecap="round" opacity="1" stroke-linejoin="round"/>
<path stroke="#000000" stroke-opacity="0.118026" stroke-width="26.88" d="M169.2+192.4C144.568+203.596+146+250.77+146+272.4" fill="none" stroke-linecap="round" opacity="1" stroke-linejoin="round"/>
<path stroke="#000000" stroke-opacity="0.118026" stroke-width="26.88" d="M188.4+228.8C200.374+207.846+243.55+209.802+250+235.6" fill="none" stroke-linecap="round" opacity="1" stroke-linejoin="round"/>
<path stroke="#000000" stroke-opacity="0.118026" stroke-width="26.88" d="M430+214.4C442.292+185.719+494.4+192.662+494.4+218" fill="none" stroke-linecap="round" opacity="1" stroke-linejoin="round"/>
<path stroke="#000000" stroke-opacity="0.118026" stroke-width="26.88" d="M359.6+259.6C417.84+259.6+472.352+313.636+520.4+277.6" fill="none" stroke-linecap="round" opacity="1" stroke-linejoin="round"/>
<path stroke="#000000" stroke-opacity="0.118026" stroke-width="26.88" d="M207.6+307.2C249.009+307.2+271.938+295.037+305.6+270.8" fill="none" stroke-linecap="round" opacity="1" stroke-linejoin="round"/>
</g>
<g id="Layer_4" inkpad:layerName="Layer 4">
<path stroke="#ff0000" stroke-opacity="0.598712" stroke-width="11.2743" d="M320.4+181.2C343.156+181.2+350.282+257.718+334.8+273.2" fill="none" stroke-linecap="round" opacity="1" stroke-linejoin="round"/>
<path stroke="#0000ff" stroke-opacity="0.598712" stroke-width="11.2743" d="M470.4+228C470.4+194.76+543.2+186.572+543.2+219.6" fill="none" stroke-linecap="round" opacity="1" stroke-linejoin="round"/>
<path stroke="#0000ff" stroke-opacity="0.598712" stroke-width="11.2743" d="M134+258.4C144.612+241.035+171.185+219.185+190.4+238.4C192.82+240.82+198+245.06+198+248.8" fill="none" stroke-linecap="round" opacity="1" stroke-linejoin="round"/>
</g>
<g id="Layer_5" inkpad:layerName="Layer 3">
<path stroke="#0000ff" stroke-opacity="0.598712" stroke-width="2.77353" d="M80.0463+40.1247C73.0694+45.1082+67.3057+63.0468+74.9958+58.4328C83.6393+53.2467+80.7666+29.8003+86.0438+48.6474C86.8536+51.5398+88.3956+53.4067+89.2003+56.2232" fill="none" stroke-linecap="round" opacity="1" stroke-linejoin="round"/>
<path stroke="#0000ff" stroke-opacity="0.598712" stroke-width="2.77353" d="M122.344+37.9151C104.531+44.4778+130.104+47.0047+123.923+58.7484C120.588+65.0852+114.137+60.7957+114.137+55.2762" fill="none" stroke-linecap="round" opacity="1" stroke-linejoin="round"/>
<path stroke="#0000ff" stroke-opacity="0.598712" stroke-width="2.77353" d="M131.452+44.4331C134.546+61.4514+139.822+59.0922+139.822+44.2384" fill="none" stroke-linecap="round" opacity="1" stroke-linejoin="round"/>
<path stroke="#0000ff" stroke-opacity="0.598712" stroke-width="2.77353" d="M147.804+41.5132C149.018+44.4269+148.637+43.1859+149.361+46.185C150.076+49.1497+150.181+49.0248+150.334+51.6355C150.63+56.665+151.859+43.0705+157.537+43.0705" fill="none" stroke-linecap="round" opacity="1" stroke-linejoin="round"/>
<path stroke="#0000ff" stroke-opacity="0.598712" stroke-width="2.77353" d="M174.083+31.7802C173.271+30.2924+172.898+29.1757+171.163+28.8603C164.473+27.644+166.861+61.077+168.048+67.0137" fill="none" stroke-linecap="round" opacity="1" stroke-linejoin="round"/>
<path stroke="#0000ff" stroke-opacity="0.598712" stroke-width="2.77353" d="M163.182+48.5209C168.471+47.9333+173.598+46.9637+178.949+46.9637" fill="none" stroke-linecap="round" opacity="1" stroke-linejoin="round"/>
<path stroke="#0000ff" stroke-opacity="0.598712" stroke-width="2.77353" d="M186.736+44.2384C181.66+40.1777+173.959+47.8519+176.808+53.1928C179.944+59.0732+186.982+48.0206+188.293+46.185C188.429+45.9946+188.803+45.5738+188.877+45.7957C189.902+48.8711+189.256+52.192+190.434+55.3341" fill="none" stroke-linecap="round" opacity="1" stroke-linejoin="round"/>
<path stroke="#0000ff" stroke-opacity="0.598712" stroke-width="2.77353" d="M200.946+40.5399C188.28+43.8729+195.771+67.282+207.759+49.2996" fill="none" stroke-linecap="round" opacity="1" stroke-linejoin="round"/>
<path stroke="#0000ff" stroke-opacity="0.598712" stroke-width="2.77353" d="M211.068+44.6277C224.678+49.9205+221.776+37.6352+215.74+39.5666C206.93+42.3858+209.218+55.6363+218.66+55.1394" fill="none" stroke-linecap="round" opacity="1" stroke-linejoin="round"/>
<path stroke="#0000ff" stroke-opacity="0.598712" stroke-width="2.77353" d="M247.178+45.3091C241.128+47.4228+248.182+57.9307+252.725+53.3875C256.561+49.5518+249.484+44.5033+247.178+45.3091Z" fill="none" stroke-linecap="round" opacity="1" stroke-linejoin="round"/>
<path stroke="#0000ff" stroke-opacity="0.598712" stroke-width="2.77353" d="M263.821+28.4709C257.439+49.7435+264.6+53.2972+264.6+67.0137" fill="none" stroke-linecap="round" opacity="1" stroke-linejoin="round"/>
<path stroke="#0000ff" stroke-opacity="0.598712" stroke-width="2.77353" d="M258.76+45.7957C262.848+45.7957+266.936+45.7957+271.023+45.7957" fill="none" stroke-linecap="round" opacity="1" stroke-linejoin="round"/>
<path stroke="#0000ff" stroke-opacity="0.598712" stroke-width="2.77353" d="M300.612+45.2117C296.978+35.7643+286.968+49.9778+290.295+52.0248C293.837+54.2045+304.062+43.3396+304.31+45.0171C304.999+49.6627+303.277+80.3156+299.639+62.7311" fill="none" stroke-linecap="round" opacity="1" stroke-linejoin="round"/>
<path stroke="#0000ff" stroke-opacity="0.598712" stroke-width="2.77353" d="M314.238+46.5743C324.415+46.5743+323.625+39.3245+314.433+41.5132C306.388+43.4285+307.067+56.3074+315.795+56.3074" fill="none" stroke-linecap="round" opacity="1" stroke-linejoin="round"/>
<path stroke="#0000ff" stroke-opacity="0.598712" stroke-width="2.77353" d="M328.254+43.6544C328.254+45.082+328.254+46.5095+328.254+47.937C328.254+64.5448+333.003+34.2844+341.296+40.7345C343.159+42.1834+342.736+56.1127+343.826+56.1127" fill="none" stroke-linecap="round" opacity="1" stroke-linejoin="round"/>
<path stroke="#0000ff" stroke-opacity="0.598712" stroke-width="2.77353" d="M348.109+44.4331C348.109+56.9089+357.258+54.8837+357.258+43.6544" fill="none" stroke-linecap="round" opacity="1" stroke-linejoin="round"/>
<path stroke="#0000ff" stroke-opacity="0.598712" stroke-width="2.77353" d="M371.273+39.3719C348.764+41.2477+389.509+53.7048+366.407+55.5287C363.992+55.7194+361.618+55.7234+359.205+55.7234" fill="none" stroke-linecap="round" opacity="1" stroke-linejoin="round"/>
<path stroke="#0000ff" stroke-opacity="0.598712" stroke-width="2.77353" d="M398.796+31.2895C406.1+29.8286+402.999+30.0159+408.029+30.0159C422.214+30.0159+394.767+45.6581+396.886+48.4828C398.544+50.6935+411.982+48.8012+415.352+48.8012" fill="none" stroke-linecap="round" opacity="1" stroke-linejoin="round"/>
<path stroke="#0000ff" stroke-opacity="0.598712" stroke-width="2.77353" d="M91.2267+89.5557C91.2267+97.618+91.5451+105.681+91.5451+113.754" fill="none" stroke-linecap="round" opacity="1" stroke-linejoin="round"/>
<path stroke="#0000ff" stroke-opacity="0.598712" stroke-width="2.77353" d="M92.5002+100.7C97.9132+99.153+105.023+95.9236+110.967+95.9236" fill="none" stroke-linecap="round" opacity="1" stroke-linejoin="round"/>
<path stroke="#0000ff" stroke-opacity="0.598712" stroke-width="2.77353" d="M121.793+94.9684C121.793+100.281+122.111+105.587+122.111+110.888" fill="none" stroke-linecap="round" opacity="1" stroke-linejoin="round"/>
<path stroke="#0000ff" stroke-opacity="0.598712" stroke-width="2.77353" d="M139.249+95.4469C134.941+88.9859+129.358+107.674+132.253+108.639C135.836+109.834+144.195+95.4399+144.645+98.4451C145.61+104.874+146.687+115.137+144.645+121.431C141.851+130.049+133.079+124.917+131.253+118.833" fill="none" stroke-linecap="round" opacity="1" stroke-linejoin="round"/>
<path stroke="#0000ff" stroke-opacity="0.598712" stroke-width="2.77353" d="M154.04+79.4564C154.429+88.806+155.239+98.3693+155.239+107.64" fill="none" stroke-linecap="round" opacity="1" stroke-linejoin="round"/>
<path stroke="#0000ff" stroke-opacity="0.598712" stroke-width="2.77353" d="M153.64+96.4463C162.594+80.7776+171.472+106.44+165.233+106.44" fill="none" stroke-linecap="round" opacity="1" stroke-linejoin="round"/>
<path stroke="#0000ff" stroke-opacity="0.598712" stroke-width="2.77353" d="M175.027+84.4534C175.027+92.4696+174.442+100.717+176.027+108.639" fill="none" stroke-linecap="round" opacity="1" stroke-linejoin="round"/>
<path stroke="#0000ff" stroke-opacity="0.598712" stroke-width="2.77353" d="M169.83+94.4475C174.712+94.1325+179.536+93.2482+184.422+93.2482" fill="none" stroke-linecap="round" opacity="1" stroke-linejoin="round"/>
<path stroke="#0000ff" stroke-opacity="0.598712" stroke-width="2.77353" d="M206.009+78.8568C206.409+89.6483+207.208+100.435+207.208+111.238" fill="none" stroke-linecap="round" opacity="1" stroke-linejoin="round"/>
<path stroke="#0000ff" stroke-opacity="0.598712" stroke-width="2.77353" d="M201.112+102.743C199.937+96.0147+217.219+92.625+217.602+101.443C217.925+108.881+202.741+112.078+201.112+102.743Z" fill="none" stroke-linecap="round" opacity="1" stroke-linejoin="round"/>
<path stroke="#0000ff" stroke-opacity="0.598712" stroke-width="2.77353" d="M220.6+97.4457C231.639+97.4457+233.104+89.1196+225.597+91.4493C218.113+93.7718+217.385+111.238+226.796+111.238" fill="none" stroke-linecap="round" opacity="1" stroke-linejoin="round"/>
<path stroke="#0000ff" stroke-opacity="0.598712" stroke-width="2.77353" d="M240.788+73.8597C231.941+88.0154+241.987+106.736+241.987+121.631" fill="none" stroke-linecap="round" opacity="1" stroke-linejoin="round"/>
<path stroke="#0000ff" stroke-opacity="0.598712" stroke-width="2.77353" d="M233.393+98.0454C238.924+98.0454+244.45+97.8455+249.983+97.8455" fill="none" stroke-linecap="round" opacity="1" stroke-linejoin="round"/>
<path stroke="#0000ff" stroke-opacity="0.598712" stroke-width="2.77353" d="M251.382+96.3464C254.226+93.9603+247.566+95.2862+247.184+100.244C246.954+103.235+251.699+108.1+253.98+104.841C256.965+100.577+250.224+97.3173+251.382+96.3464Z" fill="none" stroke-linecap="round" opacity="1" stroke-linejoin="round"/>
<path stroke="#0000ff" stroke-opacity="0.598712" stroke-width="2.77353" d="M258.977+90.25C258.977+98.5901+258.946+89.6736+259.177+102.643C259.21+104.508+259.177+110.105+259.177+108.239C259.177+106.625+259.132+103.21+259.377+101.843C259.623+100.474+260.079+99.1449+260.576+97.8455C261.011+96.7082+262.416+94.186+263.175+93.0483C267.017+87.2845+271.441+102.182+276.967+97.4457C278.159+96.4237+278.822+91.9335+277.966+90.6498C272.843+82.9649+256.586+107.04+274.968+107.04" fill="none" stroke-linecap="round" opacity="1" stroke-linejoin="round"/>
<path stroke="#0000ff" stroke-opacity="0.598712" stroke-width="2.77353" d="M298.554+91.2494C298.614+92.3918+299.114+106.086+303.751+102.443C306.892+99.9747+307.885+94.0962+308.548+90.4499C308.847+88.8058+308.948+83.7819+308.948+85.4529C308.948+93.9205+315.332+111.232+310.147+118.433C305.21+125.291+295.146+120.743+294.356+113.636" fill="none" stroke-linecap="round" opacity="1" stroke-linejoin="round"/>
<path stroke="#0000ff" stroke-opacity="0.598712" stroke-width="2.77353" d="M319.042+88.6509C321.722+82.7626+305.694+95.8876+316.343+100.244C321.673+102.425+323.386+96.0656+321.94+92.0489C321.15+89.8544+318.069+90.7876+319.042+88.6509Z" fill="none" stroke-linecap="round" opacity="1" stroke-linejoin="round"/>
<path stroke="#0000ff" stroke-opacity="0.598712" stroke-width="2.77353" d="M326.537+86.2524C326.537+88.9825+326.423+91.7283+326.737+94.4475C328.542+110.094+342.436+91.758+336.931+86.2524" fill="none" stroke-linecap="round" opacity="1" stroke-linejoin="round"/>
<path stroke="#0000ff" stroke-opacity="0.598712" stroke-width="2.77353" d="M342.128+85.0531C342.128+88.5728+342.526+91.7681+342.927+95.247C344.446+108.406+338.461+83.454+356.719+83.454" fill="none" stroke-linecap="round" opacity="1" stroke-linejoin="round"/>
<path stroke="#0000ff" stroke-opacity="0.598712" stroke-width="2.77353" d="M374.907+89.8057C384.416+89.8057+379.063+82.7798+371.202+84.8654C360.274+87.7644+360.701+101.333+372.025+101.333" fill="none" stroke-linecap="round" opacity="1" stroke-linejoin="round"/>
<path stroke="#0000ff" stroke-opacity="0.598712" stroke-width="2.77353" d="M385.611+84.042C388.267+86.0854+389.017+97.3098+389.316+97.422C395.248+99.6465+400.226+86.6678+400.226+82.1894C400.226+79.8565+400.164+86.8561+400.226+89.1882C400.503+99.7388+400.432+87.1292+400.432+98.0396C400.432+103.72+391.354+122.484+386.434+110.184" fill="none" stroke-linecap="round" opacity="1" stroke-linejoin="round"/>
<path stroke="#0000ff" stroke-opacity="0.598712" stroke-width="2.77353" d="M409.077+87.1297C411.632+88.0423+412.7+88.1589+415.253+88.1589C421.845+88.1589+413.137+78.7904+408.254+84.2479C402.33+90.8681+408.885+99.4805+416.076+99.4805" fill="none" stroke-linecap="round" opacity="1" stroke-linejoin="round"/>
<path stroke="#0000ff" stroke-opacity="0.598712" stroke-width="2.77353" d="M435.22+80.9543C407.33+80.9543+453.589+100.51+421.634+100.51" fill="none" stroke-linecap="round" opacity="1" stroke-linejoin="round"/>
<path stroke="#ff0000" stroke-opacity="0.598712" stroke-width="2.77353" d="M249.752+373.833C252.97+370.615+240.478+371.107+239.104+374.543C235.66+383.152+253.091+386.251+247.977+394.775C245.858+398.306+235.01+397.78+232.715+395.485" fill="none" stroke-linecap="round" opacity="1" stroke-linejoin="round"/>
<path stroke="#ff0000" stroke-opacity="0.598712" stroke-width="2.77353" d="M260.234+385.052C270.434+383.777+266.37+370.793+260.488+376.675C254.887+382.275+257.649+394.444+265.818+394.444" fill="none" stroke-linecap="round" opacity="1" stroke-linejoin="round"/>
<path stroke="#ff0000" stroke-opacity="0.598712" stroke-width="2.77353" d="M274.196+377.944C274.599+387.624+275.973+397.169+275.973+406.883" fill="none" stroke-linecap="round" opacity="1" stroke-linejoin="round"/>
<path stroke="#ff0000" stroke-opacity="0.598712" stroke-width="2.77353" d="M270.642+377.182C291.454+376.236+287.52+389.114+273.942+389.114" fill="none" stroke-linecap="round" opacity="1" stroke-linejoin="round"/>
<path stroke="#ff0000" stroke-opacity="0.598712" stroke-width="2.77353" d="M297.042+373.629C294.181+375.059+283.524+384.755+287.904+389.621C292.862+395.131+297.277+382.448+298.058+379.975C298.448+378.741+298.41+374.939+298.819+376.167C299.377+377.841+300.349+392.095+303.135+391.398C303.597+391.283+306.48+375.956+307.45+374.136C307.969+373.163+309.714+371.391+310.243+372.359C312.213+375.972+308.701+386.556+311.258+389.114C311.378+389.233+311.662+389.247+311.766+389.114C316.417+383.134+316.391+377.658+323.443+373.629" fill="none" stroke-linecap="round" opacity="1" stroke-linejoin="round"/>
<path stroke="#ff0000" stroke-opacity="0.598712" stroke-width="2.77353" d="M331.82+371.344C326.71+371.344+319.493+384.292+324.205+386.829C338.746+394.659+335.12+358.013+337.659+384.036C337.841+385.908+338.472+387.799+338.928+389.621" fill="none" stroke-linecap="round" opacity="1" stroke-linejoin="round"/>
<path stroke="#ff0000" stroke-opacity="0.598712" stroke-width="2.77353" d="M349.082+355.859C349.082+367.961+348.828+380.058+348.828+392.16" fill="none" stroke-linecap="round" opacity="1" stroke-linejoin="round"/>
<path stroke="#ff0000" stroke-opacity="0.598712" stroke-width="2.77353" d="M344.259+369.059C348.701+369.059+356.542+367.152+359.744+370.582C362.18+373.193+361.267+390.186+361.267+385.306" fill="none" stroke-linecap="round" opacity="1" stroke-linejoin="round"/>
<path stroke="#ff0000" stroke-opacity="0.598712" stroke-width="2.77353" d="M369.39+367.536C369.719+369.456+371.188+377.212+371.421+380.483C371.56+382.424+371.101+388.241+371.421+386.321C374.988+364.917+384.621+359.863+384.621+385.56" fill="none" stroke-linecap="round" opacity="1" stroke-linejoin="round"/>
<path stroke="#ff0000" stroke-opacity="0.598712" stroke-width="2.77353" d="M400.614+374.898C398.996+363.573+384.111+375.857+388.175+384.798C391.513+392.141+399.983+374.521+400.868+375.405C403.535+378.073+403.419+400.353+401.883+404.345C398.909+412.079+379.985+408.142+377.514+401.552" fill="none" stroke-linecap="round" opacity="1" stroke-linejoin="round"/>
<path stroke="#ff0000" stroke-opacity="0.598712" stroke-width="2.77353" d="M433.361+370.582C417.383+377.342+423.025+391.914+439.454+387.59" fill="none" stroke-linecap="round" opacity="1" stroke-linejoin="round"/>
<path stroke="#ff0000" stroke-opacity="0.598712" stroke-width="2.77353" d="M446.815+370.075C453.53+405.885+465.406+381.169+461.031+368.044" fill="none" stroke-linecap="round" opacity="1" stroke-linejoin="round"/>
<path stroke="#ff0000" stroke-opacity="0.598712" stroke-width="2.77353" d="M471.185+370.075C472.435+376.322+471.567+371.456+472.454+378.198C475.169+398.827+473.581+369.059+485.147+369.059" fill="none" stroke-linecap="round" opacity="1" stroke-linejoin="round"/>
<path stroke="#ff0000" stroke-opacity="0.598712" stroke-width="2.77353" d="M492.001+368.805C494.386+376.438+492.402+369.179+493.778+377.436C498.228+404.137+495.08+368.044+505.201+368.044" fill="none" stroke-linecap="round" opacity="1" stroke-linejoin="round"/>
<path stroke="#ff0000" stroke-opacity="0.598712" stroke-width="2.77353" d="M512.817+378.959C526.461+382.371+526.711+366.459+518.909+369.059C508.61+372.492+509.786+395.686+523.733+389.875" fill="none" stroke-linecap="round" opacity="1" stroke-linejoin="round"/>
<path stroke="#ff0000" stroke-opacity="0.598712" stroke-width="2.77353" d="M339.436+347.989C339.436+334.532+339.182+321.086+339.182+307.627" fill="none" stroke-linecap="round" opacity="1" stroke-linejoin="round"/>
<path stroke="#ff0000" stroke-opacity="0.598712" stroke-width="2.77353" d="M325.728+320.573C327.308+319.358+329.439+318.078+330.551+316.258C333.879+310.812+332.914+303.662+335.628+298.234C335.637+298.215+343.975+309.354+344.767+310.673C346.589+313.711+349.015+314.922+351.113+317.019" fill="none" stroke-linecap="round" opacity="1" stroke-linejoin="round"/>
</g>
</svg>
